<svg xmlns="http://www.w3.org/2000/svg" width="54" height="54" fill="none" viewBox="0 0 54 54"><path fill="#0266C1" d="M36.7153 30.2434c.6214-2.0947.1101-4.4723-.4332-6.1198a.4045.4045 0 0 0-.0533-.1797c-.1846-.5351-.3551-.9747-.5007-1.292.268-.1148.4448-.3928.4474-.7033v-3.1841c0-.4222-.3179-.7645-.7101-.7645h-8.7246c-.1961-.0004-.3554.1704-.3557.3816 0 .0079.0002.0157.0006.0236.1207 2.2935-.0355 3.8492-.4865 4.9463a.3416.3416 0 0 0-.0248.0344.3914.3914 0 0 0 0 .0573 3.9852 3.9852 0 0 1-.6889 1.0818l-.032.0229v.0267c-.4163.4274-.8964.7763-1.4203 1.0321a23.353 23.353 0 0 1-2.8052 1.1238l-.1811.065c-3.3201 1.185-3.7533 3.3332-3.7462 4.4111a.3905.3905 0 0 0 0 .0459v2.7292c.0005.1329.065.2559.1704.3249.8137.533 1.692.942 2.6099 1.2156.1888.0571.3849-.0613.438-.2645a.4094.4094 0 0 0 .013-.1178v-.0879h.522v.3823c-.0023.1893.1246.3519.2982.3822.309.0535.6179.0956.9197.1223.0989.009.1968-.0271.2699-.0993.0731-.073.1143-.1756.1136-.2829v-.4816h.522v.5428c0 .211.159.3822.3551.3822.2983 0 .5966 0 .9161-.0459.185-.0159.3273-.1825.3267-.3822v-.4969h.522v.3363c-.0025.2111.1544.3845.3505.3872a.3247.3247 0 0 0 .0614-.0049 11.3357 11.3357 0 0 0 1.921-.4931l.0569-.0268c2.4856-1.529 4.0622-.2714 4.1261-.2178a.3398.3398 0 0 0 .2166.0802h.4403c.1961 0 .3551-.1711.3551-.3822v-.646h.5078v.6383c0 .2111.159.3823.3551.3823h1.1434c.1961 0 .3551-.1712.3551-.3823v-.6383h.5255v.6383c0 .2111.159.3823.3551.3823h.8771c.1961 0 .355-.1712.355-.3823v-4.1206c.0035-.1845-.116-.3453-.284-.3822ZM28.289 18.7721h7.1586v3.165H28.289v-3.165Zm-4.4635 7.622.0036.023c.291.2544.5597.5372.8025.8447a.7644.7644 0 0 0-.0959.3823c-.0025.4032.2992.7322.6738.7348.3745.0026.6801-.3221.6826-.7253.0023-.3799-.2664-.6981-.6178-.732a5.7682 5.7682 0 0 0-.7635-.9059 5.5248 5.5248 0 0 0 .8913-.6804c.3444.3478.6648.7221.9587 1.12-.1235.3807.063.797.4166.9301.3536.1329.7404-.0678.864-.4485.1235-.3806-.063-.797-.4166-.93a.636.636 0 0 0-.2283-.0409h-.0853a10.9138 10.9138 0 0 0-1.0155-1.1888 4.7648 4.7648 0 0 0 .4474-.7186c.5497.3081 1.081.6527 1.5908 1.0321-.0035.4074.3005.7407.679.7445.3785.0038.6881-.3235.6916-.7309.0035-.4074-.3005-.7408-.679-.7445a.6448.6448 0 0 0-.3117.0772 15.4862 15.4862 0 0 0-1.6724-1.0626c.387-1.1085.5539-2.5802.4758-4.587h.4652v3.165c0 .4223.3179.7645.7101.7645h6.6544c.0923.2026.2486.5543.419 1.013h-.1456c-2.1571.0168-3.8932 1.9128-3.8776 4.2349.0088 1.3196.5926 2.5581 1.5767 3.345-2.8727.8142-7.1942 1.7813-10.8303 1.529.6711-2.8859-.1314-4.6634-.6534-5.4432a22.629 22.629 0 0 0 2.3898-1.0015Zm-3.1035 1.2194c.3835.4855 1.3849 2.1177.6498 5.1183-1.2795-.1083-2.5221-.5125-3.6432-1.185a2.6426 2.6426 0 0 1-.0249-.2637v-.0268c-.0284-.8142.2557-2.5763 3.0183-3.6428Zm15.4003 6.7505v-.6384c0-.2111-.159-.3822-.3551-.3822H34.535c-.1961 0-.3551.1711-.3551.3822v.6384h-.4367v-.6384c0-.2111-.159-.3822-.3551-.3822H32.163c-.1961 0-.3551.1711-.3551.3822v.6231c-.4829-.3249-2.2477-1.2691-4.7511.237a10.4633 10.4633 0 0 1-1.36.3822v-.2637c0-.2111-.159-.3823-.3551-.3823h-1.225c-.1961 0-.3551.1712-.3551.3823v.5237h-.1811v-.5352c0-.2111-.159-.3822-.3551-.3822h-1.2322c-.1961 0-.3551.1711-.3551.3822v.4549l-.1811-.0268v-.4281c0-.2111-.1589-.3822-.355-.3822h-1.2322c-.1806-.0014-.3334.1433-.3551.3363a9.2445 9.2445 0 0 1-1.811-.8753v-1.3684c1.5482.8829 3.5509 1.2155 5.6815 1.2155 5.6601 0 12.137-2.3317 12.9004-2.6107l.0036 3.3561h-.1669Zm-.174-4.0327c-.3018.107-1.044.3822-2.0702.6766-1.5887-.8278-2.2533-2.8851-1.4844-4.5954.526-1.1698 1.6195-1.9208 2.8266-1.9411.14-.0021.28.0056.4191.023l.0035.0114c.522 1.6208.9907 3.9334.3054 5.8255Z"/><path fill="#0266C1" d="M29.6564 19.2347c-.5707 0-1.0333.498-1.0333 1.1123.0019.6135.4634 1.1103 1.0333 1.1124.5706 0 1.0333-.4981 1.0333-1.1124 0-.6143-.4626-1.1123-1.0333-1.1123Zm0 1.4602c-.1785 0-.3232-.1557-.3232-.3479 0-.1921.1447-.3478.3232-.3478.1784 0 .3231.1557.3231.3478 0 .1922-.1447.3479-.3231.3479Z"/><path stroke="#0266C1" d="M.5.5h53v53H.5z"/></svg>