<svg xmlns="http://www.w3.org/2000/svg" width="17" height="17" fill="none" viewBox="0 0 17 17"><path fill="#1C3374" d="M14.32 4.7a4.32 4.32 0 0 0-2.34-2.29 4.4 4.4 0 0 0-4.48.65 4.33 4.33 0 0 0-2.78-.98A4.4 4.4 0 0 0 .68 4.7C.45 5.24.33 5.8.33 6.4c0 .55.11 1.13.34 1.71.18.5.45 1 .8 1.52.54.8 1.29 1.65 2.22 2.51a24.85 24.85 0 0 0 3.13 2.45l.4.25c.17.11.4.11.57 0l.39-.25c.06-.04 1.59-1.02 3.13-2.45.93-.86 1.68-1.7 2.22-2.51.35-.52.62-1.03.8-1.52a4.8 4.8 0 0 0 .34-1.71c0-.59-.12-1.16-.35-1.7ZM7.5 13.54S1.59 9.74 1.59 6.4a3.1 3.1 0 0 1 3.13-3.06C5.92 3.34 6.98 4 7.5 5a3.13 3.13 0 0 1 2.78-1.66 3.1 3.1 0 0 1 3.13 3.06c0 3.34-5.91 7.13-5.91 7.13Z"/></svg>