<svg xmlns="http://www.w3.org/2000/svg" width="25" height="25" fill="none" viewBox="0 0 25 25"><g fill="#2D383F" clip-path="url(#a)"><path d="M24.1704 22.2803V6.7013a.463.463 0 0 0-.602-.4632v.0232l-2.084.653a6.2527 6.2527 0 0 0 .3844-1.82C21.8688 2.2807 19.588 0 16.7745 0c-2.8134 0-5.0942 2.2808-5.0942 5.0942a6.0206 6.0206 0 0 0 .3566 1.7367L8.5914 5.599a.493.493 0 0 0-.1205 0h-.037a.4632.4632 0 0 0-.1621.0324L1.126 8.4101a.463.463 0 0 0-.2964.389v15.5976a.4632.4632 0 0 0 .6298.4307l6.9837-2.7045 7.9656 2.8527a.4627.4627 0 0 0 .2964 0l7.1412-2.2322a.463.463 0 0 0 .3241-.4631ZM16.7745.9263c2.302 0 4.168 1.866 4.168 4.168 0 1.8107-2.7184 6.8123-4.168 9.2622-1.4495-2.4684-4.168-7.4747-4.168-9.2623 0-2.302 1.8661-4.168 4.168-4.168Zm6.4836 21.0345-6.2335 1.9497v-3.5336a.4631.4631 0 0 0-.9262 0v3.5012l-7.1968-2.5749v-2.964a.4632.4632 0 0 0-.9262 0v2.964l-6.2196 2.422v-7.1597l2.2878-.9262a.4631.4631 0 1 0-.3428-.8568l-1.945.7827V9.1187l6.2195-2.4082v1.3893a.4631.4631 0 0 0 .9263 0V6.692l3.552 1.2735a64.3365 64.3365 0 0 0 3.9226 7.558.463.463 0 0 0 .7919 0 64.5868 64.5868 0 0 0 3.9087-7.5117l2.1674-.6807.0138 7.5904-2.3479.5696a.4665.4665 0 1 0 .1111.9262.4597.4597 0 0 0 .1112 0l2.1256-.5187v6.0622h.0001Z"/><path d="M16.7556 2.4033c-1.486 0-2.6907 1.2047-2.6907 2.6907s1.2047 2.6907 2.6907 2.6907c1.485-.0026 2.6882-1.2057 2.6907-2.6907 0-1.486-1.2047-2.6907-2.6907-2.6907Zm0 4.4552c-.9661-.0127-1.7435-.7982-1.7459-1.7645h-.0185c0-.9745.7899-1.7645 1.7644-1.7645.9745 0 1.7645.79 1.7645 1.7645 0 .9745-.79 1.7645-1.7645 1.7645ZM10.6981 13.9672v.0139l-2.2415-.9679a.4631.4631 0 0 0-.3566 0l-1.8941.7642a.4643.4643 0 1 0 .3473.8613l1.7135-.69 2.0609.8707a.4638.4638 0 0 0 .1852.037.463.463 0 0 0 .1853-.8892ZM18.27 16.6161a.4633.4633 0 0 0-.5233-.3192l.0046-.037-1.1485.2778-1.945-.8428a.4645.4645 0 1 0-.3705.8521l2.084.9262a.4622.4622 0 0 0 .1852.0371h.1112l1.2967-.3149a.4633.4633 0 0 0 .3056-.5793Z"/></g><defs><clipPath id="a"><path fill="#fff" d="M0 0h25v25H0z"/></clipPath></defs></svg>