<svg xmlns="http://www.w3.org/2000/svg" width="25" height="25" fill="none" viewBox="0 0 25 25"><g fill="#2D383F" clip-path="url(#a)"><path d="m23.4153 24.1879-4.0406-9.3978-3.8164-8.8827a.477.477 0 0 0-.8777 0l-3.4062 7.9047-1.3357 3.1056-2.929-6.7598a.477.477 0 0 0-.8778 0L3.3793 16.517.0399 24.1831a.4771.4771 0 0 0 .439.6679h22.4976a.477.477 0 0 0 .4388-.6631ZM15.1147 7.2956l3.096 7.1987h-1.0876l-1.9655-2.1706a.477.477 0 0 0-.7537.062l-.7347 1.1354h-1.2308l2.6763-6.2255Zm-8.544 4.2362 2.4473 5.6578H7.6823a.4772.4772 0 0 0-.4008.2195l-.477.7585-1.2308-1.7365a.4767.4767 0 0 0-.3912-.2051H4.548l2.0227-4.6942Zm-5.343 12.3651 2.9053-6.7168h.8015l1.4884 2.1228a.4771.4771 0 0 0 .3911.2052.4772.4772 0 0 0 .3912-.2195l.7347-1.1354h1.4884l2.4854 5.7246-10.686.0191Zm11.7307 0-2.4997-5.7723 1.5695-3.6494h1.9082a.477.477 0 0 0 .4007-.2194l.5295-.8158 1.6888 1.8653a.477.477 0 0 0 .353.1574h1.7078l3.6304 8.4485-9.2882-.0143ZM7.611 2.0819C7.161.9226 5.8563.3477 4.697.7978A2.2516 2.2516 0 0 0 3.2603 2.888a2.1794 2.1794 0 0 0 0 .248C2.1324 3.66 1.6428 4.999 2.1666 6.1269a2.2517 2.2517 0 0 0 2 1.3028l.024.019h3.3393c1.482.0225 2.7015-1.1607 2.7239-2.6428.0224-1.482-1.1608-2.7015-2.6428-2.724Zm-.0525 4.427H4.219c-.714.0738-1.3526-.4452-1.4263-1.1592-.0738-.714.4452-1.3526 1.1592-1.4264a.477.477 0 0 0 .3578-.6202 1.2826 1.2826 0 0 1-.0716-.415c-.004-.7166.5736-1.3009 1.2902-1.305a1.2975 1.2975 0 0 1 1.2859 1.076.477.477 0 0 0 .5295.3912 1.6325 1.6325 0 0 1 .2147 0c.955 0 1.7293.7742 1.7293 1.7293 0 .955-.7743 1.7293-1.7293 1.7293ZM23.6966 2.64a2.1838 2.1838 0 0 0 0-.248C23.6917 1.1483 22.6797.1441 21.4362.149a2.251 2.251 0 0 0-2.0823 1.4183c-1.4745.0309-2.6493 1.2466-2.627 2.7233.0224 1.482 1.2419 2.6652 2.7239 2.6428h3.3394c1.2433-.0232 2.2324-1.05 2.2092-2.2933A2.2517 2.2517 0 0 0 23.6966 2.64Zm.3593 2.3076a1.2975 1.2975 0 0 1-1.2514 1.027h-3.3394c-.955 0-1.7293-.7743-1.7293-1.7293 0-.9551.7743-1.7294 1.7293-1.7294a1.633 1.633 0 0 1 .2147 0 .477.477 0 0 0 .5152-.372c.1196-.7066.7893-1.1825 1.4959-1.063.7066.1196 1.1825.7894 1.0629 1.496a1.3013 1.3013 0 0 1-.0543.211.4771.4771 0 0 0 .3578.6202c.7009.1493 1.148.8386.9986 1.5395Z"/></g><defs><clipPath id="a"><path fill="#fff" d="M0 0h25v25H0z"/></clipPath></defs></svg>