<svg xmlns="http://www.w3.org/2000/svg" width="25" height="25" fill="none" viewBox="0 0 25 25"><path fill="#1C3374" d="M20.1449 8.18493a6.25035 6.25035 0 0 1 1.615 3.12667 6.25046 6.25046 0 0 1-.3303 3.5036 6.24949 6.24949 0 0 1-2.1709 2.7697 6.24906 6.24906 0 0 1-3.3232 1.1578l-.3109.0079-5.1453-.0016 1.7937 1.7953a.78119.78119 0 0 1 .2259.482.78103.78103 0 0 1-.1353.5149l-.0906.1078a.78094.78094 0 0 1-.482.2259.78103.78103 0 0 1-.5149-.1353l-.1078-.0906-3.12811-3.1281a.78146.78146 0 0 1-.22512-.4823.7812.7812 0 0 1 .13606-.5146l.08906-.1078 3.12811-3.1281a.78141.78141 0 0 1 .5176-.2293.78101.78101 0 0 1 .5364.1805c.15.1251.2477.3018.2739.4953a.78158.78158 0 0 1-.1326.5503l-.0906.1094-1.7937 1.7922h5.1453a4.68748 4.68748 0 0 0 3.2155-1.2764 4.68793 4.68793 0 0 0 1.4642-3.1345l.0078-.275a4.6721 4.6721 0 0 0-1.3532-3.29535.78186.78186 0 0 1-.2255-.54124.78165.78165 0 0 1 .2145-.54568.7815.7815 0 0 1 .5337-.24278.78117.78117 0 0 1 .5523.19688l.1125.1125h-.0015Zm-6.4203-4.92344.1093.08907 3.1266 3.12812.0906.10938a.7808.7808 0 0 1 .1383.44375.78083.78083 0 0 1-.1383.44375l-.0906.10937-3.1266 3.12657-.1093.0906a.7811.7811 0 0 1-.8875 0l-.1094-.0906-.0891-.1094a.78151.78151 0 0 1 0-.88748l.0891-.10937 1.7937-1.79219H9.37456a4.68752 4.68752 0 0 0-4.67968 4.41254l-.00782.275c0 1.2812.51407 2.4406 1.34532 3.2875a.78113.78113 0 0 1 .19293.5449.78096.78096 0 0 1-.23453.5284.78103.78103 0 0 1-.53358.2225.78128.78128 0 0 1-.54045-.2052 6.25018 6.25018 0 0 1-1.36201-6.6508 6.25005 6.25005 0 0 1 5.50732-3.96953l.3125-.00781L14.5214 6.249l-1.7937-1.79219-.0891-.10938a.78102.78102 0 0 1-.1331-.51346.78073.78073 0 0 1 .2255-.48015.78113.78113 0 0 1 .4801-.22547.78146.78146 0 0 1 .5135.13314Z"/></svg>