<svg xmlns="http://www.w3.org/2000/svg" width="54" height="54" fill="none" viewBox="0 0 54 54"><g clip-path="url(#a)"><path stroke="#0266C1" stroke-linecap="round" d="M34.143 24.767h-5.357c-1.677 0-3.036 1.37-3.036 3.059s1.36 3.058 3.036 3.058h2.321c1.677 0 3.036 1.369 3.036 3.058 0 1.689-1.36 3.058-3.036 3.058h-11.25m2.857-5.07c0-1.59-1.279-2.878-2.857-2.878A2.868 2.868 0 0 0 17 31.93v.108c0 .632.198 1.247.567 1.757l2.285 3.164a.007.007 0 0 0 .01 0l2.285-3.164c.369-.51.567-1.126.567-1.757v-.108Zm-2.304-1.185.017.008c.345.165.598.48.684.856a1.277 1.277 0 0 1-1.239 1.56h-.03a1.275 1.275 0 0 1-1.239-1.56 1.26 1.26 0 0 1 .685-.856l.017-.008c.35-.166.755-.166 1.105 0ZM37 19.898C37 18.308 35.72 17 34.143 17c-1.578 0-2.857 1.309-2.857 2.898 0 .625.2 1.24.57 1.742l2.281 3.088a.007.007 0 0 0 .011 0l2.282-3.088a2.94 2.94 0 0 0 .57-1.742Zm-2.313-1.247.04.018a1.225 1.225 0 0 1 .423 1.886l-.013.015a1.244 1.244 0 0 1-.96.454h-.068c-.371 0-.723-.167-.96-.454l-.013-.015a1.225 1.225 0 0 1 .423-1.886l.04-.018a1.29 1.29 0 0 1 1.089 0Z"/></g><path stroke="#0266C1" d="M.5.5h53v53H.5z"/><defs><clipPath id="a"><path fill="#fff" d="M16 16h22v22H16z"/></clipPath></defs></svg>