<svg xmlns="http://www.w3.org/2000/svg" width="79" height="14" fill="none" viewBox="0 0 79 14"><g clip-path="url(#a)"><path fill="#fff" d="m7.5 11.04 4.63 2.61-1.22-4.92L15 5.43l-5.4-.44L7.5.35 5.4 4.99 0 5.42l4.1 3.31-1.23 4.92 4.63-2.6Z"/></g><g clip-path="url(#b)"><path fill="#fff" d="m23.5 11.04 4.64 2.61-1.23-4.92L31 5.43l-5.4-.44L23.5.35l-2.1 4.64-5.4.43 4.1 3.31-1.24 4.92 4.64-2.6Z"/></g><g clip-path="url(#c)"><path fill="#fff" d="m39.5 11.04 4.63 2.61-1.22-4.92L47 5.43l-5.4-.44L39.5.35l-2.1 4.64-5.4.43 4.1 3.31-1.23 4.92 4.63-2.6Z"/></g><g clip-path="url(#d)"><path stroke="#fff" d="m55.75 10.6-.25-.13-.25.14-3.62 2.04.95-3.8.07-.3-.24-.2-3.12-2.53 4.14-.33.3-.03.12-.26 1.65-3.64 1.65 3.64.12.26.3.03 4.14.33-3.12 2.52-.24.2.07.31.95 3.8-3.62-2.04Z"/></g><g clip-path="url(#e)"><path stroke="#fff" d="m71.75 10.6-.25-.13-.25.14-3.62 2.04.95-3.8.07-.3-.24-.2-3.12-2.53 4.14-.33.3-.03.12-.26 1.65-3.64 1.65 3.64.12.26.3.03 4.14.33-3.12 2.52-.24.2.07.31.95 3.8-3.62-2.04Z"/></g><defs><clipPath id="a"><path fill="#fff" d="M0 0h15v14H0z"/></clipPath><clipPath id="b"><path fill="#fff" d="M16 0h15v14H16z"/></clipPath><clipPath id="c"><path fill="#fff" d="M32 0h15v14H32z"/></clipPath><clipPath id="d"><path fill="#fff" d="M48 0h15v14H48z"/></clipPath><clipPath id="e"><path fill="#fff" d="M64 0h15v14H64z"/></clipPath></defs></svg>