<svg xmlns="http://www.w3.org/2000/svg" width="62" height="62" fill="none" viewBox="0 0 62 62"><g clip-path="url(#a)"><g fill="#2D383F" clip-path="url(#b)"><path d="m22.71 40.22 5.44-5.74 6.19 5.74h10.6l-16.86-16.6-16.72 16.6H22.7Z"/><path d="m38.28 13.59-8.02 8.2 5.3 5.45 2.72-2.73 14.9 14.89A23.9 23.9 0 0 1 30.8 54.97 23.9 23.9 0 0 1 6.94 31 24 24 0 0 1 30.87 7.03 23.9 23.9 0 0 1 54.33 26.7l7.2 7.65A30.85 30.85 0 0 0 52.7 9.09 30.6 30.6 0 0 0 30.88 0C22.57 0 14.9 3.2 9.04 9.08A30.73 30.73 0 0 0 0 31c0 8.33 3.2 16.05 9.04 21.92A30.6 30.6 0 0 0 30.87 62a30.6 30.6 0 0 0 21.83-9.08 30.33 30.33 0 0 0 7.61-12.63c.28-.82.48-1.71.68-2.53l-6.25-6.62-16.46-17.55ZM87.21 19.92h4.54l-2.47 12.5h7.66l-.74 3.62H84l3.21-16.12ZM101.2 19.92h4.55l-3.21 16.12H98l3.2-16.12ZM112.8 23.44l-.7 3.55h7.08l-.71 3.52h-7.06l-1.1 5.53h-4.54l3.2-16.12h12.57l-.7 3.52h-8.03ZM127.45 23.44l-.53 2.72h7.13l-.66 3.4h-7.16l-.57 2.95h8.41l-.73 3.53h-12.86l3.2-16.12h12.57l-.7 3.52h-8.1ZM141.78 23.54h-4.94l.74-3.62h14.38l-.74 3.62h-4.9l-2.5 12.5h-4.54l2.5-12.5ZM158.88 36.36c-1.62 0-3.03-.3-4.24-.9a6.69 6.69 0 0 1-2.78-2.5 7.04 7.04 0 0 1-.96-3.7c0-1.83.42-3.5 1.26-4.97a9.07 9.07 0 0 1 3.56-3.45 10.74 10.74 0 0 1 5.2-1.24c1.62 0 3.03.3 4.22.9a6.5 6.5 0 0 1 2.77 2.5 6.9 6.9 0 0 1 .99 3.69c0 1.84-.43 3.5-1.29 4.97a8.87 8.87 0 0 1-3.55 3.46 10.61 10.61 0 0 1-5.18 1.24Zm.39-3.78c1 0 1.9-.25 2.66-.76a5.03 5.03 0 0 0 1.76-2.02c.42-.86.62-1.8.62-2.83 0-1.1-.33-1.96-1-2.6a3.74 3.74 0 0 0-2.78-1 4.7 4.7 0 0 0-4.43 2.81 6.3 6.3 0 0 0-.61 2.81c0 1.1.32 1.97.98 2.63.67.64 1.6.96 2.8.96ZM177.42 36.36c-1.39 0-2.59-.23-3.6-.7a5.27 5.27 0 0 1-3.12-5.1c0-.5.06-1.06.19-1.7l1.79-8.94h4.53l-1.76 8.86c-.1.46-.14.89-.14 1.27 0 1.69.89 2.53 2.66 2.53.96 0 1.72-.29 2.27-.87a6 6 0 0 0 1.26-2.93l1.77-8.86h4.47l-1.81 9.14c-.98 4.87-3.82 7.3-8.5 7.3ZM204.16 25.05c0 1.48-.4 2.75-1.17 3.83a6.66 6.66 0 0 1-3.28 2.32l2.73 4.84h-4.75l-2.38-4.29H193l-.84 4.29h-4.54l3.2-16.12h6.86c2.05 0 3.64.45 4.77 1.36 1.13.9 1.7 2.16 1.7 3.77Zm-4.59.44c0-.66-.22-1.15-.66-1.47a3 3 0 0 0-1.86-.5h-2.39l-.96 4.71h2.7c1.02 0 1.8-.24 2.35-.71.55-.48.82-1.15.82-2.03ZM87.03 51.23a3.1 3.1 0 0 1-1.51-.37 2.78 2.78 0 0 1-1.43-2.48 2.72 2.72 0 0 1 1.43-2.47c.45-.25.95-.38 1.5-.38.56 0 1.06.12 1.5.37a2.81 2.81 0 0 1 1.44 2.48c0 .54-.13 1.03-.39 1.47-.25.43-.6.77-1.05 1.01-.44.25-.94.37-1.5.37Zm0-.53c.44 0 .84-.1 1.2-.3.35-.2.63-.47.83-.82.2-.36.3-.76.3-1.2 0-.44-.1-.83-.3-1.18-.2-.36-.48-.64-.84-.84-.35-.2-.75-.3-1.2-.3-.43 0-.84.1-1.2.3-.35.2-.64.48-.84.84-.2.35-.3.74-.3 1.18 0 .44.1.84.3 1.2a2.27 2.27 0 0 0 2.05 1.12ZM93.39 46.94c.39 0 .75.1 1.07.27.31.18.56.43.75.76.18.32.27.7.27 1.1 0 .43-.1.8-.27 1.13-.19.33-.44.58-.75.76-.32.18-.67.27-1.07.27a1.79 1.79 0 0 1-1.6-.83v2.34h-.56v-5.77h.54v.84c.17-.28.4-.5.67-.65a2 2 0 0 1 .95-.22Zm-.04 3.78c.29 0 .56-.07.8-.2.23-.14.42-.33.55-.58.14-.26.21-.54.21-.86 0-.32-.07-.6-.2-.85a1.44 1.44 0 0 0-.57-.58c-.23-.14-.5-.21-.8-.21-.3 0-.56.07-.8.2-.23.14-.42.34-.56.59-.13.25-.2.53-.2.85 0 .32.07.6.2.86.14.25.33.44.56.58.24.13.5.2.8.2ZM99.66 47.48h-2.4v3.7h-.57v-4.2h2.97v.5ZM101.92 46.94c.55 0 .97.14 1.26.42.3.27.44.68.44 1.21v2.62h-.54v-.66a1.3 1.3 0 0 1-.57.51c-.24.12-.54.19-.88.19-.46 0-.84-.12-1.11-.34a1.09 1.09 0 0 1-.42-.89c0-.36.13-.65.39-.87.26-.21.67-.32 1.23-.32h1.33v-.26c0-.36-.1-.64-.3-.82-.2-.2-.5-.3-.88-.3a2.19 2.19 0 0 0-1.4.5l-.25-.42c.2-.18.46-.32.76-.42.3-.1.61-.15.94-.15Zm-.2 3.84c.32 0 .6-.08.82-.22.23-.15.4-.36.51-.64v-.69h-1.31c-.72 0-1.08.25-1.08.75 0 .25.1.44.28.59.19.14.45.2.78.2ZM105.13 46.97h.56v1.87h2.64v-1.87h.57v4.22h-.57v-1.86h-2.64v1.86h-.56v-4.22ZM110.5 46.97h.58v3.35l2.8-3.35h.5v4.22h-.57v-3.35l-2.8 3.34h-.5v-4.2ZM117.95 49c.3.06.53.18.7.35.16.17.24.38.24.63 0 .24-.09.46-.26.65-.16.2-.39.34-.67.45a3.16 3.16 0 0 1-1.84.02c-.3-.09-.56-.22-.77-.39l.19-.42a2.57 2.57 0 0 0 1.44.46c.39 0 .7-.08.95-.22.25-.15.38-.35.38-.6 0-.23-.1-.4-.3-.52-.2-.13-.48-.2-.84-.2h-.71v-.41h.68c.31 0 .57-.06.76-.18.2-.12.29-.28.29-.49 0-.22-.11-.4-.33-.52-.21-.13-.5-.2-.84-.2-.45 0-.9.12-1.34.35l-.16-.44c.5-.26 1.02-.4 1.56-.4.32 0 .6.05.86.15.26.09.46.22.6.4.15.16.23.36.23.58 0 .22-.08.4-.22.57-.15.17-.34.3-.6.37ZM121.62 46.94c.55 0 .96.14 1.26.42.29.27.44.68.44 1.21v2.62h-.55v-.66a1.3 1.3 0 0 1-.56.51c-.25.12-.54.19-.88.19-.47 0-.84-.12-1.12-.34a1.09 1.09 0 0 1-.41-.89c0-.36.13-.65.38-.87.26-.21.67-.32 1.24-.32h1.33v-.26c0-.36-.1-.64-.3-.82-.2-.2-.5-.3-.89-.3a2.18 2.18 0 0 0-1.4.5l-.25-.42c.21-.18.47-.32.77-.42.3-.1.6-.15.94-.15Zm-.2 3.84c.32 0 .6-.08.82-.22.23-.15.4-.36.51-.64v-.69h-1.32c-.71 0-1.07.25-1.07.75 0 .25.09.44.28.59.18.14.44.2.78.2ZM129.2 50.69v1.55h-.54V51.2h-3.84v-4.22h.57v3.72h2.56v-3.72h.56v3.72h.68ZM130.28 46.97h.56v3.35l2.8-3.35h.5v4.22h-.56v-3.35l-2.8 3.34h-.5v-4.2ZM138.99 46.97v4.22h-.52v-1.4h-1.48l-.97 1.4h-.61l1.04-1.48c-.32-.09-.57-.24-.75-.46a1.3 1.3 0 0 1-.26-.84c0-.47.16-.82.48-1.07a2.1 2.1 0 0 1 1.3-.37H139ZM136 48.43c0 .62.4.94 1.2.94h1.26v-1.9h-1.23c-.82 0-1.23.32-1.23.96ZM146.45 46.97v4.22h-.56v-3.71h-2.63v3.7h-.57v-4.2h3.76ZM149.8 51.23c-.41 0-.78-.1-1.1-.28a2.04 2.04 0 0 1-.76-.77c-.2-.32-.28-.69-.28-1.1 0-.41.09-.78.28-1.1.18-.33.44-.59.76-.77a2.2 2.2 0 0 1 1.1-.27c.4 0 .76.1 1.08.27.33.18.58.44.76.76.19.33.28.7.28 1.1 0 .42-.1.79-.28 1.11-.18.33-.43.59-.75.77a2.2 2.2 0 0 1-1.1.28Zm0-.5c.3 0 .56-.08.79-.21.24-.14.43-.33.56-.58.13-.26.2-.54.2-.86 0-.32-.07-.6-.2-.86a1.53 1.53 0 0 0-1.36-.78c-.3 0-.56.07-.8.2-.24.14-.42.33-.56.58-.13.25-.2.54-.2.86 0 .32.07.6.2.86.14.25.32.44.56.58.24.13.5.2.8.2ZM155.6 51.19l-1.32-1.77-1.34 1.77h-.64l1.66-2.17-1.58-2.05h.64l1.26 1.65 1.26-1.65h.62l-1.58 2.05 1.67 2.16h-.64ZM158.76 51.23c-.4 0-.76-.1-1.09-.28a2.05 2.05 0 0 1-.76-.77c-.19-.32-.28-.69-.28-1.1 0-.41.09-.78.28-1.1a2 2 0 0 1 .76-.77 2.2 2.2 0 0 1 1.1-.27c.4 0 .76.1 1.09.27.32.18.57.44.75.76.2.33.28.7.28 1.1 0 .42-.09.79-.27 1.11-.19.33-.44.59-.76.77a2.2 2.2 0 0 1-1.1.28Zm0-.5c.3 0 .57-.08.8-.21.24-.14.43-.33.56-.58.13-.26.2-.54.2-.86 0-.32-.07-.6-.2-.86a1.53 1.53 0 0 0-1.36-.78c-.3 0-.56.07-.8.2-.24.14-.42.33-.56.58-.13.25-.2.54-.2.86 0 .32.07.6.2.86.14.25.32.44.56.58.24.13.5.2.8.2ZM166.17 50.69v1.51h-.53v-1.02h-3.76v1.02h-.53V50.7h.24c.28-.02.47-.23.57-.63.1-.4.17-.96.2-1.68l.06-1.4h3.1v3.7h.65Zm-3.28-2.28c-.03.6-.08 1.1-.15 1.49-.08.38-.21.64-.4.79h2.61v-3.21h-2.02l-.04.93ZM169 51.23c-.4 0-.76-.1-1.09-.28a2.04 2.04 0 0 1-.76-.77c-.19-.32-.28-.69-.28-1.1 0-.41.1-.78.28-1.1.18-.33.44-.59.76-.77a2.2 2.2 0 0 1 1.1-.27c.4 0 .76.1 1.09.27.32.18.58.44.76.76.18.33.27.7.27 1.1 0 .42-.09.79-.27 1.11-.19.33-.44.59-.76.77a2.2 2.2 0 0 1-1.1.28Zm0-.5c.3 0 .57-.08.8-.21.24-.14.43-.33.56-.58.13-.26.2-.54.2-.86 0-.32-.07-.6-.2-.86a1.53 1.53 0 0 0-1.35-.78c-.3 0-.57.07-.81.2-.23.14-.42.33-.56.58-.13.25-.2.54-.2.86 0 .32.07.6.2.86.14.25.33.44.56.58.24.13.5.2.8.2ZM175.02 49c.57.14.85.48.85 1.04 0 .37-.14.65-.4.85-.28.2-.68.3-1.22.3h-1.9v-4.22h1.84c.48 0 .86.1 1.13.28.27.19.4.46.4.8 0 .23-.06.43-.19.6-.12.16-.29.28-.51.36Zm-2.13-.15h1.27c.32 0 .57-.06.74-.19.17-.12.26-.3.26-.53 0-.24-.09-.42-.26-.53a1.3 1.3 0 0 0-.75-.18h-1.25v1.43Zm1.34 1.89c.36 0 .63-.06.81-.18.18-.12.27-.3.27-.55 0-.25-.08-.44-.25-.55-.16-.13-.42-.19-.78-.19h-1.38v1.47h1.33ZM181.96 49c.56.14.85.48.85 1.04 0 .37-.14.65-.4.85-.28.2-.68.3-1.22.3h-1.9v-4.22h1.84c.48 0 .86.1 1.13.28.27.19.4.46.4.8 0 .23-.06.43-.19.6-.12.16-.3.28-.51.36Zm-2.13-.15h1.26c.33 0 .58-.06.75-.19.17-.12.26-.3.26-.53 0-.24-.09-.42-.26-.53a1.3 1.3 0 0 0-.75-.18h-1.26v1.43Zm1.34 1.89c.36 0 .63-.06.81-.18.18-.12.27-.3.27-.55 0-.25-.08-.44-.25-.55-.16-.13-.42-.19-.78-.19h-1.39v1.47h1.34ZM189.19 47.48h-2.4v3.7h-.57v-4.2h2.97v.5ZM191.54 51.23c-.4 0-.76-.1-1.09-.28a2.04 2.04 0 0 1-.76-.77c-.19-.32-.28-.69-.28-1.1 0-.41.09-.78.28-1.1.18-.33.44-.59.76-.77a2.2 2.2 0 0 1 1.1-.27c.4 0 .76.1 1.09.27.32.18.57.44.75.76.19.33.28.7.28 1.1 0 .42-.09.79-.28 1.11-.18.33-.43.59-.75.77a2.2 2.2 0 0 1-1.1.28Zm0-.5c.3 0 .57-.08.8-.21.24-.14.43-.33.56-.58.13-.26.2-.54.2-.86 0-.32-.07-.6-.2-.86a1.53 1.53 0 0 0-1.36-.78 1.46 1.46 0 0 0-1.36.78c-.13.25-.2.54-.2.86 0 .32.07.6.2.86.14.25.32.44.56.58.24.13.5.2.8.2ZM197.04 46.94c.4 0 .75.1 1.07.27.32.18.57.43.75.76.18.32.27.7.27 1.1 0 .43-.09.8-.27 1.13-.18.33-.43.58-.75.76-.31.18-.67.27-1.07.27a1.78 1.78 0 0 1-1.6-.83v2.34h-.56v-5.77h.55v.84c.17-.28.39-.5.67-.65a2 2 0 0 1 .94-.22Zm-.03 3.78c.29 0 .55-.07.8-.2.23-.14.42-.33.55-.58.14-.26.2-.54.2-.86 0-.32-.06-.6-.2-.85a1.44 1.44 0 0 0-.56-.58c-.24-.14-.5-.21-.8-.21-.3 0-.56.07-.8.2-.23.14-.42.34-.56.59-.13.25-.2.53-.2.85 0 .32.07.6.2.86.14.25.33.44.56.58.24.13.5.2.8.2ZM202.11 48.46c.53 0 .93.13 1.2.35.28.23.42.57.42 1 0 .45-.15.79-.44 1.03-.3.24-.73.36-1.28.35h-1.66v-4.22h.57v1.48l1.2.01Zm2.32-1.49h.57v4.22h-.57v-4.22Zm-2.45 3.8c.39 0 .68-.08.88-.24.2-.17.3-.4.3-.72 0-.31-.1-.54-.3-.7-.2-.14-.49-.22-.88-.22l-1.06-.02v1.87l1.06.02Z"/></g></g><defs><clipPath id="a"><path fill="#fff" d="M0 0h62v62H0z"/></clipPath><clipPath id="b"><path fill="#fff" d="M0 0h205v62H0z"/></clipPath></defs></svg>