<svg xmlns="http://www.w3.org/2000/svg" width="205" height="60" fill="none" viewBox="0 0 205 60"><g fill="#2D383F" clip-path="url(#a)"><path d="m22.7109 38.9207 5.4398-5.5507 6.1878 5.5507h10.6076L28.0827 22.8634 11.3553 38.9207h11.3556Z"/><path d="m38.2827 13.1498-8.0237 7.9295 5.3038 5.2863 2.7199-2.6431 14.8915 14.4053c-3.3999 8.7885-12.1036 15.066-22.3713 15.066C17.6114 53.1938 6.9358 42.8194 6.9358 30c.068-12.8194 10.7436-23.1938 23.9351-23.1938 11.6956 0 21.4873 8.2599 23.4592 19.0308l7.2078 7.4009c.136-1.0573.204-2.1806.204-3.2379 0-7.9956-3.1959-15.5286-9.0437-21.2114C46.8504 3.1057 39.0987 0 30.8709 0 22.5752 0 14.8915 3.1057 9.0437 8.7886 3.1959 14.4714 0 21.9383 0 30c0 8.0617 3.1959 15.5286 9.0437 21.2115C14.8915 56.8943 22.6432 60 30.8709 60c8.2278 0 15.9795-3.1057 21.8273-8.7885 3.6039-3.5023 6.1878-7.6652 7.6157-12.2247.272-.793.476-1.652.68-2.4449l-6.2558-6.4097-16.4554-16.9824ZM87.2138 19.2778h4.5397l-2.4762 12.0985h7.6578l-.7336 3.4981H84.0039l3.2099-15.5966ZM101.208 19.2778h4.539l-3.209 15.5966h-4.5401l3.2101-15.5966ZM112.806 22.6868l-.711 3.4313h7.085l-.711 3.4089h-7.061l-1.101 5.3474h-4.54l3.21-15.5966h12.565l-.711 3.409h-8.025ZM127.448 22.6868l-.527 2.6291h7.13l-.665 3.2976h-7.153l-.574 2.852h8.415l-.734 3.4089h-12.862l3.21-15.5966h12.564l-.711 3.409h-8.093ZM141.775 22.7759h-4.93l.734-3.4981h14.376l-.734 3.4981h-4.906l-2.5 12.0985h-4.539l2.499-12.0985ZM158.879 35.1864c-1.62 0-3.034-.2897-4.242-.869-1.192-.5793-2.117-1.3888-2.774-2.4286-.642-1.0398-.963-2.2281-.963-3.5649 0-1.7825.42-3.3867 1.261-4.8127.856-1.426 2.041-2.54 3.554-3.3421 1.528-.8022 3.263-1.2032 5.204-1.2032 1.621 0 3.027.2896 4.219.8689 1.208.5793 2.132 1.3889 2.774 2.4287.658 1.0397.986 2.228.986 3.5649 0 1.7825-.428 3.3867-1.284 4.8127-.84 1.426-2.025 2.54-3.553 3.3421-1.514.8021-3.241 1.2032-5.182 1.2032Zm.39-3.6541c1.009 0 1.895-.2451 2.659-.7353.765-.4901 1.353-1.1437 1.766-1.9607.412-.8318.619-1.7453.619-2.7405 0-1.0547-.336-1.8939-1.009-2.5178-.657-.6387-1.582-.958-2.774-.958-1.009 0-1.896.245-2.66.7352-.764.4902-1.353 1.1512-1.765 1.983-.413.817-.619 1.7231-.619 2.7183 0 1.0546.328 1.9013.985 2.54.673.6239 1.605.9358 2.798.9358ZM177.421 35.1864c-1.391 0-2.591-.2228-3.6-.6684-1.009-.4605-1.781-1.1141-2.316-1.9608-.535-.8466-.802-1.8419-.802-2.9856 0-.4753.061-1.0249.183-1.6488l1.789-8.645h4.539l-1.765 8.5782c-.092.4456-.138.8541-.138 1.2254 0 1.6339.887 2.4509 2.66 2.4509.963 0 1.719-.2822 2.27-.8467.565-.5793.986-1.5225 1.261-2.8296l1.765-8.5782h4.471l-1.811 8.8455c-.978 4.7087-3.814 7.0631-8.506 7.0631ZM204.157 24.2465c0 1.4259-.389 2.6588-1.169 3.6986-.779 1.0249-1.872 1.775-3.279 2.2504l2.729 4.6789h-4.746l-2.385-4.1442h-2.292l-.849 4.1442h-4.539l3.209-15.5966h6.856c2.048 0 3.638.4382 4.769 1.3146 1.131.8764 1.696 2.0944 1.696 3.6541Zm-4.585.4233c0-.6387-.222-1.1141-.665-1.426-.443-.3268-1.062-.4902-1.857-.4902h-2.385l-.963 4.5676h2.706c1.009 0 1.788-.2302 2.338-.6907.551-.4605.826-1.114.826-1.9607ZM87.0264 49.5804c-.553 0-1.0554-.1188-1.5073-.3565-.4466-.2428-.7975-.5735-1.0527-.992-.2498-.4185-.3748-.8886-.3748-1.4105 0-.5218.125-.992.3748-1.4104.2552-.4185.6061-.7466 1.0527-.9843.4519-.2428.9543-.3642 1.5073-.3642.5529 0 1.05.1188 1.4913.3565.4466.2376.7975.5683 1.0527.992.2551.4184.3827.8886.3827 1.4104 0 .5219-.1276.9946-.3827 1.4183-.2552.4185-.6061.7465-1.0527.9842-.4413.2377-.9384.3565-1.4913.3565Zm0-.5115c.4412 0 .84-.0956 1.1962-.2867.3562-.1964.6353-.465.8374-.806.202-.3462.303-.7311.303-1.1548 0-.4236-.101-.806-.303-1.147-.2021-.3461-.4812-.6148-.8374-.8059-.3562-.1964-.755-.2945-1.1962-.2945-.4413 0-.8427.0981-1.2042.2945-.3562.1911-.638.4598-.8454.8059-.202.341-.303.7234-.303 1.147 0 .4237.101.8086.303 1.1548.2074.341.4892.6096.8454.806.3615.1911.7629.2867 1.2042.2867ZM93.387 45.4265c.3934 0 .7497.0878 1.0686.2635.319.1705.5689.4133.7497.7284.1807.3152.2711.6743.2711 1.0773 0 .4081-.0904.7698-.2711 1.085-.1808.3151-.4307.5605-.7497.7362-.3136.1705-.6698.2557-1.0686.2557-.3403 0-.6486-.0671-.9251-.2015-.2711-.1395-.4944-.341-.6699-.6044v2.2707h-.5662v-5.5799h.5423v.8059c.1701-.2686.3934-.4753.6699-.6199.2818-.1447.5981-.217.949-.217Zm-.0399 3.6579c.2924 0 .5583-.0646.7975-.1938.2393-.1343.4253-.3229.5583-.5657.1382-.2428.2073-.5192.2073-.8292 0-.31-.0691-.5839-.2073-.8215-.133-.2428-.319-.4314-.5583-.5658-.2392-.1343-.5051-.2015-.7975-.2015-.2977 0-.5662.0672-.8054.2015-.234.1344-.42.323-.5583.5658-.1329.2376-.1993.5115-.1993.8215 0 .31.0664.5864.1993.8292.1383.2428.3243.4314.5583.5657.2392.1292.5077.1938.8054.1938ZM99.6596 45.9457h-2.4004v3.5882h-.5662v-4.0764h2.9666v.4882ZM101.921 45.4265c.548 0 .968.1343 1.26.4029.293.2635.439.6562.439 1.178v2.5265h-.542v-.6355c-.128.2118-.317.3772-.566.496-.245.1188-.537.1782-.878.1782-.468 0-.84-.1085-1.116-.3255-.277-.217-.415-.5037-.415-.8602 0-.3462.128-.6252.383-.837.26-.2118.672-.3177 1.236-.3177h1.332v-.248c0-.3513-.101-.6174-.303-.7983-.202-.186-.497-.279-.885-.279-.266 0-.521.044-.766.1318-.245.0827-.455.1989-.63.3487l-.255-.4107c.212-.1757.468-.31.765-.403.298-.0982.612-.1472.941-.1472Zm-.199 3.7121c.319 0 .593-.0697.821-.2092.229-.1447.399-.3513.511-.62v-.6665h-1.316c-.718 0-1.077.2428-1.077.7285 0 .2377.093.4262.279.5657.187.1344.447.2015.782.2015ZM105.127 45.4575h.567v1.8057h2.639v-1.8057h.566v4.0764h-.566v-1.798h-2.639v1.798h-.567v-4.0764ZM110.509 45.4575h.566v3.2394l2.799-3.2394h.503v4.0764h-.567v-3.2395l-2.791 3.2395h-.51v-4.0764ZM117.955 47.4104c.298.0672.527.1834.686.3488.165.1653.247.3668.247.6045 0 .2376-.085.4494-.255.6354-.165.186-.391.3307-.678.434-.287.0982-.603.1473-.949.1473-.303 0-.601-.0413-.893-.124-.292-.0878-.548-.2144-.766-.3798l.192-.4107c.191.1395.415.248.67.3255.255.0775.513.1162.773.1162.388 0 .705-.0697.949-.2092.25-.1447.375-.3384.375-.5812 0-.217-.101-.385-.303-.5038-.202-.124-.478-.186-.829-.186h-.718v-.403h.686c.313 0 .566-.0568.757-.1705.192-.1188.287-.2764.287-.4727 0-.217-.109-.3875-.326-.5115-.213-.124-.492-.186-.838-.186-.452 0-.898.1111-1.34.3332l-.159-.4262c.5-.2532 1.018-.3797 1.555-.3797.319 0 .606.0465.861.1395.261.0878.463.2144.606.3797.149.1653.224.3565.224.5735 0 .2067-.075.3901-.224.5502-.143.1602-.34.279-.59.3565ZM121.617 45.4265c.548 0 .968.1343 1.26.4029.293.2635.439.6562.439 1.178v2.5265h-.543v-.6355c-.127.2118-.316.3772-.566.496-.244.1188-.537.1782-.877.1782-.468 0-.84-.1085-1.116-.3255-.277-.217-.415-.5037-.415-.8602 0-.3462.127-.6252.383-.837.26-.2118.672-.3177 1.236-.3177h1.332v-.248c0-.3513-.101-.6174-.304-.7983-.202-.186-.497-.279-.885-.279-.266 0-.521.044-.765.1318-.245.0827-.455.1989-.63.3487l-.256-.4107c.213-.1757.468-.31.766-.403.298-.0982.611-.1472.941-.1472Zm-.199 3.7121c.319 0 .593-.0697.821-.2092.229-.1447.399-.3513.511-.62v-.6665h-1.316c-.718 0-1.077.2428-1.077.7285 0 .2377.093.4262.279.5657.186.1344.447.2015.782.2015ZM129.193 49.0534v1.5035h-.534v-1.023h-3.836v-4.0764h.566v3.5959h2.56v-3.5959h.566v3.5959h.678ZM130.275 45.4575h.566v3.2394l2.799-3.2394h.502v4.0764h-.566v-3.2395l-2.791 3.2395h-.51v-4.0764ZM138.987 45.4575v4.0764h-.518v-1.3485h-1.476l-.973 1.3485h-.614l1.045-1.426c-.324-.0878-.574-.2377-.75-.4495-.175-.2118-.263-.4805-.263-.806 0-.4546.16-.8008.479-1.0385.319-.2376.755-.3564 1.308-.3564h1.762Zm-2.975 1.4104c0 .6045.396.9068 1.189.9068h1.268v-1.829h-1.229c-.818 0-1.228.3074-1.228.9222ZM146.453 45.4575v4.0764h-.566v-3.5882h-2.632v3.5882h-.566v-4.0764h3.764ZM149.793 49.5726c-.404 0-.768-.0878-1.093-.2635-.324-.1808-.579-.4288-.765-.7439-.186-.3152-.279-.6717-.279-1.0695 0-.3979.093-.7543.279-1.0695.186-.3152.441-.5606.765-.7362.325-.1757.689-.2635 1.093-.2635s.768.0878 1.092.2635c.325.1756.577.421.758.7362.186.3152.279.6716.279 1.0695 0 .3978-.093.7543-.279 1.0695-.181.3151-.433.5631-.758.7439-.324.1757-.688.2635-1.092.2635Zm0-.4882c.298 0 .563-.0646.797-.1938.24-.1343.426-.3229.559-.5657.133-.2428.199-.5192.199-.8292 0-.31-.066-.5864-.199-.8293-.133-.2428-.319-.4288-.559-.558-.234-.1343-.499-.2015-.797-.2015-.298 0-.566.0672-.806.2015-.234.1292-.42.3152-.558.558-.133.2429-.199.5193-.199.8293 0 .31.066.5864.199.8292.138.2428.324.4314.558.5657.24.1292.508.1938.806.1938ZM155.608 49.5339l-1.332-1.705-1.34 1.705h-.638l1.659-2.0925-1.579-1.9839h.638l1.26 1.5964 1.26-1.5964h.622l-1.579 1.9839 1.675 2.0925h-.646ZM158.765 49.5726c-.404 0-.769-.0878-1.093-.2635-.324-.1808-.579-.4288-.766-.7439-.186-.3152-.279-.6717-.279-1.0695 0-.3979.093-.7543.279-1.0695.187-.3152.442-.5606.766-.7362.324-.1757.689-.2635 1.093-.2635s.768.0878 1.092.2635c.324.1756.577.421.758.7362.186.3152.279.6716.279 1.0695 0 .3978-.093.7543-.279 1.0695-.181.3151-.434.5631-.758.7439-.324.1757-.688.2635-1.092.2635Zm0-.4882c.297 0 .563-.0646.797-.1938.239-.1343.425-.3229.558-.5657.133-.2428.2-.5192.2-.8292 0-.31-.067-.5864-.2-.8293-.133-.2428-.319-.4288-.558-.558-.234-.1343-.5-.2015-.797-.2015-.298 0-.567.0672-.806.2015-.234.1292-.42.3152-.558.558-.133.2429-.199.5193-.199.8293 0 .31.066.5864.199.8292.138.2428.324.4314.558.5657.239.1292.508.1938.806.1938ZM166.172 49.0534v1.4647h-.535v-.9842h-3.756v.9842h-.534v-1.4647h.239c.282-.0155.473-.217.574-.6045.101-.3875.171-.93.208-1.6275l.056-1.3639h3.094v3.5959h.654Zm-3.286-2.201c-.026.5787-.077 1.0566-.151 1.4338-.075.3719-.208.6277-.399.7672h2.616v-3.1077h-2.018l-.048.9067ZM169.006 49.5726c-.404 0-.768-.0878-1.093-.2635-.324-.1808-.579-.4288-.765-.7439-.186-.3152-.28-.6717-.28-1.0695 0-.3979.094-.7543.28-1.0695.186-.3152.441-.5606.765-.7362.325-.1757.689-.2635 1.093-.2635s.768.0878 1.092.2635c.325.1756.577.421.758.7362.186.3152.279.6716.279 1.0695 0 .3978-.093.7543-.279 1.0695-.181.3151-.433.5631-.758.7439-.324.1757-.688.2635-1.092.2635Zm0-.4882c.297 0 .563-.0646.797-.1938.239-.1343.426-.3229.558-.5657.133-.2428.2-.5192.2-.8292 0-.31-.067-.5864-.2-.8293-.132-.2428-.319-.4288-.558-.558-.234-.1343-.5-.2015-.797-.2015-.298 0-.566.0672-.806.2015-.234.1292-.42.3152-.558.558-.133.2429-.199.5193-.199.8293 0 .31.066.5864.199.8292.138.2428.324.4314.558.5657.24.1292.508.1938.806.1938ZM175.017 47.4259c.569.1292.853.4624.853.9998 0 .3565-.136.6303-.407.8214-.271.1912-.675.2868-1.212.2868h-1.906v-4.0764h1.85c.479 0 .854.0904 1.125.2712.271.1808.407.4392.407.775 0 .2222-.064.4133-.192.5735-.122.155-.295.2712-.518.3487Zm-2.122-.155h1.26c.325 0 .572-.0594.742-.1782.176-.1189.263-.2919.263-.5193 0-.2273-.087-.3978-.263-.5115-.17-.1136-.417-.1705-.742-.1705h-1.26v1.3795Zm1.332 1.829c.362 0 .633-.0568.814-.1705.18-.1137.271-.2919.271-.5347 0-.2429-.083-.4211-.247-.5348-.165-.1188-.426-.1782-.782-.1782h-1.388v1.4182h1.332ZM181.956 47.4259c.569.1292.853.4624.853.9998 0 .3565-.135.6303-.407.8214-.271.1912-.675.2868-1.212.2868h-1.906v-4.0764h1.85c.479 0 .854.0904 1.125.2712.271.1808.407.4392.407.775 0 .2222-.064.4133-.192.5735-.122.155-.295.2712-.518.3487Zm-2.121-.155h1.26c.324 0 .571-.0594.741-.1782.176-.1189.263-.2919.263-.5193 0-.2273-.087-.3978-.263-.5115-.17-.1136-.417-.1705-.741-.1705h-1.26v1.3795Zm1.331 1.829c.362 0 .633-.0568.814-.1705.181-.1137.271-.2919.271-.5347 0-.2429-.083-.4211-.247-.5348-.165-.1188-.426-.1782-.782-.1782h-1.387v1.4182h1.331ZM189.19 45.9457h-2.4v3.5882h-.567v-4.0764h2.967v.4882ZM191.544 49.5726c-.404 0-.768-.0878-1.092-.2635-.325-.1808-.58-.4288-.766-.7439-.186-.3152-.279-.6717-.279-1.0695 0-.3979.093-.7543.279-1.0695.186-.3152.441-.5606.766-.7362.324-.1757.688-.2635 1.092-.2635.404 0 .768.0878 1.093.2635.324.1756.577.421.757.7362.186.3152.279.6716.279 1.0695 0 .3978-.093.7543-.279 1.0695-.18.3151-.433.5631-.757.7439-.325.1757-.689.2635-1.093.2635Zm0-.4882c.298 0 .564-.0646.798-.1938.239-.1343.425-.3229.558-.5657.133-.2428.199-.5192.199-.8292 0-.31-.066-.5864-.199-.8293-.133-.2428-.319-.4288-.558-.558-.234-.1343-.5-.2015-.798-.2015-.298 0-.566.0672-.805.2015-.234.1292-.42.3152-.559.558-.133.2429-.199.5193-.199.8293 0 .31.066.5864.199.8292.139.2428.325.4314.559.5657.239.1292.507.1938.805.1938ZM197.045 45.4265c.393 0 .749.0878 1.068.2635.319.1705.569.4133.75.7284.181.3152.271.6743.271 1.0773 0 .4081-.09.7698-.271 1.085-.181.3151-.431.5605-.75.7362-.313.1705-.67.2557-1.068.2557-.341 0-.649-.0671-.925-.2015-.272-.1395-.495-.341-.67-.6044v2.2707h-.566v-5.5799h.542v.8059c.17-.2686.393-.4753.67-.6199.281-.1447.598-.217.949-.217Zm-.04 3.6579c.292 0 .558-.0646.797-.1938.24-.1343.426-.3229.559-.5657.138-.2428.207-.5192.207-.8292 0-.31-.069-.5839-.207-.8215-.133-.2428-.319-.4314-.559-.5658-.239-.1343-.505-.2015-.797-.2015-.298 0-.566.0672-.806.2015-.234.1344-.42.323-.558.5658-.133.2376-.199.5115-.199.8215 0 .31.066.5864.199.8292.138.2428.324.4314.558.5657.24.1292.508.1938.806.1938ZM202.113 46.8989c.526.0052.928.1189 1.204.341.277.2222.415.5425.415.961 0 .434-.149.7672-.447.9997-.297.2325-.723.3462-1.276.341l-1.658-.0077v-4.0764h.566v1.4259l1.196.0155Zm2.321-1.4414H205v4.0764h-.566v-4.0764Zm-2.456 3.6656c.388.0052.68-.0697.877-.2247.202-.1602.303-.3927.303-.6975 0-.2997-.099-.5218-.295-.6665-.197-.1446-.492-.2196-.885-.2247l-1.061-.0155v1.8134l1.061.0155Z"/></g><defs><clipPath id="a"><path fill="#fff" d="M0 0h205v60H0z"/></clipPath></defs></svg>