<svg xmlns="http://www.w3.org/2000/svg"><style>:root svg:not(:target){display:none}</style><svg fill="none" viewBox="0 0 24 24" id="boots"><path fill="#2D383F" d="M23.6583 15.6155c.7457-2.335.1321-4.9854-.5198-6.822a.4265.4265 0 0 0-.0639-.2002c-.2216-.5966-.4262-1.0866-.6009-1.4403a.8522.8522 0 0 0 .5369-.784V2.8195a.8522.8522 0 0 0-.8522-.8522H11.6889a.426.426 0 0 0-.4261.4517c.1449 2.5566-.0426 4.2909-.5837 5.5138a.3763.3763 0 0 0-.0299.0383.426.426 0 0 0 0 .064 4.4094 4.4094 0 0 1-.8266 1.2058l-.0384.0256v.0298a6.1489 6.1489 0 0 1-1.7044 1.1505 29.297 29.297 0 0 1-3.3663 1.2528l-.2173.0724c-3.984 1.321-4.504 3.7157-4.4954 4.9173a.409.409 0 0 0 0 .0511v3.0425a.4263.4263 0 0 0 .2045.3622 12.382 12.382 0 0 0 3.132 1.355.4261.4261 0 0 0 .541-.4261v-.098h.6265v.4261a.4261.4261 0 0 0 .3579.4261 14.452 14.452 0 0 0 1.1036.1363.4258.4258 0 0 0 .3238-.1108.426.426 0 0 0 .1364-.3153v-.5369h.6264v.6051c0 .2353.1908.4261.4261.4261.358 0 .7159 0 1.0994-.0511a.4261.4261 0 0 0 .392-.4261v-.554h.6264v.375a.4261.4261 0 0 0 .4942.4261 14.4439 14.4439 0 0 0 2.3053-.5497l.0682-.0298c2.9827-1.7044 4.8746-.3025 4.9513-.2429a.4258.4258 0 0 0 .26.0895h.5283a.426.426 0 0 0 .4261-.4261v-.7201h.6094v.7116c0 .2353.1908.4261.4261.4261h1.3721a.4261.4261 0 0 0 .4261-.4261v-.7116h.6306v.7116c0 .2353.1908.4261.4261.4261h1.0525a.4261.4261 0 0 0 .4261-.4261v-4.5935a.426.426 0 0 0-.3409-.4261ZM13.5468 2.828h8.5903v3.5282h-8.5903V2.828Zm-5.3562 8.4966.0043.0256a7.309 7.309 0 0 1 .963.9417.8052.8052 0 0 0-.115.4261.8138.8138 0 0 0 .8085.8191.8138.8138 0 0 0 .0777-1.6245 6.5723 6.5723 0 0 0-.9161-1.0098 6.608 6.608 0 0 0 1.0695-.7585c.4133.3877.7978.805 1.1505 1.2485a.814.814 0 0 0 1.5367.5369.814.814 0 0 0-.774-1.0823h-.1022a12.457 12.457 0 0 0-1.2187-1.3252c.2031-.25.3828-.5182.5369-.8011a17.864 17.864 0 0 1 1.909 1.1505.8224.8224 0 1 0 .4559-.7287 18.8433 18.8433 0 0 0-2.007-1.1845c.4645-1.2358.6648-2.8763.571-5.1133h.5582v3.5281c0 .4707.3815.8523.8522.8523h7.9853c.1108.2258.2983.6178.5028 1.1291h-.1747c-2.5886.0187-4.6719 2.1323-4.6532 4.7209a4.6874 4.6874 0 0 0 1.892 3.7289c-3.4472.9076-8.6329 1.9856-12.9963 1.7044.8054-3.2171-.1576-5.1985-.784-6.0678a28.3359 28.3359 0 0 0 2.8677-1.1164Zm-3.7242 1.3593c.4602.5412 1.6618 2.3606.7798 5.7056a10.7056 10.7056 0 0 1-4.3719-1.3209 2.7085 2.7085 0 0 1-.0298-.2941v-.0298c-.0341-.9076.3068-2.872 3.622-4.0608Zm18.4803 7.5251v-.7116a.426.426 0 0 0-.4261-.4261H21.042a.426.426 0 0 0-.4261.4261v.7116h-.5241v-.7116a.426.426 0 0 0-.4261-.4261h-1.4701a.426.426 0 0 0-.4261.4261v.6945c-.5795-.3622-2.6973-1.4147-5.7013.2642a13.3169 13.3169 0 0 1-1.632.4261v-.294a.4261.4261 0 0 0-.4261-.4261H8.54a.4261.4261 0 0 0-.4261.4261v.5838h-.2173v-.5966a.4261.4261 0 0 0-.4261-.4261H5.9919a.4261.4261 0 0 0-.4261.4261v.5071l-.2174-.0298v-.4773a.4261.4261 0 0 0-.426-.4261H3.4437a.4262.4262 0 0 0-.4262.375 11.4809 11.4809 0 0 1-2.1731-.9758V18.023c1.8578.9843 4.261 1.3551 6.8177 1.3551 6.7922 0 14.5644-2.5993 15.4805-2.9104l.0043 3.7413h-.2003Zm-.2088-4.4955c-.3622.1193-1.2527.4261-2.4842.7542-1.9064-.9226-2.704-3.2161-1.7813-5.1226a3.835 3.835 0 0 1 3.392-2.1638c.168-.0023.3359.0062.5028.0256l.0043.0127c.6264 1.8067 1.1888 4.3847.3664 6.4939Z"/><path fill="#2D383F" d="M15.1872 3.3438c-.6848 0-1.2399.5551-1.2399 1.24.0023.6838.5561 1.2375 1.2399 1.2399.6848 0 1.24-.5552 1.24-1.24s-.5551-1.24-1.24-1.24Zm0 1.6277a.3877.3877 0 1 1 0-.7755.3877.3877 0 0 1 0 .7755Z"/></svg><svg fill="none" viewBox="0 0 22 22" id="cross"><path stroke="#2D383F" stroke-width="2" d="m2 2 9 9m9 9-9-9m0 0 9-9L2 20"/></svg><svg fill="none" viewBox="0 0 54 54" id="equipment"><path fill="#0266C1" d="M36.7153 30.2434c.6214-2.0947.1101-4.4723-.4332-6.1198a.4045.4045 0 0 0-.0533-.1797c-.1846-.5351-.3551-.9747-.5007-1.292.268-.1148.4448-.3928.4474-.7033v-3.1841c0-.4222-.3179-.7645-.7101-.7645h-8.7246c-.1961-.0004-.3554.1704-.3557.3816 0 .0079.0002.0157.0006.0236.1207 2.2935-.0355 3.8492-.4865 4.9463a.3416.3416 0 0 0-.0248.0344.3914.3914 0 0 0 0 .0573 3.9852 3.9852 0 0 1-.6889 1.0818l-.032.0229v.0267c-.4163.4274-.8964.7763-1.4203 1.0321a23.353 23.353 0 0 1-2.8052 1.1238l-.1811.065c-3.3201 1.185-3.7533 3.3332-3.7462 4.4111a.3905.3905 0 0 0 0 .0459v2.7292c.0005.1329.065.2559.1704.3249.8137.533 1.692.942 2.6099 1.2156.1888.0571.3849-.0613.438-.2645a.4094.4094 0 0 0 .013-.1178v-.0879h.522v.3823c-.0023.1893.1246.3519.2982.3822.309.0535.6179.0956.9197.1223.0989.009.1968-.0271.2699-.0993.0731-.073.1143-.1756.1136-.2829v-.4816h.522v.5428c0 .211.159.3822.3551.3822.2983 0 .5966 0 .9161-.0459.185-.0159.3273-.1825.3267-.3822v-.4969h.522v.3363c-.0025.2111.1544.3845.3505.3872a.3247.3247 0 0 0 .0614-.0049 11.3357 11.3357 0 0 0 1.921-.4931l.0569-.0268c2.4856-1.529 4.0622-.2714 4.1261-.2178a.3398.3398 0 0 0 .2166.0802h.4403c.1961 0 .3551-.1711.3551-.3822v-.646h.5078v.6383c0 .2111.159.3823.3551.3823h1.1434c.1961 0 .3551-.1712.3551-.3823v-.6383h.5255v.6383c0 .2111.159.3823.3551.3823h.8771c.1961 0 .355-.1712.355-.3823v-4.1206c.0035-.1845-.116-.3453-.284-.3822ZM28.289 18.7721h7.1586v3.165H28.289v-3.165Zm-4.4635 7.622.0036.023c.291.2544.5597.5372.8025.8447a.7644.7644 0 0 0-.0959.3823c-.0025.4032.2992.7322.6738.7348.3745.0026.6801-.3221.6826-.7253.0023-.3799-.2664-.6981-.6178-.732a5.7682 5.7682 0 0 0-.7635-.9059 5.5248 5.5248 0 0 0 .8913-.6804c.3444.3478.6648.7221.9587 1.12-.1235.3807.063.797.4166.9301.3536.1329.7404-.0678.864-.4485.1235-.3806-.063-.797-.4166-.93a.636.636 0 0 0-.2283-.0409h-.0853a10.9138 10.9138 0 0 0-1.0155-1.1888 4.7648 4.7648 0 0 0 .4474-.7186c.5497.3081 1.081.6527 1.5908 1.0321-.0035.4074.3005.7407.679.7445.3785.0038.6881-.3235.6916-.7309.0035-.4074-.3005-.7408-.679-.7445a.6448.6448 0 0 0-.3117.0772 15.4862 15.4862 0 0 0-1.6724-1.0626c.387-1.1085.5539-2.5802.4758-4.587h.4652v3.165c0 .4223.3179.7645.7101.7645h6.6544c.0923.2026.2486.5543.419 1.013h-.1456c-2.1571.0168-3.8932 1.9128-3.8776 4.2349.0088 1.3196.5926 2.5581 1.5767 3.345-2.8727.8142-7.1942 1.7813-10.8303 1.529.6711-2.8859-.1314-4.6634-.6534-5.4432a22.629 22.629 0 0 0 2.3898-1.0015Zm-3.1035 1.2194c.3835.4855 1.3849 2.1177.6498 5.1183-1.2795-.1083-2.5221-.5125-3.6432-1.185a2.6426 2.6426 0 0 1-.0249-.2637v-.0268c-.0284-.8142.2557-2.5763 3.0183-3.6428Zm15.4003 6.7505v-.6384c0-.2111-.159-.3822-.3551-.3822H34.535c-.1961 0-.3551.1711-.3551.3822v.6384h-.4367v-.6384c0-.2111-.159-.3822-.3551-.3822H32.163c-.1961 0-.3551.1711-.3551.3822v.6231c-.4829-.3249-2.2477-1.2691-4.7511.237a10.4633 10.4633 0 0 1-1.36.3822v-.2637c0-.2111-.159-.3823-.3551-.3823h-1.225c-.1961 0-.3551.1712-.3551.3823v.5237h-.1811v-.5352c0-.2111-.159-.3822-.3551-.3822h-1.2322c-.1961 0-.3551.1711-.3551.3822v.4549l-.1811-.0268v-.4281c0-.2111-.1589-.3822-.355-.3822h-1.2322c-.1806-.0014-.3334.1433-.3551.3363a9.2445 9.2445 0 0 1-1.811-.8753v-1.3684c1.5482.8829 3.5509 1.2155 5.6815 1.2155 5.6601 0 12.137-2.3317 12.9004-2.6107l.0036 3.3561h-.1669Zm-.174-4.0327c-.3018.107-1.044.3822-2.0702.6766-1.5887-.8278-2.2533-2.8851-1.4844-4.5954.526-1.1698 1.6195-1.9208 2.8266-1.9411.14-.0021.28.0056.4191.023l.0035.0114c.522 1.6208.9907 3.9334.3054 5.8255Z"/><path fill="#0266C1" d="M29.6564 19.2347c-.5707 0-1.0333.498-1.0333 1.1123.0019.6135.4634 1.1103 1.0333 1.1124.5706 0 1.0333-.4981 1.0333-1.1124 0-.6143-.4626-1.1123-1.0333-1.1123Zm0 1.4602c-.1785 0-.3232-.1557-.3232-.3479 0-.1921.1447-.3478.3232-.3478.1784 0 .3231.1557.3231.3478 0 .1922-.1447.3479-.3231.3479Z"/><path stroke="#0266C1" d="M.5.5h53v53H.5z"/></svg><svg fill="none" viewBox="0 0 17 17" id="heart"><path fill="#1C3374" d="M14.32 4.7a4.32 4.32 0 0 0-2.34-2.29 4.4 4.4 0 0 0-4.48.65 4.33 4.33 0 0 0-2.78-.98A4.4 4.4 0 0 0 .68 4.7C.45 5.24.33 5.8.33 6.4c0 .55.11 1.13.34 1.71.18.5.45 1 .8 1.52.54.8 1.29 1.65 2.22 2.51a24.85 24.85 0 0 0 3.13 2.45l.4.25c.17.11.4.11.57 0l.39-.25c.06-.04 1.59-1.02 3.13-2.45.93-.86 1.68-1.7 2.22-2.51.35-.52.62-1.03.8-1.52a4.8 4.8 0 0 0 .34-1.71c0-.59-.12-1.16-.35-1.7ZM7.5 13.54S1.59 9.74 1.59 6.4a3.1 3.1 0 0 1 3.13-3.06C5.92 3.34 6.98 4 7.5 5a3.13 3.13 0 0 1 2.78-1.66 3.1 3.1 0 0 1 3.13 3.06c0 3.34-5.91 7.13-5.91 7.13Z"/></svg><svg fill="none" viewBox="0 0 54 54" id="knowledge"><path stroke="#0266C1" d="M33.687 36H20.313M37 23.11l-2.925 9.695h-14.15L17 23.11l5.772 3.504L27 18l4.228 8.614L37 23.11Z"/><path stroke="#0266C1" d="M.5.5h53v53H.5z"/></svg><svg fill="none" viewBox="0 0 14 8" id="left"><path fill="#fff" d="M.646 4.354a.5.5 0 0 1 0-.708L3.828.464a.5.5 0 1 1 .708.708L1.707 4l2.829 2.828a.5.5 0 1 1-.708.708L.646 4.354ZM14 4.5H1v-1h13v1Z"/></svg><svg viewBox="0 0 14 9" fill="none" id="left2"><path d="M0.646446 4.85355C0.451184 4.65829 0.451184 4.34171 0.646446 4.14645L3.82843 0.964466C4.02369 0.769204 4.34027 0.769204 4.53553 0.964466C4.7308 1.15973 4.7308 1.47631 4.53553 1.67157L1.70711 4.5L4.53553 7.32843C4.7308 7.52369 4.7308 7.84027 4.53553 8.03553C4.34027 8.2308 4.02369 8.2308 3.82843 8.03553L0.646446 4.85355ZM14 5H1V4H14V5Z" fill="#1C3374"/></svg><svg fill="none" viewBox="0 0 12 12" id="level"><g stroke="#fff" stroke-linecap="round" stroke-miterlimit="16" clip-path="url(#level_0)"><path d="M10.909 11.4545H8.9454V.5455h1.9636v10.909ZM6.9817 11.4545V3.5206H5.0181v7.9339h1.9636ZM3.0545 11.4545V6.4958H1.0908v4.9587h1.9637Z"/></g><defs><clipPath id="level_0"><path fill="#fff" d="M0 0h12v12H0z"/></clipPath></defs></svg><svg fill="none" viewBox="0 0 22 22" id="mail"><path stroke="#2D383F" stroke-linecap="round" stroke-linejoin="round" d="M21 5.56v10.88c0 .86-.64 1.56-1.43 1.56H2.43C1.64 18 1 17.3 1 16.44V5.56m20 0C21 4.7 20.36 4 19.57 4H2.43C1.64 4 1 4.7 1 5.56m20 0-8.14 7.6c-1.07 1-2.65 1-3.72 0L1 5.55"/></svg><svg fill="none" viewBox="0 0 25 25" id="map"><g fill="#2D383F" clip-path="url(#map_0)"><path d="M24.1704 22.2803V6.7013a.463.463 0 0 0-.602-.4632v.0232l-2.084.653a6.2527 6.2527 0 0 0 .3844-1.82C21.8688 2.2807 19.588 0 16.7745 0c-2.8134 0-5.0942 2.2808-5.0942 5.0942a6.0206 6.0206 0 0 0 .3566 1.7367L8.5914 5.599a.493.493 0 0 0-.1205 0h-.037a.4632.4632 0 0 0-.1621.0324L1.126 8.4101a.463.463 0 0 0-.2964.389v15.5976a.4632.4632 0 0 0 .6298.4307l6.9837-2.7045 7.9656 2.8527a.4627.4627 0 0 0 .2964 0l7.1412-2.2322a.463.463 0 0 0 .3241-.4631ZM16.7745.9263c2.302 0 4.168 1.866 4.168 4.168 0 1.8107-2.7184 6.8123-4.168 9.2622-1.4495-2.4684-4.168-7.4747-4.168-9.2623 0-2.302 1.8661-4.168 4.168-4.168Zm6.4836 21.0345-6.2335 1.9497v-3.5336a.4631.4631 0 0 0-.9262 0v3.5012l-7.1968-2.5749v-2.964a.4632.4632 0 0 0-.9262 0v2.964l-6.2196 2.422v-7.1597l2.2878-.9262a.4631.4631 0 1 0-.3428-.8568l-1.945.7827V9.1187l6.2195-2.4082v1.3893a.4631.4631 0 0 0 .9263 0V6.692l3.552 1.2735a64.3365 64.3365 0 0 0 3.9226 7.558.463.463 0 0 0 .7919 0 64.5868 64.5868 0 0 0 3.9087-7.5117l2.1674-.6807.0138 7.5904-2.3479.5696a.4665.4665 0 1 0 .1111.9262.4597.4597 0 0 0 .1112 0l2.1256-.5187v6.0622h.0001Z"/><path d="M16.7556 2.4033c-1.486 0-2.6907 1.2047-2.6907 2.6907s1.2047 2.6907 2.6907 2.6907c1.485-.0026 2.6882-1.2057 2.6907-2.6907 0-1.486-1.2047-2.6907-2.6907-2.6907Zm0 4.4552c-.9661-.0127-1.7435-.7982-1.7459-1.7645h-.0185c0-.9745.7899-1.7645 1.7644-1.7645.9745 0 1.7645.79 1.7645 1.7645 0 .9745-.79 1.7645-1.7645 1.7645ZM10.6981 13.9672v.0139l-2.2415-.9679a.4631.4631 0 0 0-.3566 0l-1.8941.7642a.4643.4643 0 1 0 .3473.8613l1.7135-.69 2.0609.8707a.4638.4638 0 0 0 .1852.037.463.463 0 0 0 .1853-.8892ZM18.27 16.6161a.4633.4633 0 0 0-.5233-.3192l.0046-.037-1.1485.2778-1.945-.8428a.4645.4645 0 1 0-.3705.8521l2.084.9262a.4622.4622 0 0 0 .1852.0371h.1112l1.2967-.3149a.4633.4633 0 0 0 .3056-.5793Z"/></g><defs><clipPath id="map_0"><path fill="#fff" d="M0 0h25v25H0z"/></clipPath></defs></svg><svg viewBox="0 0 26 26" id="menu"><path fill="#fff" d="M0 3.55h26v2.17H0V3.55ZM0 20.28h26v2.17H0v-2.17ZM0 11.91h16.64v2.17H0v-2.17Z"/></svg><svg viewBox="0 0 12 12" id="moon"><path fill-rule="evenodd" clip-rule="evenodd" fill="#currentColor" d="M11.197 6.754a.382.382 0 0 0-.321.07c-.362.308-.78.56-1.24.727a3.873 3.873 0 0 1-1.409.252c-1.13 0-2.16-.462-2.9-1.203a4.121 4.121 0 0 1-1.199-2.91c0-.476.084-.937.223-1.357a3.76 3.76 0 0 1 .67-1.203.358.358 0 0 0-.056-.504.382.382 0 0 0-.32-.07 5.625 5.625 0 0 0-2.956 1.987 5.553 5.553 0 0 0 .474 7.289 5.491 5.491 0 0 0 3.903 1.622 5.532 5.532 0 0 0 3.416-1.189 5.517 5.517 0 0 0 1.952-3.064c.07-.21-.042-.405-.237-.447ZM9.064 9.678A4.776 4.776 0 0 1 2.707 9.3a4.81 4.81 0 0 1-1.409-3.4c0-1.105.363-2.112.99-2.924a4.797 4.797 0 0 1 1.603-1.343 4.67 4.67 0 0 0-.46 2.07c0 1.33.544 2.547 1.408 3.415A4.809 4.809 0 0 0 8.241 8.53c.586 0 1.143-.098 1.66-.294.18-.07.362-.14.529-.224a5.086 5.086 0 0 1-1.366 1.665Z"/></svg><svg fill="none" viewBox="0 0 25 25" id="mountain"><g fill="#2D383F" clip-path="url(#mountain_0)"><path d="m23.4153 24.1879-4.0406-9.3978-3.8164-8.8827a.477.477 0 0 0-.8777 0l-3.4062 7.9047-1.3357 3.1056-2.929-6.7598a.477.477 0 0 0-.8778 0L3.3793 16.517.0399 24.1831a.4771.4771 0 0 0 .439.6679h22.4976a.477.477 0 0 0 .4388-.6631ZM15.1147 7.2956l3.096 7.1987h-1.0876l-1.9655-2.1706a.477.477 0 0 0-.7537.062l-.7347 1.1354h-1.2308l2.6763-6.2255Zm-8.544 4.2362 2.4473 5.6578H7.6823a.4772.4772 0 0 0-.4008.2195l-.477.7585-1.2308-1.7365a.4767.4767 0 0 0-.3912-.2051H4.548l2.0227-4.6942Zm-5.343 12.3651 2.9053-6.7168h.8015l1.4884 2.1228a.4771.4771 0 0 0 .3911.2052.4772.4772 0 0 0 .3912-.2195l.7347-1.1354h1.4884l2.4854 5.7246-10.686.0191Zm11.7307 0-2.4997-5.7723 1.5695-3.6494h1.9082a.477.477 0 0 0 .4007-.2194l.5295-.8158 1.6888 1.8653a.477.477 0 0 0 .353.1574h1.7078l3.6304 8.4485-9.2882-.0143ZM7.611 2.0819C7.161.9226 5.8563.3477 4.697.7978A2.2516 2.2516 0 0 0 3.2603 2.888a2.1794 2.1794 0 0 0 0 .248C2.1324 3.66 1.6428 4.999 2.1666 6.1269a2.2517 2.2517 0 0 0 2 1.3028l.024.019h3.3393c1.482.0225 2.7015-1.1607 2.7239-2.6428.0224-1.482-1.1608-2.7015-2.6428-2.724Zm-.0525 4.427H4.219c-.714.0738-1.3526-.4452-1.4263-1.1592-.0738-.714.4452-1.3526 1.1592-1.4264a.477.477 0 0 0 .3578-.6202 1.2826 1.2826 0 0 1-.0716-.415c-.004-.7166.5736-1.3009 1.2902-1.305a1.2975 1.2975 0 0 1 1.2859 1.076.477.477 0 0 0 .5295.3912 1.6325 1.6325 0 0 1 .2147 0c.955 0 1.7293.7742 1.7293 1.7293 0 .955-.7743 1.7293-1.7293 1.7293ZM23.6966 2.64a2.1838 2.1838 0 0 0 0-.248C23.6917 1.1483 22.6797.1441 21.4362.149a2.251 2.251 0 0 0-2.0823 1.4183c-1.4745.0309-2.6493 1.2466-2.627 2.7233.0224 1.482 1.2419 2.6652 2.7239 2.6428h3.3394c1.2433-.0232 2.2324-1.05 2.2092-2.2933A2.2517 2.2517 0 0 0 23.6966 2.64Zm.3593 2.3076a1.2975 1.2975 0 0 1-1.2514 1.027h-3.3394c-.955 0-1.7293-.7743-1.7293-1.7293 0-.9551.7743-1.7294 1.7293-1.7294a1.633 1.633 0 0 1 .2147 0 .477.477 0 0 0 .5152-.372c.1196-.7066.7893-1.1825 1.4959-1.063.7066.1196 1.1825.7894 1.0629 1.496a1.3013 1.3013 0 0 1-.0543.211.4771.4771 0 0 0 .3578.6202c.7009.1493 1.148.8386.9986 1.5395Z"/></g><defs><clipPath id="mountain_0"><path fill="#fff" d="M0 0h25v25H0z"/></clipPath></defs></svg><svg fill="none" viewBox="0 0 54 54" id="natural"><path stroke="#0266C1" stroke-linecap="round" stroke-linejoin="round" d="M26.69 32.244c-.678-2.863-2.67-5.272-5.415-6.546A10.314 10.314 0 0 0 17 24.742a9.446 9.446 0 0 0 2.175 5.625c1.885 2.279 4.737 3.613 7.758 3.633a9.322 9.322 0 0 0-.243-1.756Zm0 0c-.556-2.35-1.999-4.395-4.016-5.756a9.32 9.32 0 0 1 .123-.608C23.37 23.458 24.885 21.36 27 20c2.115 1.36 3.63 3.458 4.203 5.88.048.202.089.405.123.608-2.017 1.361-3.46 3.406-4.016 5.756m-.62 0c.138.582.218 1.17.243 1.755l.125.001c.847 0 1.681-.103 2.485-.302l.014-.018c-.805.205-1.64.314-2.49.32m.243-1.756c.678-2.863 2.67-5.272 5.415-6.546A10.314 10.314 0 0 1 37 24.742a9.446 9.446 0 0 1-2.175 5.625C32.94 32.646 30.088 33.98 27.067 34m.243-1.756A9.322 9.322 0 0 0 27.067 34"/><path stroke="#0266C1" d="M.5.5h53v53H.5z"/></svg><svg fill="none" viewBox="0 0 22 22" id="next"><path fill="#1C3374" d="M18.56 19.25a.69.69 0 0 1-.34-.1L5.16 11.6a.69.69 0 0 1 0-1.18l13.06-7.57a.69.69 0 0 1 1.03.6v15.12a.69.69 0 0 1-.69.69ZM1.38 2.75h1.37v16.5H1.37V2.75Z"/></svg><svg viewBox="0 0 9 16" id="ok"><path fill-rule="evenodd" clip-rule="evenodd" fill="#currentColor" d="M4.5 2.42c.92 0 1.66.77 1.66 1.71s-.74 1.7-1.66 1.7c-.92 0-1.66-.76-1.66-1.7s.74-1.71 1.66-1.71Zm0 5.84a4.08 4.08 0 0 0 4.01-4.13C8.51 1.85 6.71 0 4.5 0s-4 1.85-4 4.13 1.79 4.13 4 4.13Zm1.62 3.37c.82-.2 1.6-.53 2.33-1 .55-.35.71-1.1.37-1.66a1.15 1.15 0 0 0-1.62-.39 4.97 4.97 0 0 1-5.4 0 1.15 1.15 0 0 0-1.62.39c-.34.56-.18 1.3.37 1.66.73.47 1.51.8 2.33 1l-2.24 2.3a1.24 1.24 0 0 0 0 1.71 1.16 1.16 0 0 0 1.66 0l2.2-2.26 2.2 2.26c.46.48 1.2.48 1.66 0 .46-.47.46-1.23 0-1.7l-2.24-2.31Z"/></svg><svg fill="none" viewBox="0 0 22 22" id="phone"><g clip-path="url(#phone_0)"><path stroke="#2D383F" stroke-linecap="round" stroke-linejoin="round" d="M19.324 20.044c-.32.631-.98 1.023-1.681.946a18.752 18.752 0 0 1-11.244-5.41 18.878 18.878 0 0 1-5.39-11.288c-.076-.704.314-1.366.943-1.687l2.75-1.407c1.065-.545 2.353.09 2.727 1.23a18.671 18.671 0 0 0 1.297 3.018c.41.762.133 1.74-.652 2.098a1.806 1.806 0 0 0-.527 2.915l3.952 3.968c.887.89 2.385.617 2.904-.528.377-.833 1.398-1.134 2.209-.718a18.507 18.507 0 0 0 2.93 1.198c1.154.36 1.81 1.668 1.26 2.75l-1.478 2.915Z"/></g><defs><clipPath id="phone_0"><path fill="#fff" d="M0 0h22v22H0z"/></clipPath></defs></svg><svg fill="none" viewBox="0 0 9 12" id="pin"><path fill="#fff" d="M4.5 0A4.46 4.46 0 0 0 0 4.42c0 .63.13 1.24.4 1.8a27.84 27.84 0 0 0 3.91 5.7.25.25 0 0 0 .38 0c.63-.73 2.8-3.28 3.92-5.7.26-.56.39-1.17.39-1.8A4.47 4.47 0 0 0 4.5 0Zm0 6.71a2.32 2.32 0 0 1-2.34-2.3c0-1.26 1.05-2.29 2.34-2.29a2.32 2.32 0 0 1 2.34 2.3c0 1.26-1.05 2.3-2.34 2.3Z"/></svg><svg fill="none" viewBox="0 0 23 23" id="pine-tree"><g clip-path="url(#pine-tree_0)"><path fill="#2D383F" d="m22.625 16.637-4.515-5.165h2.181a.461.461 0 0 0 .365-.742L17.03 5.966h1.845a.461.461 0 0 0 .345-.765L14.787.156a.461.461 0 0 0-.692 0l-4.44 5.04a.461.461 0 0 0 .345.77h1.868L10.75 7.423 7.763 4.025a.461.461 0 0 0-.692 0L3.276 8.336a.461.461 0 0 0 .346.766h1.462l-3.035 3.97a.461.461 0 0 0 .365.733H4.12L.37 18.117a.461.461 0 0 0 .346.76h5.1v3.228c0 .494.4.895.894.895h1.407a.895.895 0 0 0 .899-.89V18.878h3.827v3.227c0 .494.4.895.895.895h1.406c.494 0 .895-.4.895-.895v-4.703h6.239a.461.461 0 0 0 .346-.765Zm-14.53 5.44-1.356.028-.028-3.227h1.384v3.2Zm4.75-4.122H1.73l3.772-4.302a.461.461 0 0 0-.355-.77H3.35l3.034-3.97a.461.461 0 0 0-.364-.743H4.636l2.767-3.15 2.767 3.141-1.946 2.573a.461.461 0 0 0 .364.743h2.186L6.259 16.64a.461.461 0 0 0 .346.766h6.24v.548Zm2.273 4.114-1.351.036-.028-4.703h1.383l-.004 4.666Zm.027-5.59H7.62l4.514-5.164a.461.461 0 0 0-.346-.765H9.524l3.643-4.768a.461.461 0 0 0-.364-.738h-1.766l3.421-3.883 3.403 3.883h-1.78a.461.461 0 0 0-.364.742l3.62 4.764H17.09a.461.461 0 0 0-.346.765l4.515 5.165h-6.115Z"/></g><defs><clipPath id="pine-tree_0"><path fill="#fff" d="M0 0h23v23H0z"/></clipPath></defs></svg><svg fill="none" viewBox="0 0 48 48" id="pin_map"><path fill="#0266C1" d="M40.364 17.776c0-8.613-7.327-15.594-16.364-15.594S7.636 9.163 7.636 17.776v.94c0 3.445 1.13 6.805 3.232 9.609l13.1 17.477a.04.04 0 0 0 .064 0l13.1-17.477c2.102-2.804 3.232-6.164 3.232-9.61v-.94Z"/><path fill="#fff" d="M21.092 12.576a7.045 7.045 0 0 1 5.816 0c1.837.838 3.171 2.421 3.625 4.303.454 1.88-.022 3.855-1.294 5.364-1.271 1.509-3.2 2.388-5.24 2.388-2.038 0-3.967-.879-5.238-2.388-1.272-1.508-1.748-3.483-1.294-5.364.453-1.882 1.788-3.465 3.625-4.303Z"/></svg><svg fill="none" viewBox="0 0 26 26" id="pin_stroke"><path stroke="#2D383F" stroke-linecap="round" stroke-linejoin="round" d="M21.863 9.628c0-4.665-3.968-8.446-8.863-8.446S4.136 4.963 4.136 9.628v.51c0 1.866.612 3.686 1.75 5.205l7.096 9.466a.022.022 0 0 0 .035 0l7.096-9.466a8.672 8.672 0 0 0 1.75-5.206v-.509Z"/><path stroke="#2D383F" stroke-linecap="round" stroke-linejoin="round" d="M11.267 6.25a4.17 4.17 0 0 1 3.465 0c1.095.503 1.89 1.453 2.16 2.582a3.67 3.67 0 0 1-.77 3.22c-.758.905-1.907 1.432-3.122 1.432-1.215 0-2.364-.527-3.122-1.433a3.67 3.67 0 0 1-.771-3.219c.27-1.129 1.066-2.08 2.16-2.582Z"/></svg><svg fill="none" viewBox="0 0 47 47" id="play-audio"><path fill="#1C3374" d="M47 23.5a23.5 23.5 0 1 1-47 0 23.5 23.5 0 0 1 47 0Zm-27.05-8.54a1.47 1.47 0 0 0-2.32 1.2v14.68a1.47 1.47 0 0 0 2.32 1.2l10.28-7.34a1.47 1.47 0 0 0 0-2.4l-10.28-7.34Z"/></svg><svg fill="none" viewBox="0 0 56 56" id="play"><circle cx="28" cy="28" r="27.5" fill="#fff" fill-opacity=".2" stroke="#fff"/><path fill="#fff" d="M37 28 25 17v22l12-11Z"/></svg><svg fill="none" viewBox="0 0 56 56" id="play2"><circle cx="28" cy="28" r="27.5" stroke="#1C3374"/><path fill="#fff" stroke="#000" d="M37 28 25 17v22l12-11Z"/></svg><svg fill="none" viewBox="0 0 56 56" id="play3"><circle cx="28" cy="28" r="27.5" fill="#1C3374" stroke="#1C3374"/><path fill="#fff" d="M37 28 25 17v22l12-11Z"/></svg><svg fill="none" viewBox="0 0 56 56" id="play4"><circle cx="28" cy="28" r="27.5" stroke="#0266C1" stroke-opacity=".1"/><path fill="#0266C1" fill-opacity=".1" d="M37 28 25 17v22l12-11Z"/></svg><svg viewBox="0 0 14 15" id="reddit"><path fill-rule="evenodd" clip-rule="evenodd" fill="#currentColor" d="M8.3617 0c-.449 0-.8702.244-1.1404.5959-.2702.3519-.4192.7808-.5277 1.2329-.1723.7268-.2255 1.5334-.2383 2.2602-1.2617.09-2.4043.4906-3.3532 1.1096-.3851-.3467-.849-.5393-1.2936-.5342-.5064.0051-.9872.2389-1.3447.7192-.683.917-.6043 2.417.1872 3.3082-.0489.2748-.085.5573-.085.8424C.566 12.5549 3.4467 15 7 15c3.5532 0 6.4341-2.4478 6.4341-5.4657 0-.2852-.0362-.5677-.0851-.8425.7915-.8913.8702-2.3913.1872-3.3082-.3574-.4804-.8383-.714-1.3447-.7192-.4447-.0051-.9085.1875-1.2936.5342-.9447-.6164-2.0809-1.017-3.3362-1.1096.017-.6703.0617-1.3664.1872-1.8904.0788-.3287.1724-.5676.2724-.6986.1-.131.1723-.185.3404-.185.3638 0 .4106.126.6298.4316.1106.154.2383.3467.4425.5342.2043.1875.5064.3493.8341.3493v-1.315c-.0915 0-.1085-.0026-.1702-.0617-.0617-.059-.1468-.1952-.2724-.3698C9.5745.5316 9.0872 0 8.3617 0Zm3.5404.1233c-.8468 0-1.5319.827-1.5319 1.8493s.6851 1.8493 1.5319 1.8493c.8469 0 1.532-.827 1.532-1.8493S12.749.1233 11.9021.1233Zm0 .6575c.5447 0 .9873.5343.9873 1.1918s-.4426 1.1918-.9873 1.1918c-.5446 0-.9872-.5343-.9872-1.1918s.4426-1.1918.9872-1.1918ZM7 5.1164c3.0149 0 5.566 2.0266 5.566 4.4179 0 2.3938-2.5511 4.4178-5.566 4.4178-3.015 0-5.566-2.024-5.566-4.4178C1.434 7.143 3.985 5.1163 7 5.1163Zm-5.1745.596c.151.0025.3085.0436.4596.1232-.5468.5009-.9809 1.0762-1.2766 1.726-.2043-.5085-.149-1.143.1021-1.4794.183-.2466.4362-.3724.715-.3699Zm10.349 0c.2787-.0026.5319.1232.7149.3698.2511.3365.3064.9709.1021 1.4794-.2957-.6498-.7298-1.2251-1.2766-1.726.1511-.0796.3085-.1207.4596-.1233ZM4.8213 7.3561c-.5447 0-.9873.5342-.9873 1.1917 0 .6576.4426 1.1918.9873 1.1918.5446 0 .9872-.5342.9872-1.1917 0-.6576-.4426-1.1918-.9872-1.1918Zm4.3574 0c-.5446 0-.9872.5342-.9872 1.1917 0 .6576.4426 1.1918.9872 1.1918.5447 0 .9873-.5342.9873-1.1917 0-.6576-.4426-1.1918-.9873-1.1918Zm-4.885 4.0479c.3467.8656 1.419 1.7055 2.7063 1.7055 1.2872 0 2.3766-.8399 2.7234-1.7055-.6298.4906-1.6234.8219-2.7234.8219-1.1 0-2.0766-.3313-2.7064-.8219Z"/></svg><svg fill="none" viewBox="0 0 25 25" id="repeat"><path fill="#1C3374" d="M20.1449 8.18493a6.25035 6.25035 0 0 1 1.615 3.12667 6.25046 6.25046 0 0 1-.3303 3.5036 6.24949 6.24949 0 0 1-2.1709 2.7697 6.24906 6.24906 0 0 1-3.3232 1.1578l-.3109.0079-5.1453-.0016 1.7937 1.7953a.78119.78119 0 0 1 .2259.482.78103.78103 0 0 1-.1353.5149l-.0906.1078a.78094.78094 0 0 1-.482.2259.78103.78103 0 0 1-.5149-.1353l-.1078-.0906-3.12811-3.1281a.78146.78146 0 0 1-.22512-.4823.7812.7812 0 0 1 .13606-.5146l.08906-.1078 3.12811-3.1281a.78141.78141 0 0 1 .5176-.2293.78101.78101 0 0 1 .5364.1805c.15.1251.2477.3018.2739.4953a.78158.78158 0 0 1-.1326.5503l-.0906.1094-1.7937 1.7922h5.1453a4.68748 4.68748 0 0 0 3.2155-1.2764 4.68793 4.68793 0 0 0 1.4642-3.1345l.0078-.275a4.6721 4.6721 0 0 0-1.3532-3.29535.78186.78186 0 0 1-.2255-.54124.78165.78165 0 0 1 .2145-.54568.7815.7815 0 0 1 .5337-.24278.78117.78117 0 0 1 .5523.19688l.1125.1125h-.0015Zm-6.4203-4.92344.1093.08907 3.1266 3.12812.0906.10938a.7808.7808 0 0 1 .1383.44375.78083.78083 0 0 1-.1383.44375l-.0906.10937-3.1266 3.12657-.1093.0906a.7811.7811 0 0 1-.8875 0l-.1094-.0906-.0891-.1094a.78151.78151 0 0 1 0-.88748l.0891-.10937 1.7937-1.79219H9.37456a4.68752 4.68752 0 0 0-4.67968 4.41254l-.00782.275c0 1.2812.51407 2.4406 1.34532 3.2875a.78113.78113 0 0 1 .19293.5449.78096.78096 0 0 1-.23453.5284.78103.78103 0 0 1-.53358.2225.78128.78128 0 0 1-.54045-.2052 6.25018 6.25018 0 0 1-1.36201-6.6508 6.25005 6.25005 0 0 1 5.50732-3.96953l.3125-.00781L14.5214 6.249l-1.7937-1.79219-.0891-.10938a.78102.78102 0 0 1-.1331-.51346.78073.78073 0 0 1 .2255-.48015.78113.78113 0 0 1 .4801-.22547.78146.78146 0 0 1 .5135.13314Z"/></svg><svg fill="none" viewBox="0 0 9 14" id="right"><path stroke="#2D383F" stroke-width="2" d="m1 13 6-6-6-6"/></svg><svg fill="none" viewBox="0 0 54 54" id="route"><g clip-path="url(#route_0)"><path stroke="#0266C1" stroke-linecap="round" d="M34.143 24.767h-5.357c-1.677 0-3.036 1.37-3.036 3.059s1.36 3.058 3.036 3.058h2.321c1.677 0 3.036 1.369 3.036 3.058 0 1.689-1.36 3.058-3.036 3.058h-11.25m2.857-5.07c0-1.59-1.279-2.878-2.857-2.878A2.868 2.868 0 0 0 17 31.93v.108c0 .632.198 1.247.567 1.757l2.285 3.164a.007.007 0 0 0 .01 0l2.285-3.164c.369-.51.567-1.126.567-1.757v-.108Zm-2.304-1.185.017.008c.345.165.598.48.684.856a1.277 1.277 0 0 1-1.239 1.56h-.03a1.275 1.275 0 0 1-1.239-1.56 1.26 1.26 0 0 1 .685-.856l.017-.008c.35-.166.755-.166 1.105 0ZM37 19.898C37 18.308 35.72 17 34.143 17c-1.578 0-2.857 1.309-2.857 2.898 0 .625.2 1.24.57 1.742l2.281 3.088a.007.007 0 0 0 .011 0l2.282-3.088a2.94 2.94 0 0 0 .57-1.742Zm-2.313-1.247.04.018a1.225 1.225 0 0 1 .423 1.886l-.013.015a1.244 1.244 0 0 1-.96.454h-.068c-.371 0-.723-.167-.96-.454l-.013-.015a1.225 1.225 0 0 1 .423-1.886l.04-.018a1.29 1.29 0 0 1 1.089 0Z"/></g><path stroke="#0266C1" d="M.5.5h53v53H.5z"/><defs><clipPath id="route_0"><path fill="#fff" d="M16 16h22v22H16z"/></clipPath></defs></svg><svg fill="none" viewBox="0 0 54 54" id="safety"><path stroke="#0266C1" d="M24.75 26.91 27 29.16l3.94-3.93M27 17a16.59 16.59 0 0 1-8.62 1.78A16.46 16.46 0 0 0 27 37a16.55 16.55 0 0 0 8.75-11.82c.38-2.14.33-4.31-.13-6.4A16.62 16.62 0 0 1 27 17Z"/><path stroke="#0266C1" d="M.5.5h53v53H.5z"/></svg><svg fill="none" viewBox="0 0 17 17" id="share"><path stroke="#1C3374" stroke-linecap="round" stroke-linejoin="round" stroke-width="1.167" d="M8.5 2.125v8.5m0-8.5L5.667 4.958M8.5 2.125l2.834 2.833m-9.917 7.084.44 1.76a1.417 1.417 0 0 0 1.374 1.073H13.77a1.416 1.416 0 0 0 1.374-1.073l.44-1.76"/></svg><svg fill="none" viewBox="0 0 25 25" id="shuffle"><path fill="#1C3374" d="M23.213 17.412a.791.791 0 0 1 0 1.113l-2.344 2.344a.8.8 0 0 1-1.113 0 .79.79 0 0 1 0-1.113l1.015-1.006H19.62a7.051 7.051 0 0 1-5.723-2.95l-4.072-5.693a5.479 5.479 0 0 0-4.443-2.294H3.125a.781.781 0 0 1 0-1.563h2.256a7.05 7.05 0 0 1 5.723 2.95l4.072 5.693a5.478 5.478 0 0 0 4.443 2.294h1.152l-1.015-1.005a.791.791 0 0 1 1.113-1.114l2.344 2.344Zm-9.248-6.963a.781.781 0 0 0 1.094-.185l.117-.157a5.479 5.479 0 0 1 4.443-2.294h1.152l-1.015 1.005a.791.791 0 0 0 0 1.114.8.8 0 0 0 1.113 0l2.344-2.344a.791.791 0 0 0 0-1.113L20.869 4.13a.791.791 0 0 0-1.113 1.113L20.77 6.25H19.62a7.05 7.05 0 0 0-5.723 2.95l-.107.155a.78.78 0 0 0 .176 1.094Zm-2.93 4.102a.781.781 0 0 0-1.094.185l-.117.157a5.478 5.478 0 0 1-4.443 2.294H3.125a.781.781 0 1 0 0 1.563h2.256a7.052 7.052 0 0 0 5.723-2.95l.107-.155a.779.779 0 0 0-.176-1.094Z"/></svg><svg fill="none" viewBox="0 0 79 14" id="stars2"><g clip-path="url(#stars2_0)"><path fill="#fff" d="m7.5 11.04 4.63 2.61-1.22-4.92L15 5.43l-5.4-.44L7.5.35 5.4 4.99 0 5.42l4.1 3.31-1.23 4.92 4.63-2.6Z"/></g><g clip-path="url(#stars2_1)"><path fill="#fff" d="m23.5 11.04 4.64 2.61-1.23-4.92L31 5.43l-5.4-.44L23.5.35l-2.1 4.64-5.4.43 4.1 3.31-1.24 4.92 4.64-2.6Z"/></g><g clip-path="url(#stars2_2)"><path stroke="#fff" d="m39.75 10.6-.25-.13-.25.14-3.62 2.04.95-3.8.07-.3-.24-.2-3.12-2.53 4.14-.33.3-.03.12-.26 1.65-3.64 1.65 3.64.12.26.3.03 4.14.33-3.12 2.52-.24.2.07.31.95 3.8-3.62-2.04Z"/></g><g clip-path="url(#stars2_3)"><path stroke="#fff" d="m55.75 10.6-.25-.13-.25.14-3.62 2.04.95-3.8.07-.3-.24-.2-3.12-2.53 4.14-.33.3-.03.12-.26 1.65-3.64 1.65 3.64.12.26.3.03 4.14.33-3.12 2.52-.24.2.07.31.95 3.8-3.62-2.04Z"/></g><g clip-path="url(#stars2_4)"><path stroke="#fff" d="m71.75 10.6-.25-.13-.25.14-3.62 2.04.95-3.8.07-.3-.24-.2-3.12-2.53 4.14-.33.3-.03.12-.26 1.65-3.64 1.65 3.64.12.26.3.03 4.14.33-3.12 2.52-.24.2.07.31.95 3.8-3.62-2.04Z"/></g><defs><clipPath id="stars2_0"><path fill="#fff" d="M0 0h15v14H0z"/></clipPath><clipPath id="stars2_1"><path fill="#fff" d="M16 0h15v14H16z"/></clipPath><clipPath id="stars2_2"><path fill="#fff" d="M32 0h15v14H32z"/></clipPath><clipPath id="stars2_3"><path fill="#fff" d="M48 0h15v14H48z"/></clipPath><clipPath id="stars2_4"><path fill="#fff" d="M64 0h15v14H64z"/></clipPath></defs></svg><svg fill="none" viewBox="0 0 79 14" id="stars3"><g clip-path="url(#stars3_0)"><path fill="#fff" d="m7.5 11.04 4.63 2.61-1.22-4.92L15 5.43l-5.4-.44L7.5.35 5.4 4.99 0 5.42l4.1 3.31-1.23 4.92 4.63-2.6Z"/></g><g clip-path="url(#stars3_1)"><path fill="#fff" d="m23.5 11.04 4.64 2.61-1.23-4.92L31 5.43l-5.4-.44L23.5.35l-2.1 4.64-5.4.43 4.1 3.31-1.24 4.92 4.64-2.6Z"/></g><g clip-path="url(#stars3_2)"><path fill="#fff" d="m39.5 11.04 4.63 2.61-1.22-4.92L47 5.43l-5.4-.44L39.5.35l-2.1 4.64-5.4.43 4.1 3.31-1.23 4.92 4.63-2.6Z"/></g><g clip-path="url(#stars3_3)"><path stroke="#fff" d="m55.75 10.6-.25-.13-.25.14-3.62 2.04.95-3.8.07-.3-.24-.2-3.12-2.53 4.14-.33.3-.03.12-.26 1.65-3.64 1.65 3.64.12.26.3.03 4.14.33-3.12 2.52-.24.2.07.31.95 3.8-3.62-2.04Z"/></g><g clip-path="url(#stars3_4)"><path stroke="#fff" d="m71.75 10.6-.25-.13-.25.14-3.62 2.04.95-3.8.07-.3-.24-.2-3.12-2.53 4.14-.33.3-.03.12-.26 1.65-3.64 1.65 3.64.12.26.3.03 4.14.33-3.12 2.52-.24.2.07.31.95 3.8-3.62-2.04Z"/></g><defs><clipPath id="stars3_0"><path fill="#fff" d="M0 0h15v14H0z"/></clipPath><clipPath id="stars3_1"><path fill="#fff" d="M16 0h15v14H16z"/></clipPath><clipPath id="stars3_2"><path fill="#fff" d="M32 0h15v14H32z"/></clipPath><clipPath id="stars3_3"><path fill="#fff" d="M48 0h15v14H48z"/></clipPath><clipPath id="stars3_4"><path fill="#fff" d="M64 0h15v14H64z"/></clipPath></defs></svg><svg fill="none" viewBox="0 0 20 20" id="sun"><path fill="#fff" d="M13.545 6.455c-.8995-.8994-2.1693-1.4814-3.545-1.4814-1.3757 0-2.6455.5555-3.545 1.4814-.8994.8995-1.4815 2.1693-1.4815 3.545 0 1.3757.582 2.6455 1.4815 3.545.8995.8994 2.1693 1.4815 3.545 1.4815 1.3757 0 2.6455-.5556 3.545-1.4815.8994-.8995 1.4815-2.1693 1.4815-3.545 0-1.3757-.5556-2.6455-1.4815-3.545Zm-.9524 6.1376c-.6614.6614-1.5873 1.0582-2.5926 1.0582s-1.9312-.3968-2.5926-1.0582S6.3492 11.0053 6.3492 10s.3968-1.9312 1.0582-2.5926C8.0688 6.7461 8.9947 6.3492 10 6.3492s1.9312.3969 2.5926 1.0582c.6614.6614 1.0582 1.5873 1.0582 2.5926s-.3968 1.9312-1.0582 2.5926ZM19.3122 9.3122h-2.0371c-.3703 0-.6878.3175-.6878.6878 0 .3704.3175.6879.6878.6879h2.0371c.3703 0 .6878-.3175.6878-.6879 0-.3703-.3175-.6878-.6878-.6878ZM10 16.5873c-.3704 0-.6878.3175-.6878.6878v2.0371c0 .3703.3174.6878.6878.6878.3704 0 .6878-.3175.6878-.6878v-2.0371c0-.3703-.3174-.6878-.6878-.6878ZM17.0635 16.1111l-1.455-1.4551c-.2381-.2645-.6878-.2645-.9524 0a.6707.6707 0 0 0 0 .9524l1.455 1.455a.6706.6706 0 0 0 .9524 0 .6704.6704 0 0 0 0-.9523ZM10 0c-.3704 0-.6878.3175-.6878.6878v2.037c0 .3704.3174.6879.6878.6879.3704 0 .6878-.3175.6878-.6878V.6879C10.6878.3174 10.3704 0 10 0ZM17.0899 2.9365a.6705.6705 0 0 0-.9523 0l-1.4551 1.455a.6707.6707 0 0 0 0 .9524c.2381.2646.6879.2646.9524 0l1.455-1.455a.6705.6705 0 0 0 0-.9524ZM2.7249 9.3122H.6879C.3174 9.3122 0 9.6297 0 10c0 .3704.291.6879.6878.6879h2.037c.3704 0 .6879-.3175.6879-.6879 0-.3703-.3175-.6878-.6878-.6878ZM5.3175 14.656c-.2381-.2645-.6879-.2645-.9524 0L2.91 16.1111a.6705.6705 0 0 0 0 .9523.6705.6705 0 0 0 .9523 0l1.455-1.455a.6707.6707 0 0 0 0-.9524ZM5.3175 4.3915l-1.455-1.455a.6706.6706 0 0 0-.9524 0 .6706.6706 0 0 0 0 .9524l1.455 1.455a.6706.6706 0 0 0 .9524 0 .6706.6706 0 0 0 0-.9524Z"/></svg><svg viewBox="0 0 14 8" id="vk"><path fill-rule="evenodd" clip-rule="evenodd" fill="#currentColor" d="M13.926 7.225a.967.967 0 0 0-.048-.091c-.243-.439-.707-.976-1.392-1.614l-.014-.015-.008-.007-.007-.007h-.007a8.422 8.422 0 0 1-.59-.599c-.152-.194-.185-.392-.103-.591.058-.151.277-.47.656-.956.2-.258.357-.465.474-.621.84-1.12 1.205-1.835 1.093-2.146l-.043-.073c-.03-.044-.105-.084-.226-.12a1.146 1.146 0 0 0-.467-.019l-2.099.015A.272.272 0 0 0 11 .384l-.095.022-.036.019-.029.022a.325.325 0 0 0-.08.076.499.499 0 0 0-.073.128 11.93 11.93 0 0 1-.78 1.643c-.18.301-.345.563-.496.784-.15.222-.277.385-.379.49a2.645 2.645 0 0 1-.277.251c-.082.064-.145.09-.19.08a5.363 5.363 0 0 1-.123-.029.485.485 0 0 1-.164-.178.802.802 0 0 1-.084-.285 3.144 3.144 0 0 1-.022-.646c.005-.151.008-.253.008-.307 0-.185.003-.386.01-.602l.019-.515c.005-.126.007-.26.007-.401a1.69 1.69 0 0 0-.026-.333A1.138 1.138 0 0 0 8.113.37a.393.393 0 0 0-.15-.175.842.842 0 0 0-.244-.1 4.843 4.843 0 0 0-.984-.094c-.904-.01-1.484.049-1.742.175a.982.982 0 0 0-.277.22c-.087.106-.1.165-.036.174.291.044.498.149.62.314l.043.088c.034.063.068.175.102.336.034.16.056.338.066.533.024.355.024.66 0 .912-.025.253-.048.45-.07.592a1.186 1.186 0 0 1-.186.503.126.126 0 0 1-.036.037.545.545 0 0 1-.197.036c-.068 0-.15-.034-.248-.102a1.75 1.75 0 0 1-.302-.281 3.76 3.76 0 0 1-.354-.5 8.73 8.73 0 0 1-.408-.76l-.116-.211a18.229 18.229 0 0 1-.3-.595c-.126-.26-.237-.512-.335-.756a.481.481 0 0 0-.174-.233L2.748.46a.773.773 0 0 0-.284-.11L.467.366C.263.366.124.412.05.505l-.03.043A.236.236 0 0 0 0 .665c0 .054.015.12.044.197.291.687.608 1.348.951 1.986.343.638.64 1.151.893 1.54.253.39.51.757.772 1.103.263.345.437.567.522.664.085.098.152.17.2.22l.182.174c.117.117.288.257.514.42.226.163.477.324.751.482.275.158.594.287.959.387.364.1.719.14 1.064.12h.838c.17-.014.299-.068.387-.16l.029-.037a.484.484 0 0 0 .054-.135.743.743 0 0 0 .026-.2c-.005-.21.01-.398.047-.566.036-.168.078-.295.124-.38a.933.933 0 0 1 .28-.321.477.477 0 0 1 .059-.026c.117-.039.254 0 .412.114.158.114.306.255.445.423.138.168.304.357.499.566.194.21.364.365.51.467l.146.088c.097.058.223.112.379.16.155.049.291.061.408.037l1.866-.03c.185 0 .328-.03.43-.09.102-.061.163-.128.182-.201a.566.566 0 0 0 .004-.249.923.923 0 0 0-.051-.193Z"/></svg></svg>