<svg xmlns="http://www.w3.org/2000/svg" width="112" height="34" fill="none" viewBox="0 0 112 34"><g fill="#fff" clip-path="url(#a)"><path d="m12.4079 22.0551 2.972-3.1454 3.3806 3.1454h5.7954l-9.2132-9.0992-9.1388 9.0992h6.204Z"/><path d="m20.9154 7.4515-4.3837 4.4934 2.8977 2.9956 1.486-1.4978 8.1359 8.163c-1.8575 4.9802-6.6127 8.5375-12.2224 8.5375-7.207 0-13.0396-5.8789-13.0396-13.1432C3.8264 9.7357 9.659 3.8568 16.866 3.8568c6.3898 0 11.7394 4.6806 12.8167 10.7842l3.9379 4.1938c.0743-.5991.1115-1.2357.1115-1.8348 0-4.5308-1.7461-8.7996-4.941-12.0198C25.5963 1.7599 21.3612 0 16.8661 0 12.3338 0 8.1358 1.76 4.9409 4.9802 1.7461 8.2004 0 12.4317 0 17s1.746 8.7996 4.941 12.0198C8.1357 32.2401 12.3708 34 16.866 34c4.4951 0 8.7302-1.7599 11.9251-4.9802 1.969-1.9846 3.3807-4.3436 4.1608-6.9273.1486-.4493.26-.9361.3715-1.3855l-3.4178-3.6321-8.9903-9.6234ZM47.6485 10.9241h2.4802l-1.3528 6.8558h4.1838l-.4009 1.9823h-6.664l1.7537-8.8381ZM55.294 10.9241h2.4802l-1.7537 8.8381h-2.4802l1.7537-8.8381ZM61.6307 12.8559l-.3883 1.9443h3.8706l-.3883 1.9318h-3.8581l-.6013 3.0302h-2.4802l1.7537-8.8381h6.8644l-.3883 1.9318h-4.3842ZM69.63 12.8559l-.2881 1.4898h3.8957l-.3632 1.8686h-3.9083l-.3131 1.6161h4.5972l-.4009 1.9318H65.822l1.7537-8.8381h6.8645l-.3883 1.9318H69.63ZM77.4575 12.9064h-2.6932l.4008-1.9823h7.8541l-.4009 1.9823h-2.6806l-1.3654 6.8558h-2.4802l1.3654-6.8558ZM86.8021 19.9389c-.8852 0-1.6576-.1641-2.3173-.4924-.6514-.3282-1.1566-.787-1.5157-1.3762-.3508-.5892-.5261-1.2626-.5261-2.0201 0-1.0101.2296-1.9191.6889-2.7272.4677-.808 1.1149-1.4393 1.9416-1.8939.8351-.4545 1.7829-.6818 2.8435-.6818.8852 0 1.6535.1642 2.3048.4924.6598.3283 1.165.7871 1.5157 1.3763.3591.5892.5387 1.2625.5387 2.0201 0 1.0101-.2339 1.9191-.7015 2.7272-.4593.808-1.1065 1.4393-1.9416 1.8939-.8267.4545-1.7704.6817-2.831.6817Zm.213-2.0706c.5511 0 1.0355-.1389 1.453-.4166.4176-.2778.7391-.6482.9646-1.1111.2254-.4714.3382-.989.3382-1.553 0-.5976-.1837-1.0732-.5512-1.4267-.3591-.362-.8643-.5429-1.5157-.5429-.5511 0-1.0355.1389-1.453.4166-.4176.2778-.7391.6524-.9646 1.1237-.2254.463-.3382.9764-.3382 1.5404 0 .5976.1796 1.0774.5387 1.4393.3674.3535.8768.5303 1.5282.5303ZM96.9323 19.9389c-.76 0-1.4155-.1262-1.9667-.3787-.5511-.261-.9729-.6313-1.2652-1.1111-.2922-.4798-.4384-1.0437-.4384-1.6919 0-.2693.0334-.5808.1002-.9343l.9771-4.8988h2.4802l-.9645 4.8609c-.0501.2526-.0752.484-.0752.6945 0 .9259.4844 1.3888 1.4531 1.3888.5261 0 .9395-.1599 1.2401-.4798.309-.3282.5386-.8627.689-1.6035l.964-4.8609h2.443l-.989 5.0125c-.535 2.6682-2.084 4.0023-4.6477 4.0023ZM111.54 13.7397c0 .808-.213 1.5066-.639 2.0958-.426.5808-1.023 1.0059-1.791 1.2753l1.49 2.6514h-2.593l-1.303-2.3484h-1.252l-.464 2.3484h-2.48l1.754-8.8381h3.745c1.119 0 1.988.2483 2.606.7449.618.4966.927 1.1869.927 2.0707Zm-2.506.2399c0-.362-.121-.6313-.363-.8081-.242-.1852-.58-.2778-1.015-.2778h-1.302l-.526 2.5883h1.478c.551 0 .977-.1304 1.277-.3914.301-.2609.451-.6313.451-1.111ZM47.5461 28.0956c-.3021 0-.5766-.0674-.8235-.2021-.244-.1376-.4357-.3249-.5751-.5621-.1365-.2371-.2048-.5036-.2048-.7993 0-.2957.0683-.5621.2048-.7992.1394-.2372.3311-.4231.5751-.5578.2469-.1376.5214-.2064.8235-.2064.3021 0 .5737.0674.8148.202.244.1347.4357.3221.5751.5622.1394.2371.2091.5035.2091.7992 0 .2957-.0697.5636-.2091.8037-.1394.2372-.3311.4231-.5751.5577-.2411.1347-.5127.2021-.8148.2021Zm0-.2899c.2411 0 .4589-.0542.6536-.1625a1.2073 1.2073 0 0 0 .4575-.4567c.1103-.1962.1655-.4143.1655-.6544 0-.24-.0552-.4567-.1655-.6499-.1104-.1962-.2629-.3484-.4575-.4567-.1947-.1113-.4125-.1669-.6536-.1669-.2411 0-.4604.0556-.6579.1669-.1946.1083-.3486.2605-.4618.4567-.1104.1932-.1656.4099-.1656.6499 0 .2401.0552.4582.1656.6544.1132.1932.2672.3455.4618.4567.1975.1083.4168.1625.6579.1625ZM51.0212 25.7417c.2149 0 .4096.0497.5838.1493.1743.0966.3108.2342.4096.4128.0987.1786.1481.3821.1481.6104 0 .2313-.0494.4362-.1481.6148-.0988.1786-.2353.3177-.4096.4172-.1713.0967-.366.145-.5838.145-.1859 0-.3544-.0381-.5054-.1142-.1482-.0791-.2702-.1933-.366-.3426v1.2868h-.3094v-3.162h.2963v.4568c.093-.1523.215-.2694.366-.3514.154-.082.3268-.1229.5185-.1229Zm-.0218 2.0728c.1598 0 .305-.0366.4357-.1098.1307-.0761.2324-.183.305-.3206.0755-.1376.1133-.2942.1133-.4699 0-.1757-.0378-.3308-.1133-.4655-.0726-.1376-.1743-.2445-.305-.3206-.1307-.0761-.2759-.1142-.4357-.1142-.1627 0-.3093.0381-.44.1142-.1279.0761-.2295.183-.305.3206-.0727.1347-.109.2898-.109.4655 0 .1757.0363.3323.109.4699.0755.1376.1771.2445.305.3206.1307.0732.2773.1098.44.1098ZM54.4482 26.0359h-1.3115v2.0333h-.3093v-2.31h1.6208v.2767ZM55.6839 25.7417c.2991 0 .5286.0761.6884.2283.1597.1493.2396.3718.2396.6675v1.4317h-.2963v-.3601c-.0697.12-.1728.2137-.3093.2811-.1336.0673-.2934.101-.4793.101-.2556 0-.4589-.0615-.61-.1845-.151-.123-.2265-.2854-.2265-.4875 0-.1961.0697-.3542.2091-.4742.1423-.1201.3674-.1801.6753-.1801h.7277v-.1405c0-.1991-.0552-.3499-.1656-.4524-.1104-.1054-.2716-.1581-.4836-.1581-.1453 0-.2847.0249-.4183.0747-.1336.0468-.2484.1127-.3442.1976l-.1394-.2327c.1162-.0996.2556-.1757.4182-.2284a1.579 1.579 0 0 1 .5142-.0834Zm-.109 2.1035c.1743 0 .3239-.0395.4488-.1185.1249-.082.2179-.1991.2789-.3514v-.3776h-.7189c-.3922 0-.5882.1376-.5882.4128 0 .1346.0508.2415.1525.3205.1016.0762.2439.1142.4269.1142ZM57.4354 25.7592h.3094v1.0233h1.4421v-1.0233h.3094v2.31h-.3094v-1.0188h-1.4421v1.0188h-.3094v-2.31ZM60.3755 25.7592h.3094v1.8357l1.5293-1.8357h.2745v2.31h-.3094v-1.8357l-1.5249 1.8357h-.2789v-2.31ZM64.4438 26.8659c.1627.0381.2876.1039.3747.1976.0901.0937.1351.2079.1351.3426 0 .1346-.0465.2547-.1394.3601-.0901.1054-.2135.1874-.3704.2459-.1568.0556-.3297.0835-.5185.0835a1.7267 1.7267 0 0 1-.4879-.0703c-.1598-.0498-.2992-.1215-.4183-.2152l.1045-.2328c.1046.0791.2266.1406.366.1845.1395.0439.2803.0659.4227.0659.212 0 .3848-.0396.5184-.1186.1366-.082.2048-.1918.2048-.3294 0-.1229-.0552-.2181-.1655-.2854-.1104-.0703-.2615-.1054-.4532-.1054h-.3921v-.2284h.3747c.1714 0 .3094-.0322.4139-.0966.1046-.0673.1569-.1566.1569-.2679 0-.123-.0596-.2196-.1787-.2898-.1161-.0703-.2687-.1054-.4575-.1054-.2468 0-.4908.0629-.7319.1888l-.0872-.2415c.2731-.1435.5563-.2152.8496-.2152.1743 0 .3312.0263.4706.079.1423.0498.2527.1215.3311.2152.0814.0937.122.202.122.325 0 .1171-.0406.221-.122.3118-.0784.0908-.1859.1581-.3224.202ZM66.4445 25.7417c.2991 0 .5286.0761.6884.2283.1597.1493.2396.3718.2396.6675v1.4317h-.2963v-.3601c-.0697.12-.1728.2137-.3093.2811-.1336.0673-.2934.101-.4793.101-.2556 0-.4589-.0615-.61-.1845-.151-.123-.2265-.2854-.2265-.4875 0-.1961.0697-.3542.2091-.4742.1423-.1201.3674-.1801.6753-.1801h.7277v-.1405c0-.1991-.0552-.3499-.1656-.4524-.1104-.1054-.2716-.1581-.4836-.1581-.1453 0-.2847.0249-.4183.0747-.1336.0468-.2484.1127-.3442.1976l-.1394-.2327c.1162-.0996.2556-.1757.4182-.2284a1.579 1.579 0 0 1 .5142-.0834Zm-.109 2.1035c.1743 0 .3239-.0395.4488-.1185.1249-.082.2179-.1991.2789-.3514v-.3776h-.7189c-.3922 0-.5882.1376-.5882.4128 0 .1346.0508.2415.1525.3205.1016.0762.2439.1142.4269.1142ZM70.5836 27.7969v.852h-.2919v-.5797H68.196v-2.31h.3094v2.0377h1.3986v-2.0377h.3093v2.0377h.3703ZM71.1744 25.7592h.3094v1.8357l1.5293-1.8357h.2745v2.31h-.3094v-1.8357l-1.5249 1.8357h-.2789v-2.31ZM75.9343 25.7592v2.31h-.2832v-.7641h-.806l-.5316.7641h-.3354l.5707-.8081c-.1772-.0497-.3137-.1346-.4095-.2547-.0959-.12-.1438-.2722-.1438-.4567 0-.2576.0871-.4538.2614-.5885.1743-.1346.4125-.202.7146-.202h.9628Zm-1.6251.7993c0 .3425.2164.5138.6492.5138h.6927v-1.0364h-.6709c-.4474 0-.671.1742-.671.5226ZM80.0132 25.7592v2.31h-.3093v-2.0333h-1.4378v2.0333h-.3094v-2.31h2.0565ZM81.8381 28.0912c-.2208 0-.4198-.0498-.597-.1494a1.1164 1.1164 0 0 1-.4182-.4215c-.1017-.1786-.1525-.3807-.1525-.6061s.0508-.4274.1525-.606a1.0845 1.0845 0 0 1 .4182-.4172c.1772-.0996.3762-.1493.597-.1493.2207 0 .4197.0497.5969.1493.1771.0995.3151.2386.4139.4172.1016.1786.1525.3806.1525.606s-.0509.4275-.1525.6061a1.0858 1.0858 0 0 1-.4139.4215c-.1772.0996-.3762.1494-.5969.1494Zm0-.2767c.1626 0 .3078-.0366.4357-.1098.1307-.0761.2323-.183.305-.3206.0726-.1376.1089-.2942.1089-.4699 0-.1757-.0363-.3323-.1089-.4699-.0727-.1376-.1743-.243-.305-.3162-.1279-.0761-.2731-.1142-.4357-.1142-.1627 0-.3094.0381-.4401.1142-.1278.0732-.2295.1786-.305.3162-.0726.1376-.1089.2942-.1089.4699 0 .1757.0363.3323.1089.4699.0755.1376.1772.2445.305.3206.1307.0732.2774.1098.4401.1098ZM85.0151 28.0692l-.7276-.9661-.732.9661h-.3485l.9062-1.1857-.8627-1.1243h.3486l.6884.9047.6884-.9047h.3399l-.8627 1.1243.9149 1.1857h-.3529ZM86.7397 28.0912c-.2208 0-.4197-.0498-.5969-.1494a1.1167 1.1167 0 0 1-.4183-.4215c-.1017-.1786-.1525-.3807-.1525-.6061s.0508-.4274.1525-.606a1.0847 1.0847 0 0 1 .4183-.4172c.1772-.0996.3761-.1493.5969-.1493.2207 0 .4197.0497.5969.1493.1772.0995.3151.2386.4139.4172.1017.1786.1525.3806.1525.606s-.0508.4275-.1525.6061a1.0852 1.0852 0 0 1-.4139.4215c-.1772.0996-.3762.1494-.5969.1494Zm0-.2767c.1626 0 .3079-.0366.4357-.1098.1307-.0761.2324-.183.305-.3206s.1089-.2942.1089-.4699c0-.1757-.0363-.3323-.1089-.4699s-.1743-.243-.305-.3162c-.1278-.0761-.2731-.1142-.4357-.1142-.1627 0-.3094.0381-.4401.1142-.1278.0732-.2294.1786-.305.3162-.0726.1376-.1089.2942-.1089.4699 0 .1757.0363.3323.1089.4699.0756.1376.1772.2445.305.3206.1307.0732.2774.1098.4401.1098ZM90.7865 27.7969v.83h-.2919v-.5577h-2.0521v.5577h-.292v-.83h.1307c.154-.0088.2586-.1229.3137-.3425.0552-.2196.093-.527.1133-.9223l.0305-.7729h1.6905v2.0377h.3573Zm-1.7951-1.2472c-.0145.3279-.0421.5987-.0827.8125-.0407.2108-.1133.3557-.2179.4347h1.4291v-1.761h-1.1023l-.0262.5138ZM92.3349 28.0912c-.2208 0-.4198-.0498-.597-.1494a1.1164 1.1164 0 0 1-.4182-.4215c-.1017-.1786-.1525-.3807-.1525-.6061s.0508-.4274.1525-.606a1.0845 1.0845 0 0 1 .4182-.4172c.1772-.0996.3762-.1493.597-.1493.2207 0 .4197.0497.5969.1493.1771.0995.3151.2386.4139.4172.1016.1786.1525.3806.1525.606s-.0509.4275-.1525.6061a1.0858 1.0858 0 0 1-.4139.4215c-.1772.0996-.3762.1494-.5969.1494Zm0-.2767c.1626 0 .3078-.0366.4356-.1098.1308-.0761.2324-.183.305-.3206.0727-.1376.109-.2942.109-.4699 0-.1757-.0363-.3323-.109-.4699-.0726-.1376-.1742-.243-.305-.3162-.1278-.0761-.273-.1142-.4356-.1142-.1627 0-.3094.0381-.4401.1142-.1278.0732-.2295.1786-.305.3162-.0726.1376-.1089.2942-.1089.4699 0 .1757.0363.3323.1089.4699.0755.1376.1772.2445.305.3206.1307.0732.2774.1098.4401.1098ZM95.6189 26.8747c.3108.0732.4662.262.4662.5665 0 .202-.0741.3572-.2222.4655-.1481.1083-.3689.1625-.6623.1625h-1.0413v-2.31h1.0108c.2615 0 .4662.0513.6144.1537.1481.1025.2222.2489.2222.4392 0 .1259-.0349.2342-.1046.325-.0668.0878-.1612.1537-.2832.1976Zm-1.159-.0878h.6884c.1772 0 .3123-.0337.4053-.101.0958-.0674.1437-.1655.1437-.2943s-.0479-.2254-.1437-.2898c-.093-.0644-.2281-.0966-.4053-.0966h-.6884v.7817Zm.7277 1.0364c.1975 0 .3456-.0322.4444-.0966.0987-.0645.1481-.1655.1481-.3031 0-.1376-.045-.2386-.1351-.303-.09-.0673-.2323-.101-.4269-.101h-.7582v.8037h.7277ZM99.41 26.8747c.3108.0732.4662.262.4662.5665 0 .202-.0741.3572-.2222.4655-.1481.1083-.3689.1625-.6623.1625h-1.0413v-2.31h1.0108c.2615 0 .4662.0513.6144.1537.1481.1025.2222.2489.2222.4392 0 .1259-.0349.2342-.1046.325-.0668.0878-.1612.1537-.2832.1976Zm-1.159-.0878h.6884c.1772 0 .3123-.0337.4053-.101.0958-.0674.1437-.1655.1437-.2943s-.0479-.2254-.1437-.2898c-.093-.0644-.2281-.0966-.4053-.0966h-.6884v.7817Zm.7277 1.0364c.1975 0 .3456-.0322.4444-.0966.0987-.0645.1481-.1655.1481-.3031 0-.1376-.045-.2386-.1351-.303-.09-.0673-.2323-.101-.4269-.101h-.7582v.8037h.7277ZM103.362 26.0359h-1.311v2.0333h-.309v-2.31h1.62v.2767ZM104.648 28.0912c-.22 0-.419-.0498-.596-.1494a1.115 1.115 0 0 1-.419-.4215c-.101-.1786-.152-.3807-.152-.6061s.051-.4274.152-.606c.102-.1786.241-.3177.419-.4172.177-.0996.376-.1493.596-.1493.221 0 .42.0497.597.1493.178.0995.316.2386.414.4172.102.1786.153.3806.153.606s-.051.4275-.153.6061a1.0746 1.0746 0 0 1-.414.4215c-.177.0996-.376.1494-.597.1494Zm0-.2767c.163 0 .308-.0366.436-.1098a.7826.7826 0 0 0 .305-.3206c.073-.1376.109-.2942.109-.4699 0-.1757-.036-.3323-.109-.4699-.072-.1376-.174-.243-.305-.3162-.128-.0761-.273-.1142-.436-.1142-.162 0-.309.0381-.44.1142-.127.0732-.229.1786-.305.3162-.072.1376-.108.2942-.108.4699 0 .1757.036.3323.108.4699.076.1376.178.2445.305.3206.131.0732.278.1098.44.1098ZM107.654 25.7417c.215 0 .409.0497.584.1493.174.0966.31.2342.409.4128.099.1786.148.3821.148.6104 0 .2313-.049.4362-.148.6148-.099.1786-.235.3177-.409.4172-.172.0967-.366.145-.584.145-.186 0-.355-.0381-.506-.1142-.148-.0791-.27-.1933-.366-.3426v1.2868h-.309v-3.162h.296v.4568c.093-.1523.215-.2694.366-.3514.154-.082.327-.1229.519-.1229Zm-.022 2.0728c.16 0 .305-.0366.436-.1098.13-.0761.232-.183.305-.3206.075-.1376.113-.2942.113-.4699 0-.1757-.038-.3308-.113-.4655-.073-.1376-.175-.2445-.305-.3206-.131-.0761-.276-.1142-.436-.1142-.163 0-.309.0381-.44.1142-.128.0761-.23.183-.305.3206-.073.1347-.109.2898-.109.4655 0 .1757.036.3323.109.4699.075.1376.177.2445.305.3206.131.0732.277.1098.44.1098ZM110.423 26.5761c.287.0029.507.0673.658.1932.151.1259.226.3074.226.5445 0 .246-.081.4348-.244.5666-.162.1317-.395.1961-.697.1932l-.906-.0044v-2.31h.309v.8081l.654.0088Zm1.268-.8169H112v2.31h-.309v-2.31Zm-1.342 2.0772c.212.003.371-.0395.479-.1273.11-.0908.166-.2225.166-.3953 0-.1698-.054-.2957-.162-.3776-.107-.082-.268-.1245-.483-.1274l-.58-.0088v1.0277l.58.0087Z"/></g><defs><clipPath id="a"><path fill="#fff" d="M0 0h112v34H0z"/></clipPath></defs></svg>