<svg xmlns="http://www.w3.org/2000/svg" width="118" height="34" fill="none" viewBox="0 0 118 34"><g fill="#2D383F" clip-path="url(#a)"><path d="m13.0726 22.0551 3.1312-3.1454 3.5618 3.1454h6.1058l-9.7067-9.0992-9.6285 9.0992h6.5364Z"/><path d="m22.0359 7.4515-4.6185 4.4934 3.0529 2.9956 1.5656-1.4978 8.5717 8.163c-1.957 4.9802-6.967 8.5375-12.8771 8.5375-7.5932 0-13.7382-5.8789-13.7382-13.1432.0391-7.2643 6.1841-13.1432 13.7773-13.1432 6.7321 0 12.3683 4.6806 13.5034 10.7842l4.1488 4.1938c.0783-.5991.1174-1.2357.1174-1.8348 0-4.5308-1.8396-8.7996-5.2056-12.0198C26.9675 1.7599 22.5056 0 17.7696 0c-4.7751 0-9.198 1.76-12.564 4.9802C1.8396 8.2004 0 12.4317 0 17s1.8396 8.7996 5.2056 12.0198C8.5716 32.2401 13.0337 34 17.7696 34c4.736 0 9.1979-1.7599 12.564-4.9802 2.0744-1.9846 3.5617-4.3436 4.3837-6.9273.1565-.4493.274-.9361.3914-1.3855l-3.6009-3.6321-9.4719-9.6234ZM50.2011 10.9241h2.6131l-1.4253 6.8558h4.4079l-.4223 1.9823h-7.021l1.8476-8.8381ZM58.2562 10.9241h2.6131l-1.8477 8.8381h-2.6131l1.8477-8.8381ZM64.9323 12.8558l-.4091 1.9444h4.078l-.4091 1.9318h-4.0648l-.6335 3.0302h-2.6131l1.8476-8.8381h7.2322l-.4091 1.9317h-4.6191ZM73.3602 12.8558l-.3035 1.4899h4.1044l-.3827 1.8686h-4.1176l-.33 1.6161h4.8435l-.4223 1.9318h-7.4038l1.8476-8.8381h7.2322l-.4091 1.9317h-4.6587ZM81.607 12.9064h-2.8375l.4223-1.9823h8.2748l-.4223 1.9823h-2.8242l-1.4386 6.8558h-2.613l1.4385-6.8558ZM91.4523 19.9389c-.9327 0-1.7465-.1641-2.4416-.4924-.6862-.3282-1.2185-.787-1.5969-1.3762-.3695-.5892-.5543-1.2626-.5543-2.0201 0-1.0101.242-1.9191.7259-2.7272.4927-.808 1.1746-1.4393 2.0456-1.8939.8798-.4545 1.8784-.6818 2.9958-.6818.9326 0 1.7421.1642 2.4284.4924.695.3283 1.2273.7871 1.5968 1.3763.3784.5892.5675 1.2625.5675 2.0201 0 1.0101-.2463 1.9191-.739 2.7272-.4839.808-1.1658 1.4393-2.0456 1.8939-.8711.4545-1.8653.6817-2.9826.6817Zm.2243-2.0706c.5807 0 1.091-.1389 1.5309-.4166.4399-.2778.7787-.6482 1.0162-1.1111.2376-.4714.3563-.989.3563-1.553 0-.5976-.1935-1.0732-.5806-1.4267-.3784-.362-.9107-.5429-1.5969-.5429-.5807 0-1.091.1389-1.5309.4166-.4399.2778-.7787.6524-1.0162 1.1237-.2376.463-.3564.9764-.3564 1.5404 0 .5976.1892 1.0774.5675 1.4393.3871.3535.9238.5303 1.6101.5303ZM102.125 19.9389c-.801 0-1.491-.1262-2.072-.3787-.5806-.261-1.0249-.6313-1.3329-1.1111-.3079-.4798-.4619-1.0437-.4619-1.6919 0-.2693.0352-.5808.1056-.9343l1.0294-4.8988h2.6128l-1.016 4.8609c-.053.2526-.079.484-.079.6945 0 .9259.51 1.3888 1.531 1.3888.554 0 .99-.1599 1.306-.4798.326-.3282.568-.8627.726-1.6035l1.016-4.8609h2.574l-1.043 5.0125c-.563 2.6682-2.195 4.0023-4.896 4.0023ZM117.515 13.7397c0 .808-.224 1.5066-.673 2.0958-.449.5808-1.078 1.0059-1.887 1.2753l1.57 2.6514h-2.732l-1.372-2.3484h-1.32l-.488 2.3484H108l1.847-8.8381h3.946c1.179 0 2.094.2483 2.745.7449.651.4966.977 1.1869.977 2.0707Zm-2.639.2399c0-.362-.128-.6313-.383-.8081-.255-.1852-.612-.2778-1.069-.2778h-1.373l-.554 2.5883h1.557c.581 0 1.03-.1304 1.346-.3914.317-.2609.476-.6313.476-1.111ZM50.0932 28.0956c-.3182 0-.6074-.0674-.8676-.2021-.257-.1376-.459-.3249-.6059-.5621-.1438-.2371-.2157-.5036-.2157-.7993 0-.2957.0719-.5621.2157-.7992.1469-.2372.3489-.4231.6059-.5578.2602-.1376.5494-.2064.8676-.2064.3183 0 .6044.0674.8584.202.2571.1347.4591.3221.606.5622.1469.2371.2203.5035.2203.7992 0 .2957-.0734.5636-.2203.8037-.1469.2372-.3489.4231-.606.5577-.254.1347-.5401.2021-.8584.2021Zm0-.2899c.254 0 .4835-.0542.6886-.1625.205-.1112.3657-.2635.482-.4567.1163-.1962.1744-.4143.1744-.6544 0-.24-.0581-.4567-.1744-.6499-.1163-.1962-.277-.3484-.482-.4567-.2051-.1113-.4346-.1669-.6886-.1669s-.485.0556-.6931.1669c-.2051.1083-.3673.2605-.4866.4567-.1163.1932-.1744.4099-.1744.6499 0 .2401.0581.4582.1744.6544.1193.1932.2815.3455.4866.4567.2081.1083.4391.1625.6931.1625ZM53.7545 25.7417c.2264 0 .4315.0497.6151.1493.1836.0966.3274.2342.4315.4128.104.1786.1561.382.1561.6104 0 .2313-.0521.4362-.1561.6148a1.092 1.092 0 0 1-.4315.4172c-.1806.0967-.3856.145-.6151.145-.1959 0-.3734-.0381-.5325-.1142-.1561-.0791-.2846-.1933-.3856-.3426v1.2868h-.3259v-3.162h.3121v.4567a.9916.9916 0 0 1 .3856-.3513c.1622-.082.3443-.1229.5463-.1229Zm-.023 2.0728c.1683 0 .3214-.0366.4591-.1098a.8078.8078 0 0 0 .3213-.3206c.0796-.1376.1193-.2942.1193-.4699 0-.1757-.0397-.3308-.1193-.4655a.8078.8078 0 0 0-.3213-.3206c-.1377-.0761-.2908-.1142-.4591-.1142-.1714 0-.3259.0381-.4636.1142-.1347.0761-.2418.183-.3213.3206-.0765.1347-.1148.2898-.1148.4655 0 .1757.0383.3323.1148.4699.0795.1376.1866.2445.3213.3206.1377.0732.2922.1098.4636.1098ZM57.365 26.0359h-1.3817v2.0333h-.3259v-2.31h1.7076v.2767ZM58.6669 25.7417c.3152 0 .557.0761.7253.2283.1683.1493.2525.3718.2525.6675v1.4317h-.3122v-.3601c-.0734.12-.182.2137-.3259.2811-.1408.0673-.3091.101-.5049.101-.2693 0-.4835-.0615-.6427-.1845-.1591-.123-.2387-.2854-.2387-.4875 0-.1961.0735-.3542.2204-.4742.1499-.1201.3871-.1801.7115-.1801h.7666v-.1405c0-.1991-.0582-.3499-.1745-.4524-.1163-.1054-.2861-.1581-.5095-.1581-.153 0-.2999.0249-.4407.0747-.1408.0468-.2616.1127-.3626.1976l-.1469-.2327c.1224-.0996.2693-.1757.4407-.2284a1.7437 1.7437 0 0 1 .5416-.0834Zm-.1147 2.1035c.1836 0 .3412-.0395.4728-.1185.1316-.082.2295-.1991.2938-.3514v-.3776h-.7574c-.4132 0-.6198.1376-.6198.4128 0 .1346.0536.2415.1607.3205.1071.0762.2571.1142.4499.1142ZM60.5123 25.7592h.3259v1.0233h1.5195v-1.0233h.3259v2.31h-.3259v-1.0188h-1.5195v1.0188h-.3259v-2.31ZM63.6099 25.7592h.326v1.8357l1.6112-1.8357h.2892v2.31h-.3259v-1.8357l-1.6067 1.8357h-.2938v-2.31ZM67.8962 26.8659c.1713.0381.3029.1039.3947.1976.0949.0937.1423.2079.1423.3426 0 .1346-.0489.2547-.1468.3601-.0949.1054-.225.1874-.3902.2459-.1653.0556-.3474.0835-.5463.0835a1.9105 1.9105 0 0 1-.5141-.0703c-.1683-.0498-.3152-.1215-.4407-.2152l.1102-.2328c.1101.0791.2387.1406.3856.1845.1469.0439.2953.0659.4452.0659.2234 0 .4055-.0396.5463-.1186.1438-.082.2157-.1918.2157-.3294 0-.1229-.0581-.2181-.1744-.2854-.1163-.0703-.2754-.1054-.4774-.1054h-.4131v-.2284h.3947c.1806 0 .326-.0322.4361-.0966.1102-.0673.1653-.1566.1653-.2679 0-.123-.0627-.2196-.1882-.2898-.1224-.0703-.2831-.1054-.482-.1054-.2601 0-.5172.0629-.7712.1888l-.0918-.2415c.2877-.1435.586-.2152.8951-.2152.1836 0 .3489.0263.4958.079.1499.0498.2662.1215.3489.2152.0856.0937.1285.202.1285.325 0 .1171-.0429.221-.1285.3118-.0827.0908-.1959.1581-.3397.202ZM70.004 25.7417c.3152 0 .557.0761.7253.2283.1683.1493.2524.3718.2524.6675v1.4317h-.3121v-.3601c-.0734.12-.1821.2137-.3259.2811-.1408.0673-.3091.101-.505.101-.2693 0-.4835-.0615-.6426-.1845-.1592-.123-.2387-.2854-.2387-.4875 0-.1961.0734-.3542.2203-.4742.15-.1201.3871-.1801.7115-.1801h.7666v-.1405c0-.1991-.0581-.3499-.1744-.4524-.1163-.1054-.2861-.1581-.5095-.1581-.1531 0-.2999.0249-.4407.0747-.1408.0468-.2617.1127-.3627.1976l-.1469-.2327c.1225-.0996.2693-.1757.4407-.2284a1.7448 1.7448 0 0 1 .5417-.0834Zm-.1148 2.1035c.1836 0 .3413-.0395.4728-.1185.1316-.082.2296-.1991.2938-.3514v-.3776h-.7574c-.4131 0-.6197.1376-.6197.4128 0 .1346.0536.2415.1607.3205.1071.0762.257.1142.4498.1142ZM74.3649 27.7969v.852h-.3075v-.5797h-2.208v-2.31h.3259v2.0377h1.4735v-2.0377h.3259v2.0377h.3902ZM74.9873 25.7592h.326v1.8357l1.6112-1.8357h.2892v2.31h-.3259v-1.8357l-1.6067 1.8357h-.2938v-2.31ZM80.0023 25.7592v2.31h-.2984v-.7641h-.8492l-.5601.7641h-.3534l.6013-.8081c-.1867-.0497-.3305-.1346-.4315-.2547-.101-.12-.1515-.2722-.1515-.4567 0-.2576.0918-.4538.2755-.5885.1836-.1346.4345-.202.7528-.202h1.0145Zm-1.7123.7993c0 .3425.228.5138.684.5138h.7299v-1.0364h-.7069c-.4713 0-.707.1742-.707.5226ZM84.2996 25.7592v2.31h-.3259v-2.0333h-1.5148v2.0333h-.3259v-2.31h2.1666ZM86.2222 28.0912c-.2325 0-.4422-.0498-.6289-.1494-.1866-.1024-.3335-.243-.4406-.4215-.1071-.1786-.1607-.3807-.1607-.6061s.0536-.4274.1607-.606c.1071-.1786.254-.3177.4406-.4172.1867-.0996.3964-.1493.6289-.1493.2326 0 .4422.0497.6289.1493.1867.0995.3321.2386.4361.4172.1071.1786.1607.3806.1607.606s-.0536.4275-.1607.6061c-.104.1785-.2494.3191-.4361.4215-.1867.0996-.3963.1494-.6289.1494Zm0-.2767c.1714 0 .3244-.0366.4591-.1098a.8078.8078 0 0 0 .3213-.3206c.0765-.1376.1148-.2942.1148-.4699 0-.1757-.0383-.3323-.1148-.4699a.7792.7792 0 0 0-.3213-.3162c-.1347-.0761-.2877-.1142-.4591-.1142-.1713 0-.3259.0381-.4636.1142-.1347.0732-.2418.1786-.3213.3162-.0765.1376-.1148.2942-.1148.4699 0 .1757.0383.3323.1148.4699.0795.1376.1866.2445.3213.3206.1377.0732.2923.1098.4636.1098ZM89.5695 28.0692l-.7666-.9661-.7712.9661h-.3672l.9548-1.1857-.9089-1.1243h.3672l.7253.9047.7253-.9047h.358l-.9089 1.1243.964 1.1857h-.3718ZM91.3865 28.0912c-.2326 0-.4423-.0498-.6289-.1494-.1867-.1024-.3336-.243-.4407-.4215-.1071-.1786-.1607-.3807-.1607-.6061s.0536-.4274.1607-.606c.1071-.1786.254-.3177.4407-.4172.1866-.0996.3963-.1493.6289-.1493.2325 0 .4422.0497.6288.1493.1867.0995.3321.2386.4361.4172.1071.1786.1607.3806.1607.606s-.0536.4275-.1607.6061c-.104.1785-.2494.3191-.4361.4215-.1866.0996-.3963.1494-.6288.1494Zm0-.2767c.1713 0 .3243-.0366.459-.1098a.8078.8078 0 0 0 .3213-.3206c.0765-.1376.1148-.2942.1148-.4699 0-.1757-.0383-.3323-.1148-.4699a.7792.7792 0 0 0-.3213-.3162c-.1347-.0761-.2877-.1142-.459-.1142-.1714 0-.326.0381-.4637.1142-.1346.0732-.2417.1786-.3213.3162-.0765.1376-.1148.2942-.1148.4699 0 .1757.0383.3323.1148.4699.0796.1376.1867.2445.3213.3206.1377.0732.2923.1098.4637.1098ZM95.6501 27.7969v.83h-.3076v-.5577h-2.1621v.5577h-.3075v-.83h.1377c.1622-.0088.2724-.1229.3305-.3425.0581-.2196.0979-.527.1194-.9223l.0321-.7729h1.7811v2.0377h.3764Zm-1.8913-1.2472c-.0153.3279-.0443.5987-.0872.8125-.0428.2108-.1193.3557-.2295.4347h1.5056v-1.761h-1.1613l-.0276.5138ZM97.2814 28.0912c-.2326 0-.4422-.0498-.6289-.1494-.1867-.1024-.3336-.243-.4407-.4215-.1071-.1786-.1607-.3807-.1607-.6061s.0536-.4274.1607-.606c.1071-.1786.254-.3177.4407-.4172.1867-.0996.3963-.1493.6289-.1493.2325 0 .4422.0497.6288.1493.1867.0995.3321.2386.4361.4172.1071.1786.1607.3806.1607.606s-.0536.4275-.1607.6061c-.104.1785-.2494.3191-.4361.4215-.1866.0996-.3963.1494-.6288.1494Zm0-.2767c.1713 0 .3243-.0366.459-.1098a.8078.8078 0 0 0 .3213-.3206c.0765-.1376.1148-.2942.1148-.4699 0-.1757-.0383-.3323-.1148-.4699a.7792.7792 0 0 0-.3213-.3162c-.1347-.0761-.2877-.1142-.459-.1142-.1714 0-.326.0381-.4637.1142-.1346.0732-.2417.1786-.3213.3162-.0765.1376-.1148.2942-.1148.4699 0 .1757.0383.3323.1148.4699.0796.1376.1867.2445.3213.3206.1377.0732.2923.1098.4637.1098ZM100.741 26.8747c.328.0732.492.262.492.5665 0 .202-.079.3572-.235.4655-.156.1083-.388.1625-.697.1625h-1.0974v-2.31h1.0654c.275 0 .491.0513.647.1537.156.1025.234.2489.234.4392 0 .1259-.037.2342-.11.325-.071.0878-.17.1537-.299.1976Zm-1.2207-.0878h.7257c.186 0 .329-.0337.426-.1011.101-.0673.152-.1654.152-.2942 0-.1288-.051-.2254-.152-.2898-.097-.0644-.24-.0966-.426-.0966h-.7257v.7817Zm.7667 1.0364c.208 0 .364-.0322.468-.0966.104-.0645.156-.1655.156-.3031 0-.1376-.047-.2386-.142-.303-.095-.0673-.245-.101-.45-.101h-.7987v.8037h.7667ZM104.736 26.8747c.327.0732.491.262.491.5665 0 .202-.078.3572-.234.4655-.156.1083-.389.1625-.698.1625h-1.097v-2.31h1.065c.275 0 .491.0513.647.1537.156.1025.234.2489.234.4392 0 .1259-.037.2342-.11.325-.07.0878-.17.1537-.298.1976Zm-1.222-.0878h.726c.186 0 .329-.0337.427-.1011.101-.0673.151-.1654.151-.2942 0-.1288-.05-.2254-.151-.2898-.098-.0644-.241-.0966-.427-.0966h-.726v.7817Zm.767 1.0364c.208 0 .364-.0322.468-.0966.104-.0645.156-.1655.156-.3031 0-.1376-.047-.2386-.142-.303-.095-.0673-.245-.101-.45-.101h-.799v.8037h.767ZM108.9 26.0359h-1.382v2.0333h-.326v-2.31h1.708v.2767ZM110.255 28.0912c-.233 0-.443-.0498-.629-.1494-.187-.1024-.334-.243-.441-.4215-.107-.1786-.161-.3807-.161-.6061s.054-.4274.161-.606c.107-.1786.254-.3177.441-.4172.186-.0996.396-.1493.629-.1493.232 0 .442.0497.629.1493.186.0995.332.2386.436.4172.107.1786.16.3806.16.606s-.053.4275-.16.6061c-.104.1785-.25.3191-.436.4215-.187.0996-.397.1494-.629.1494Zm0-.2767c.171 0 .324-.0366.459-.1098a.8083.8083 0 0 0 .321-.3206c.077-.1376.115-.2942.115-.4699 0-.1757-.038-.3323-.115-.4699a.7797.7797 0 0 0-.321-.3162c-.135-.0761-.288-.1142-.459-.1142-.172 0-.326.0381-.464.1142-.135.0732-.242.1786-.321.3162-.077.1376-.115.2942-.115.4699 0 .1757.038.3323.115.4699.079.1376.186.2445.321.3206.138.0732.292.1098.464.1098ZM113.421 25.7417c.226 0 .431.0497.615.1493.184.0966.327.2342.431.4128.105.1786.157.382.157.6104 0 .2313-.052.4362-.157.6148a1.0874 1.0874 0 0 1-.431.4172c-.181.0967-.386.145-.615.145-.196 0-.373-.0381-.533-.1142-.156-.0791-.284-.1933-.385-.3426v1.2868h-.326v-3.162h.312v.4567a.9872.9872 0 0 1 .386-.3513c.162-.082.344-.1229.546-.1229Zm-.023 2.0728c.168 0 .321-.0366.459-.1098a.802.802 0 0 0 .321-.3206c.08-.1376.12-.2942.12-.4699 0-.1757-.04-.3308-.12-.4655a.802.802 0 0 0-.321-.3206c-.138-.0761-.291-.1142-.459-.1142-.171 0-.326.0381-.464.1142-.134.0761-.241.183-.321.3206-.077.1347-.115.2898-.115.4655 0 .1757.038.3323.115.4699.08.1376.187.2445.321.3206.138.0732.293.1098.464.1098ZM116.338 26.5761c.303.0029.534.0673.693.1932.16.1259.239.3074.239.5445 0 .246-.086.4348-.257.5666-.171.1317-.416.1961-.734.1932l-.955-.0044v-2.31h.326v.8081l.688.0088Zm1.336-.8169H118v2.31h-.326v-2.31Zm-1.414 2.0772c.224.003.392-.0395.505-.1273.116-.0908.175-.2225.175-.3953 0-.1698-.057-.2957-.17-.3776-.113-.082-.283-.1245-.51-.1274l-.61-.0088v1.0277l.61.0087Z"/></g><defs><clipPath id="a"><path fill="#fff" d="M0 0h118v34H0z"/></clipPath></defs></svg>