<svg xmlns="http://www.w3.org/2000/svg" width="205" height="62" fill="none" viewBox="0 0 205 62"><g fill="#fff" clip-path="url(#a)"><path d="m22.7109 40.218 5.4398-5.7356 6.1878 5.7356h10.6076L28.0827 23.6255 11.3553 40.218h11.3556Z"/><path d="m38.2827 13.5881-8.0237 8.1938 5.3038 5.4626 2.7199-2.7313 14.8915 14.8855C49.7743 48.4802 41.0706 54.967 30.8029 54.967 17.6114 54.967 6.9358 44.2467 6.9358 31c.068-13.2467 10.7436-23.967 23.9351-23.967 11.6956 0 21.4873 8.5353 23.4592 19.6652l7.2078 7.6476c.136-1.0925.204-2.2533.204-3.3458 0-8.2621-3.1959-16.0463-9.0437-21.9185C46.8504 3.2092 39.0987 0 30.8709 0 22.5752 0 14.8915 3.2092 9.0437 9.0815 3.1959 14.9537 0 22.6696 0 31c0 8.3304 3.1959 16.0463 9.0437 21.9185C14.8915 58.7907 22.6432 62 30.8709 62c8.2278 0 15.9795-3.2093 21.8273-9.0815 3.6039-3.6189 6.1878-7.9207 7.6157-12.6322.272-.8193.476-1.707.68-2.5264l-6.2558-6.6233-16.4554-17.5485ZM87.2138 19.9204h4.5397l-2.4762 12.5018h7.6578l-.7336 3.6147H84.0039l3.2099-16.1165ZM101.208 19.9204h4.539l-3.209 16.1165h-4.5401l3.2101-16.1165ZM112.806 23.443l-.711 3.5457h7.085l-.711 3.5226h-7.061l-1.101 5.5256h-4.54l3.21-16.1165h12.565l-.711 3.5226h-8.025ZM127.448 23.443l-.527 2.7168h7.13l-.665 3.4075h-7.153l-.574 2.947h8.415l-.734 3.5226h-12.862l3.21-16.1165h12.564l-.711 3.5226h-8.093ZM141.775 23.5351h-4.93l.734-3.6147h14.376l-.734 3.6147h-4.906l-2.5 12.5018h-4.539l2.499-12.5018ZM158.879 36.3593c-1.62 0-3.034-.2993-4.242-.898-1.192-.5986-2.117-1.4351-2.774-2.5095-.642-1.0745-.963-2.3024-.963-3.6838 0-1.8419.42-3.4996 1.261-4.9731.856-1.4735 2.041-2.6247 3.554-3.4535 1.528-.8289 3.263-1.2433 5.204-1.2433 1.621 0 3.027.2993 4.219.8979 1.208.5986 2.132 1.4351 2.774 2.5096.658 1.0744.986 2.3023.986 3.6837 0 1.8419-.428 3.4996-1.284 4.9731-.84 1.4736-2.025 2.6247-3.553 3.4536-1.514.8288-3.241 1.2433-5.182 1.2433Zm.39-3.7759c1.009 0 1.895-.2533 2.659-.7598.765-.5065 1.353-1.1819 1.766-2.0261.412-.8595.619-1.8035.619-2.8319 0-1.0898-.336-1.957-1.009-2.6016-.657-.66-1.582-.99-2.774-.99-1.009 0-1.896.2532-2.66.7597-.764.5065-1.353 1.1896-1.765 2.0491-.413.8442-.619 1.7805-.619 2.8089 0 1.0898.328 1.9647.985 2.6247.673.6447 1.605.967 2.798.967ZM177.421 36.3593c-1.391 0-2.591-.2303-3.6-.6907-1.009-.4759-1.781-1.1512-2.316-2.0261-.535-.8749-.802-1.9033-.802-3.0852 0-.4912.061-1.0591.183-1.7037l1.789-8.9332h4.539l-1.765 8.8641c-.092.4605-.138.8826-.138 1.2663 0 1.6884.887 2.5326 2.66 2.5326.963 0 1.719-.2916 2.27-.8749.565-.5986.986-1.5733 1.261-2.924l1.765-8.8641h4.471l-1.811 9.1404c-.978 4.8656-3.814 7.2985-8.506 7.2985ZM204.157 25.0547c0 1.4735-.389 2.7475-1.169 3.8219-.779 1.0591-1.872 1.8342-3.279 2.3254l2.729 4.8349h-4.746l-2.385-4.2824h-2.292l-.849 4.2824h-4.539l3.209-16.1165h6.856c2.048 0 3.638.4528 4.769 1.3584 1.131.9056 1.696 2.1642 1.696 3.7759Zm-4.585.4374c0-.66-.222-1.1512-.665-1.4735-.443-.3377-1.062-.5065-1.857-.5065h-2.385l-.963 4.7198h2.706c1.009 0 1.788-.2379 2.338-.7137.551-.4758.826-1.1512.826-2.0261ZM87.0264 51.2331c-.553 0-1.0554-.1228-1.5073-.3684-.4466-.2509-.7975-.5926-1.0527-1.0251-.2498-.4324-.3748-.9182-.3748-1.4575 0-.5392.125-1.025.3748-1.4574.2552-.4325.6061-.7715 1.0527-1.0171.4519-.2509.9543-.3764 1.5073-.3764.5529 0 1.05.1228 1.4913.3684.4466.2456.7975.5873 1.0527 1.0251.2551.4324.3827.9182.3827 1.4574 0 .5393-.1276 1.0278-.3827 1.4656-.2552.4324-.6061.7714-1.0527 1.017-.4413.2456-.9384.3684-1.4913.3684Zm0-.5286c.4412 0 .84-.0987 1.1962-.2963.3562-.2029.6353-.4805.8374-.8328.202-.3577.303-.7555.303-1.1933 0-.4377-.101-.8328-.303-1.1852-.2021-.3577-.4812-.6353-.8374-.8328-.3562-.2029-.755-.3043-1.1962-.3043-.4413 0-.8427.1014-1.2042.3043-.3562.1975-.638.4751-.8454.8328-.202.3524-.303.7475-.303 1.1852 0 .4378.101.8356.303 1.1933.2074.3523.4892.6299.8454.8328.3615.1976.7629.2963 1.2042.2963ZM93.387 46.9407c.3934 0 .7497.0907 1.0686.2723.319.1761.5689.4271.7497.7527.1807.3257.2711.6967.2711 1.1132 0 .4217-.0904.7954-.2711 1.1211-.1808.3257-.4307.5793-.7497.7608-.3136.1762-.6698.2643-1.0686.2643-.3403 0-.6486-.0694-.9251-.2083-.2711-.1441-.4944-.3523-.6699-.6246v2.3464h-.5662v-5.7659h.5423v.8329c.1701-.2777.3934-.4912.6699-.6407.2818-.1495.5981-.2242.949-.2242Zm-.0399 3.7798c.2924 0 .5583-.0667.7975-.2002.2393-.1388.4253-.3336.5583-.5846.1382-.2509.2073-.5365.2073-.8568 0-.3204-.0691-.6033-.2073-.8489-.133-.2509-.319-.4458-.5583-.5846-.2392-.1388-.5051-.2082-.7975-.2082-.2977 0-.5662.0694-.8054.2082-.234.1388-.42.3337-.5583.5846-.1329.2456-.1993.5285-.1993.8489 0 .3203.0664.6059.1993.8568.1383.251.3243.4458.5583.5846.2392.1335.5077.2002.8054.2002ZM99.6596 47.4772h-2.4004v3.7078h-.5662v-4.2123h2.9666v.5045ZM101.921 46.9407c.548 0 .968.1388 1.26.4164.293.2723.439.678.439 1.2172v2.6107h-.542v-.6567c-.128.2189-.317.3898-.566.5126-.245.1228-.537.1842-.878.1842-.468 0-.84-.1122-1.116-.3364-.277-.2242-.415-.5205-.415-.8889 0-.3577.128-.646.383-.8649.26-.2189.672-.3283 1.236-.3283h1.332v-.2563c0-.363-.101-.638-.303-.8248-.202-.1922-.497-.2883-.885-.2883-.266 0-.521.0454-.766.1361-.245.0854-.455.2056-.63.3604l-.255-.4244c.212-.1816.468-.3204.765-.4165.298-.1014.612-.1521.941-.1521Zm-.199 3.8359c.319 0 .593-.0721.821-.2162.229-.1495.399-.3631.511-.6407v-.6887h-1.316c-.718 0-1.077.2509-1.077.7528 0 .2456.093.4404.279.5846.187.1388.447.2082.782.2082ZM105.127 46.9727h.567v1.8659h2.639v-1.8659h.566v4.2123h-.566v-1.8579h-2.639v1.8579h-.567v-4.2123ZM110.509 46.9727h.566v3.3474l2.799-3.3474h.503v4.2123h-.567v-3.3474l-2.791 3.3474h-.51v-4.2123ZM117.955 48.9908c.298.0694.527.1895.686.3603.165.1709.247.3791.247.6247 0 .2456-.085.4645-.255.6567-.165.1921-.391.3416-.678.4484-.287.1015-.603.1522-.949.1522-.303 0-.601-.0427-.893-.1282-.292-.0907-.548-.2215-.766-.3924l.192-.4244c.191.1441.415.2563.67.3363.255.0801.513.1202.773.1202.388 0 .705-.0721.949-.2163.25-.1494.375-.3496.375-.6006 0-.2242-.101-.3977-.303-.5205-.202-.1281-.478-.1922-.829-.1922h-.718v-.4164h.686c.313 0 .566-.0588.757-.1762.192-.1228.287-.2856.287-.4885 0-.2242-.109-.4004-.326-.5285-.213-.1282-.492-.1922-.838-.1922-.452 0-.898.1147-1.34.3443l-.159-.4404c.5-.2616 1.018-.3924 1.555-.3924.319 0 .606.048.861.1441.261.0908.463.2216.606.3924.149.1708.224.3684.224.5926 0 .2136-.075.4031-.224.5686-.143.1655-.34.2883-.59.3684ZM121.617 46.9407c.548 0 .968.1388 1.26.4164.293.2723.439.678.439 1.2172v2.6107h-.543v-.6567c-.127.2189-.316.3898-.566.5126-.244.1228-.537.1842-.877.1842-.468 0-.84-.1122-1.116-.3364-.277-.2242-.415-.5205-.415-.8889 0-.3577.127-.646.383-.8649.26-.2189.672-.3283 1.236-.3283h1.332v-.2563c0-.363-.101-.638-.304-.8248-.202-.1922-.497-.2883-.885-.2883-.266 0-.521.0454-.765.1361-.245.0854-.455.2056-.63.3604l-.256-.4244c.213-.1816.468-.3204.766-.4165.298-.1014.611-.1521.941-.1521Zm-.199 3.8359c.319 0 .593-.0721.821-.2162.229-.1495.399-.3631.511-.6407v-.6887h-1.316c-.718 0-1.077.2509-1.077.7528 0 .2456.093.4404.279.5846.186.1388.447.2082.782.2082ZM129.193 50.6885v1.5536h-.534V51.185h-3.836v-4.2123h.566v3.7158h2.56v-3.7158h.566v3.7158h.678ZM130.275 46.9727h.566v3.3474l2.799-3.3474h.502v4.2123h-.566v-3.3474l-2.791 3.3474h-.51v-4.2123ZM138.987 46.9727v4.2123h-.518v-1.3934h-1.476l-.973 1.3934h-.614l1.045-1.4735c-.324-.0907-.574-.2456-.75-.4645-.175-.2189-.263-.4965-.263-.8328 0-.4698.16-.8275.479-1.0731.319-.2456.755-.3684 1.308-.3684h1.762Zm-2.975 1.4575c0 .6246.396.937 1.189.937h1.268v-1.89h-1.229c-.818 0-1.228.3177-1.228.953ZM146.453 46.9727v4.2123h-.566v-3.7078h-2.632v3.7078h-.566v-4.2123h3.764ZM149.793 51.2251c-.404 0-.768-.0908-1.093-.2723-.324-.1869-.579-.4431-.765-.7688-.186-.3257-.279-.6941-.279-1.1051 0-.4111.093-.7795.279-1.1052.186-.3256.441-.5792.765-.7607.325-.1816.689-.2723 1.093-.2723s.768.0907 1.092.2723c.325.1815.577.4351.758.7607.186.3257.279.6941.279 1.1052 0 .411-.093.7794-.279 1.1051-.181.3257-.433.5819-.758.7688-.324.1815-.688.2723-1.092.2723Zm0-.5046c.298 0 .563-.0667.797-.2002.24-.1388.426-.3336.559-.5846.133-.2509.199-.5365.199-.8568 0-.3204-.066-.606-.199-.8569s-.319-.4431-.559-.5766c-.234-.1388-.499-.2082-.797-.2082-.298 0-.566.0694-.806.2082-.234.1335-.42.3257-.558.5766-.133.2509-.199.5365-.199.8569 0 .3203.066.6059.199.8568.138.251.324.4458.558.5846.24.1335.508.2002.806.2002ZM155.608 51.185l-1.332-1.7618-1.34 1.7618h-.638l1.659-2.1622-1.579-2.0501h.638l1.26 1.6497 1.26-1.6497h.622l-1.579 2.0501 1.675 2.1622h-.646ZM158.765 51.2251c-.404 0-.769-.0908-1.093-.2723-.324-.1869-.579-.4431-.766-.7688-.186-.3257-.279-.6941-.279-1.1051 0-.4111.093-.7795.279-1.1052.187-.3256.442-.5792.766-.7607.324-.1816.689-.2723 1.093-.2723s.768.0907 1.092.2723c.324.1815.577.4351.758.7607.186.3257.279.6941.279 1.1052 0 .411-.093.7794-.279 1.1051-.181.3257-.434.5819-.758.7688-.324.1815-.688.2723-1.092.2723Zm0-.5046c.297 0 .563-.0667.797-.2002.239-.1388.425-.3336.558-.5846.133-.2509.2-.5365.2-.8568 0-.3204-.067-.606-.2-.8569s-.319-.4431-.558-.5766c-.234-.1388-.5-.2082-.797-.2082-.298 0-.567.0694-.806.2082-.234.1335-.42.3257-.558.5766-.133.2509-.199.5365-.199.8569 0 .3203.066.6059.199.8568.138.251.324.4458.558.5846.239.1335.508.2002.806.2002ZM166.172 50.6885v1.5136h-.535V51.185h-3.756v1.0171h-.534v-1.5136h.239c.282-.016.473-.2242.574-.6246.101-.4004.171-.961.208-1.6818l.056-1.4094h3.094v3.7158h.654Zm-3.286-2.2743c-.026.5979-.077 1.0918-.151 1.4815-.075.3844-.208.6487-.399.7928h2.616v-3.2113h-2.018l-.048.937ZM169.006 51.2251c-.404 0-.768-.0908-1.093-.2723-.324-.1869-.579-.4431-.765-.7688-.186-.3257-.28-.6941-.28-1.1051 0-.4111.094-.7795.28-1.1052.186-.3256.441-.5792.765-.7607.325-.1816.689-.2723 1.093-.2723s.768.0907 1.092.2723c.325.1815.577.4351.758.7607.186.3257.279.6941.279 1.1052 0 .411-.093.7794-.279 1.1051-.181.3257-.433.5819-.758.7688-.324.1815-.688.2723-1.092.2723Zm0-.5046c.297 0 .563-.0667.797-.2002.239-.1388.426-.3336.558-.5846.133-.2509.2-.5365.2-.8568 0-.3204-.067-.606-.2-.8569-.132-.2509-.319-.4431-.558-.5766-.234-.1388-.5-.2082-.797-.2082-.298 0-.566.0694-.806.2082-.234.1335-.42.3257-.558.5766-.133.2509-.199.5365-.199.8569 0 .3203.066.6059.199.8568.138.251.324.4458.558.5846.24.1335.508.2002.806.2002ZM175.017 49.0068c.569.1335.853.4778.853 1.033 0 .3684-.136.6514-.407.8489-.271.1976-.675.2963-1.212.2963h-1.906v-4.2123h1.85c.479 0 .854.0934 1.125.2803.271.1868.407.4538.407.8008 0 .2296-.064.4271-.192.5926-.122.1602-.295.2803-.518.3604Zm-2.122-.1602h1.26c.325 0 .572-.0614.742-.1842.176-.1228.263-.3016.263-.5365s-.087-.4111-.263-.5286c-.17-.1174-.417-.1761-.742-.1761h-1.26v1.4254Zm1.332 1.89c.362 0 .633-.0588.814-.1762.18-.1175.271-.3017.271-.5526 0-.2509-.083-.4351-.247-.5526-.165-.1227-.426-.1841-.782-.1841h-1.388v1.4655h1.332ZM181.956 49.0068c.569.1335.853.4778.853 1.033 0 .3684-.135.6514-.407.8489-.271.1976-.675.2963-1.212.2963h-1.906v-4.2123h1.85c.479 0 .854.0934 1.125.2803.271.1868.407.4538.407.8008 0 .2296-.064.4271-.192.5926-.122.1602-.295.2803-.518.3604Zm-2.121-.1602h1.26c.324 0 .571-.0614.741-.1842.176-.1228.263-.3016.263-.5365s-.087-.4111-.263-.5286c-.17-.1174-.417-.1761-.741-.1761h-1.26v1.4254Zm1.331 1.89c.362 0 .633-.0588.814-.1762.181-.1175.271-.3017.271-.5526 0-.2509-.083-.4351-.247-.5526-.165-.1227-.426-.1841-.782-.1841h-1.387v1.4655h1.331ZM189.19 47.4772h-2.4v3.7078h-.567v-4.2123h2.967v.5045ZM191.544 51.2251c-.404 0-.768-.0908-1.092-.2723-.325-.1869-.58-.4431-.766-.7688-.186-.3257-.279-.6941-.279-1.1051 0-.4111.093-.7795.279-1.1052.186-.3256.441-.5792.766-.7607.324-.1816.688-.2723 1.092-.2723.404 0 .768.0907 1.093.2723.324.1815.577.4351.757.7607.186.3257.279.6941.279 1.1052 0 .411-.093.7794-.279 1.1051-.18.3257-.433.5819-.757.7688-.325.1815-.689.2723-1.093.2723Zm0-.5046c.298 0 .564-.0667.798-.2002.239-.1388.425-.3336.558-.5846.133-.2509.199-.5365.199-.8568 0-.3204-.066-.606-.199-.8569s-.319-.4431-.558-.5766c-.234-.1388-.5-.2082-.798-.2082-.298 0-.566.0694-.805.2082-.234.1335-.42.3257-.559.5766-.133.2509-.199.5365-.199.8569 0 .3203.066.6059.199.8568.139.251.325.4458.559.5846.239.1335.507.2002.805.2002ZM197.045 46.9407c.393 0 .749.0907 1.068.2723.319.1761.569.4271.75.7527.181.3257.271.6967.271 1.1132 0 .4217-.09.7954-.271 1.1211-.181.3257-.431.5793-.75.7608-.313.1762-.67.2643-1.068.2643-.341 0-.649-.0694-.925-.2083-.272-.1441-.495-.3523-.67-.6246v2.3464h-.566v-5.7659h.542v.8329c.17-.2777.393-.4912.67-.6407.281-.1495.598-.2242.949-.2242Zm-.04 3.7798c.292 0 .558-.0667.797-.2002.24-.1388.426-.3336.559-.5846.138-.2509.207-.5365.207-.8568 0-.3204-.069-.6033-.207-.8489-.133-.2509-.319-.4458-.559-.5846-.239-.1388-.505-.2082-.797-.2082-.298 0-.566.0694-.806.2082-.234.1388-.42.3337-.558.5846-.133.2456-.199.5285-.199.8489 0 .3203.066.6059.199.8568.138.251.324.4458.558.5846.24.1335.508.2002.806.2002ZM202.113 48.4622c.526.0054.928.1228 1.204.3524.277.2296.415.5606.415.993 0 .4485-.149.7928-.447 1.0331-.297.2402-.723.3577-1.276.3523l-1.658-.008v-4.2123h.566v1.4735l1.196.016Zm2.321-1.4895H205v4.2123h-.566v-4.2123Zm-2.456 3.7879c.388.0053.68-.0721.877-.2323.202-.1655.303-.4057.303-.7207 0-.3096-.099-.5392-.295-.6887-.197-.1495-.492-.2269-.885-.2322l-1.061-.0161v1.874l1.061.016Z"/></g><defs><clipPath id="a"><path fill="#fff" d="M0 0h205v62H0z"/></clipPath></defs></svg>