<svg xmlns="http://www.w3.org/2000/svg" width="144" height="44" fill="none" viewBox="0 0 144 44"><g fill="#fff" clip-path="url(#a)"><path d="m15.953 28.5418 3.8212-4.0704 4.3465 4.0704h7.4512L19.7264 16.7665l-11.75 11.7753h7.9766Z"/><path d="m26.8913 9.6432-5.6362 5.8149 3.7256 3.8767 1.9106-1.9383 10.4603 10.5639c-2.3882 6.4449-8.502 11.0484-15.7144 11.0484-9.2663 0-16.7653-7.6079-16.7653-17.0088.0478-9.4009 7.5468-17.0088 16.8131-17.0088 8.2154 0 15.0934 6.0573 16.4786 13.9559l5.063 5.4273c.0955-.7753.1433-1.5991.1433-2.3744 0-5.8634-2.2449-11.3877-6.3526-15.555C32.9095 2.2774 27.4644 0 21.685 0 15.8577 0 10.4604 2.2775 6.3526 6.445 2.245 10.6122 0 16.088 0 22c0 5.9119 2.245 11.3877 6.3526 15.5551C10.4604 41.7225 15.9055 44 21.685 44c5.7794 0 11.2245-2.2775 15.3323-6.4449 2.5315-2.5683 4.3465-5.6212 5.3496-8.9648.191-.5815.3343-1.2114.4776-1.7929l-4.3943-4.7005L26.8913 9.6432ZM61.2624 14.1371h3.1888l-1.7394 8.8722h5.3792l-.5153 2.5653h-8.5681l2.2548-11.4375ZM71.0923 14.1371h3.1888l-2.2547 11.4375h-3.1889l2.2548-11.4375ZM79.2394 16.637l-.4992 2.5162h4.9765l-.4992 2.5H78.257l-.773 3.9214h-3.1889l2.2548-11.4375h8.8257l-.4993 2.4999h-5.6369ZM89.5243 16.637l-.3704 1.928h5.0088l-.4671 2.4182h-5.0248l-.4027 2.0915h5.9107l-.5154 2.4999h-9.0351l2.2548-11.4375h8.8257l-.4993 2.4999h-5.6852ZM99.5882 16.7023h-3.4627l.5154-2.5652h10.0981l-.515 2.5652h-3.447l-1.755 8.8723h-3.1893l1.7555-8.8723ZM111.603 25.8033c-1.138 0-2.132-.2124-2.98-.6372-.837-.4248-1.487-1.0185-1.948-1.781-.451-.7625-.677-1.6339-.677-2.6143 0-1.3071.295-2.4835.886-3.5293.601-1.0457 1.433-1.8626 2.496-2.4509 1.074-.5882 2.293-.8823 3.656-.8823 1.138 0 2.126.2124 2.964.6373.848.4248 1.497 1.0184 1.948 1.7809.462.7625.693 1.634.693 2.6143 0 1.3072-.301 2.4836-.902 3.5293-.591 1.0457-1.423 1.8627-2.496 2.4509-1.063.5882-2.277.8823-3.64.8823Zm.274-2.6796c.708 0 1.331-.1797 1.868-.5392.537-.3595.95-.8388 1.24-1.4379.29-.61.435-1.2799.435-2.0097 0-.7734-.236-1.3888-.709-1.8463-.462-.4684-1.111-.7026-1.949-.7026-.708 0-1.331.1797-1.868.5392-.537.3594-.95.8442-1.24 1.4542-.29.5991-.435 1.2635-.435 1.9934 0 .7734.231 1.3942.693 1.8626.472.4575 1.127.6863 1.965.6863ZM124.627 25.8033c-.977 0-1.82-.1633-2.528-.4901-.709-.3377-1.251-.817-1.627-1.4379-.376-.6209-.564-1.3507-.564-2.1895 0-.3485.043-.7516.129-1.2091l1.256-6.3396h3.189l-1.24 6.2906c-.064.3268-.096.6263-.096.8987 0 1.1982.622 1.7973 1.868 1.7973.676 0 1.208-.207 1.594-.6209.397-.4248.693-1.1165.886-2.0751l1.24-6.2906h3.141l-1.273 6.4867c-.687 3.453-2.679 5.1795-5.975 5.1795ZM143.408 17.7807c0 1.0458-.274 1.9499-.821 2.7124-.548.7516-1.315 1.3017-2.303 1.6502l1.916 3.4313h-3.334l-1.675-3.0391h-1.61l-.596 3.0391h-3.189l2.255-11.4375h4.815c1.439 0 2.556.3213 3.35.964.795.6427 1.192 1.5359 1.192 2.6796Zm-3.221.3105c0-.4684-.156-.817-.467-1.0457-.311-.2397-.746-.3595-1.305-.3595h-1.674l-.677 3.3496h1.901c.708 0 1.256-.1689 1.642-.5066.387-.3376.58-.8169.58-1.4378ZM61.1307 36.359c-.3884 0-.7413-.0872-1.0587-.2615-.3137-.1781-.5602-.4205-.7395-.7274-.1755-.3069-.2633-.6517-.2633-1.0344 0-.3827.0878-.7274.2633-1.0343.1793-.3069.4258-.5475.7395-.7218.3174-.1781.6703-.2671 1.0587-.2671.3884 0 .7376.0871 1.0476.2614.3137.1743.5602.4168.7394.7275.1793.3069.2689.6516.2689 1.0343 0 .3827-.0896.7294-.2689 1.0401-.1792.3068-.4257.5474-.7394.7217-.31.1743-.6592.2615-1.0476.2615Zm0-.3751c.31 0 .5901-.0701.8403-.2103.2502-.144.4463-.341.5882-.5911.1419-.2538.2129-.5361.2129-.8468s-.071-.591-.2129-.8411c-.1419-.2539-.338-.4509-.5882-.5911-.2502-.1439-.5303-.2159-.8403-.2159-.31 0-.5919.072-.8459.2159-.2502.1402-.4481.3372-.5938.5911-.1419.2501-.2128.5304-.2128.8411s.0709.593.2128.8468c.1457.2501.3436.4471.5938.5911.254.1402.5359.2103.8459.2103ZM65.5987 33.3127c.2763 0 .5266.0644.7506.1933.2241.125.3996.3031.5266.5342.127.2311.1905.4944.1905.79 0 .2993-.0635.5645-.1905.7956-.127.2311-.3025.4111-.5266.5399-.2203.1251-.4705.1876-.7506.1876-.239 0-.4556-.0493-.6498-.1478-.1905-.1023-.3474-.2501-.4706-.4433v1.6652h-.3977v-4.0919h.3809v.591c.1195-.197.2764-.3485.4706-.4546.1979-.1061.4201-.1592.6666-.1592Zm-.028 2.6825c.2054 0 .3921-.0473.5602-.1421.168-.0985.2987-.2368.3921-.4148.0971-.1781.1456-.3808.1456-.6081 0-.2274-.0485-.4282-.1456-.6025-.0934-.178-.2241-.3163-.3921-.4148-.1681-.0985-.3548-.1478-.5602-.1478-.2092 0-.3978.0493-.5658.1478-.1643.0985-.295.2368-.3921.4148-.0934.1743-.1401.3751-.1401.6025 0 .2273.0467.43.1401.6081.0971.178.2278.3163.3921.4148.168.0948.3566.1421.5658.1421ZM70.0048 33.6935h-1.6862v2.6314h-.3977v-2.9894h2.0839v.358ZM71.5935 33.3127c.3847 0 .6797.0985.8851.2956.2054.1932.3081.4811.3081.8638v1.8528h-.3809v-.4661c-.0896.1554-.2222.2766-.3977.3638-.1718.0871-.3772.1307-.6162.1307-.3287 0-.5901-.0796-.7843-.2387-.1942-.1592-.2913-.3694-.2913-.6309 0-.2538.0897-.4584.2689-.6138.183-.1553.4724-.233.8683-.233h.9355v-.1818c0-.2577-.071-.4528-.2129-.5854-.1419-.1364-.3491-.2046-.6218-.2046-.1867 0-.366.0322-.5378.0966-.1717.0606-.3192.1459-.4425.2558l-.1793-.3013c.1494-.1288.3287-.2273.5378-.2955.2092-.072.4295-.108.661-.108Zm-.14 2.7223c.2241 0 .4164-.0511.577-.1534.1606-.1061.2801-.2577.3585-.4547v-.4888h-.9243c-.5042 0-.7563.1781-.7563.5343 0 .1743.0654.3125.1961.4148.1307.0986.3137.1478.549.1478ZM73.8455 33.3355h.3978v1.3242h1.8542v-1.3242h.3977v2.9894h-.3977v-1.3186h-1.8542v1.3186h-.3978v-2.9894ZM77.6257 33.3355h.3977v2.3756l1.9663-2.3756h.3529v2.9894h-.3977v-2.3756l-1.9607 2.3756h-.3585v-2.9894ZM82.8563 34.7676c.2092.0493.3698.1345.4818.2558.1158.1212.1737.269.1737.4433s-.0598.3296-.1793.466c-.1158.1364-.2745.2425-.4762.3183-.2016.072-.4238.108-.6666.108a2.206 2.206 0 0 1-.6274-.091c-.2054-.0644-.3846-.1572-.5378-.2785l.1345-.3012c.1344.1023.2913.1819.4705.2387.1793.0569.3604.0853.5434.0853.2726 0 .4948-.0512.6666-.1535.1756-.1061.2633-.2481.2633-.4262 0-.1591-.0709-.2823-.2128-.3694-.142-.091-.3362-.1364-.5826-.1364h-.5042v-.2956h.4818c.2203 0 .3977-.0416.5321-.125.1345-.0871.2017-.2027.2017-.3467 0-.1591-.0766-.2841-.2297-.3751-.1494-.0909-.3454-.1364-.5882-.1364-.3174 0-.6311.0815-.9411.2444l-.112-.3126c.351-.1856.7151-.2784 1.0923-.2784.2241 0 .4258.0341.605.1023.183.0644.3249.1572.4258.2784.1045.1213.1568.2615.1568.4206 0 .1516-.0523.2861-.1568.4035-.1009.1175-.239.2046-.4146.2614ZM85.4286 33.3127c.3847 0 .6797.0985.8851.2956.2054.1932.3081.4811.3081.8638v1.8528h-.3809v-.4661c-.0897.1554-.2222.2766-.3978.3638-.1718.0871-.3772.1307-.6162.1307-.3286 0-.59-.0796-.7842-.2387-.1942-.1592-.2913-.3694-.2913-.6309 0-.2538.0896-.4584.2689-.6138.183-.1553.4724-.233.8683-.233h.9355v-.1818c0-.2577-.071-.4528-.2129-.5854-.1419-.1364-.3492-.2046-.6218-.2046-.1867 0-.366.0322-.5378.0966-.1718.0606-.3193.1459-.4425.2558l-.1793-.3013c.1494-.1288.3286-.2273.5378-.2955.2091-.072.4295-.108.661-.108Zm-.14 2.7223c.224 0 .4164-.0511.5769-.1534.1606-.1061.2801-.2577.3586-.4547v-.4888h-.9243c-.5042 0-.7563.1781-.7563.5343 0 .1743.0654.3125.1961.4148.1307.0986.3137.1478.549.1478ZM90.7504 35.9725v1.1025h-.3753v-.7501h-2.6945v-2.9894h.3977v2.637h1.7982v-2.637h.3977v2.637h.4762ZM91.51 33.3355h.3977v2.3756l1.9663-2.3756h.3529v2.9894h-.3978v-2.3756l-1.9606 2.3756H91.51v-2.9894ZM97.6299 33.3355v2.9894h-.3641v-.9889h-1.0364l-.6834.9889h-.4314l.7339-1.0458c-.2278-.0644-.4033-.1742-.5266-.3296-.1232-.1553-.1848-.3524-.1848-.5911 0-.3334.112-.5872.3361-.7615.224-.1743.5303-.2614.9187-.2614h1.238Zm-2.0895 1.0343c0 .4433.2782.665.8347.665h.8907v-1.3413h-.8627c-.5752 0-.8627.2254-.8627.6763ZM102.874 33.3355v2.9894h-.398v-2.6314h-1.848v2.6314h-.398v-2.9894h2.644ZM105.22 36.3533c-.283 0-.539-.0644-.767-.1933-.228-.1326-.407-.3144-.538-.5456-.131-.2311-.196-.4925-.196-.7842 0-.2918.065-.5532.196-.7843.131-.2311.31-.4111.538-.5399.228-.1289.484-.1933.767-.1933.284 0 .54.0644.768.1933.228.1288.405.3088.532.5399.131.2311.196.4925.196.7843 0 .2917-.065.5531-.196.7842-.127.2312-.304.413-.532.5456-.228.1289-.484.1933-.768.1933Zm0-.3581c.209 0 .396-.0473.561-.1421.168-.0985.298-.2368.392-.4148.093-.1781.14-.3808.14-.6081 0-.2274-.047-.4301-.14-.6081-.094-.1781-.224-.3145-.392-.4092-.165-.0985-.352-.1478-.561-.1478-.209 0-.397.0493-.565.1478-.165.0947-.295.2311-.393.4092-.093.178-.14.3807-.14.6081 0 .2273.047.43.14.6081.098.178.228.3163.393.4148.168.0948.356.1421.565.1421ZM109.305 36.3249l-.935-1.2504-.941 1.2504h-.449l1.166-1.5345-1.11-1.4549h.449l.885 1.1707.885-1.1707h.437l-1.109 1.4549 1.176 1.5345h-.454ZM111.522 36.3533c-.283 0-.539-.0644-.767-.1933-.228-.1326-.407-.3144-.538-.5456-.131-.2311-.196-.4925-.196-.7842 0-.2918.065-.5532.196-.7843.131-.2311.31-.4111.538-.5399.228-.1289.484-.1933.767-.1933.284 0 .54.0644.768.1933.228.1288.405.3088.532.5399.131.2311.196.4925.196.7843 0 .2917-.065.5531-.196.7842-.127.2312-.304.413-.532.5456-.228.1289-.484.1933-.768.1933Zm0-.3581c.21 0 .396-.0473.561-.1421.168-.0985.298-.2368.392-.4148.093-.1781.14-.3808.14-.6081 0-.2274-.047-.4301-.14-.6081-.094-.1781-.224-.3145-.392-.4092-.165-.0985-.351-.1478-.561-.1478-.209 0-.397.0493-.565.1478-.165.0947-.295.2311-.392.4092-.094.178-.141.3807-.141.6081 0 .2273.047.43.141.6081.097.178.227.3163.392.4148.168.0948.356.1421.565.1421ZM116.726 35.9725v1.0741h-.376v-.7217h-2.638v.7217h-.376v-1.0741h.168c.198-.0114.333-.1591.404-.4433.071-.2842.119-.682.145-1.1935l.04-1.0002h2.173v2.637h.46Zm-2.308-1.6141c-.019.4244-.055.7749-.107 1.0515-.052.2727-.146.4603-.28.5626h1.837v-2.279h-1.417l-.033.6649ZM118.716 36.3533c-.284 0-.539-.0644-.767-.1933-.228-.1326-.407-.3144-.538-.5456-.131-.2311-.196-.4925-.196-.7842 0-.2918.065-.5532.196-.7843.131-.2311.31-.4111.538-.5399.228-.1289.483-.1933.767-.1933.284 0 .54.0644.768.1933.228.1288.405.3088.532.5399.131.2311.196.4925.196.7843 0 .2917-.065.5531-.196.7842-.127.2312-.304.413-.532.5456-.228.1289-.484.1933-.768.1933Zm0-.3581c.209 0 .396-.0473.56-.1421.168-.0985.299-.2368.393-.4148.093-.1781.14-.3808.14-.6081 0-.2274-.047-.4301-.14-.6081-.094-.1781-.225-.3145-.393-.4092-.164-.0985-.351-.1478-.56-.1478-.209 0-.398.0493-.566.1478-.164.0947-.295.2311-.392.4092-.093.178-.14.3807-.14.6081 0 .2273.047.43.14.6081.097.178.228.3163.392.4148.168.0948.357.1421.566.1421ZM122.939 34.779c.399.0947.599.3391.599.7331 0 .2615-.095.4623-.286.6025-.19.1402-.474.2103-.851.2103h-1.339v-2.9894h1.3c.336 0 .599.0663.789.1989.191.1326.286.322.286.5683 0 .1629-.045.3031-.134.4206-.086.1136-.208.1989-.364.2557Zm-1.49-.1137h.885c.227 0 .401-.0435.521-.1307.123-.0871.184-.214.184-.3807 0-.1668-.061-.2918-.184-.3751-.12-.0834-.294-.1251-.521-.1251h-.885v1.0116Zm.935 1.3413c.254 0 .444-.0417.571-.125.127-.0834.191-.2141.191-.3922 0-.1781-.058-.3088-.174-.3921-.116-.0872-.299-.1307-.549-.1307h-.974v1.04h.935ZM127.813 34.779c.399.0947.599.3391.599.7331 0 .2615-.095.4623-.285.6025-.191.1402-.475.2103-.852.2103h-1.339v-2.9894h1.3c.336 0 .599.0663.79.1989.19.1326.285.322.285.5683 0 .1629-.044.3031-.134.4206-.086.1136-.207.1989-.364.2557Zm-1.49-.1137h.885c.228 0 .401-.0435.521-.1307.123-.0871.185-.214.185-.3807 0-.1668-.062-.2918-.185-.3751-.12-.0834-.293-.1251-.521-.1251h-.885v1.0116Zm.935 1.3413c.254 0 .445-.0417.572-.125.127-.0834.19-.2141.19-.3922 0-.1781-.058-.3088-.174-.3921-.115-.0872-.298-.1307-.549-.1307h-.974v1.04h.935ZM132.894 33.6935h-1.686v2.6314h-.397v-2.9894h2.083v.358ZM134.548 36.3533c-.284 0-.54-.0644-.767-.1933-.228-.1326-.407-.3144-.538-.5456-.131-.2311-.196-.4925-.196-.7842 0-.2918.065-.5532.196-.7843.131-.2311.31-.4111.538-.5399.227-.1289.483-.1933.767-.1933.284 0 .54.0644.768.1933.227.1288.405.3088.532.5399.13.2311.196.4925.196.7843 0 .2917-.066.5531-.196.7842-.127.2312-.305.413-.532.5456-.228.1289-.484.1933-.768.1933Zm0-.3581c.209 0 .396-.0473.56-.1421.168-.0985.299-.2368.392-.4148.094-.1781.14-.3808.14-.6081 0-.2274-.046-.4301-.14-.6081-.093-.1781-.224-.3145-.392-.4092-.164-.0985-.351-.1478-.56-.1478-.209 0-.398.0493-.566.1478-.164.0947-.295.2311-.392.4092-.093.178-.14.3807-.14.6081 0 .2273.047.43.14.6081.097.178.228.3163.392.4148.168.0948.357.1421.566.1421ZM138.412 33.3127c.276 0 .526.0644.751.1933.224.125.399.3031.526.5342.127.2311.191.4944.191.79 0 .2993-.064.5645-.191.7956-.127.2311-.302.4111-.526.5399-.221.1251-.471.1876-.751.1876-.239 0-.456-.0493-.65-.1478-.19-.1023-.347-.2501-.47-.4433v1.6652h-.398v-4.0919h.381v.591c.119-.197.276-.3485.47-.4546.198-.1061.42-.1592.667-.1592Zm-.028 2.6825c.205 0 .392-.0473.56-.1421.168-.0985.299-.2368.392-.4148.097-.1781.146-.3808.146-.6081 0-.2274-.049-.4282-.146-.6025-.093-.178-.224-.3163-.392-.4148-.168-.0985-.355-.1478-.56-.1478-.209 0-.398.0493-.566.1478-.164.0985-.295.2368-.392.4148-.093.1743-.14.3751-.14.6025 0 .2273.047.43.14.6081.097.178.228.3163.392.4148.168.0948.357.1421.566.1421ZM141.972 34.3926c.37.0037.652.0871.846.25.194.1629.291.3978.291.7047 0 .3183-.104.5627-.313.7332-.21.1705-.508.2538-.897.25l-1.165-.0056v-2.9894h.398v1.0457l.84.0114Zm1.63-1.0571H144v2.9894h-.398v-2.9894Zm-1.725 2.6881c.273.0038.478-.0511.616-.1648.142-.1174.213-.2879.213-.5115 0-.2197-.069-.3826-.207-.4887-.138-.1061-.346-.161-.622-.1648l-.745-.0114v1.3299l.745.0113Z"/></g><defs><clipPath id="a"><path fill="#fff" d="M0 0h144v44H0z"/></clipPath></defs></svg>