<svg xmlns="http://www.w3.org/2000/svg" width="24" height="24" fill="none" viewBox="0 0 24 24"><path fill="#2D383F" d="M23.6583 15.6155c.7457-2.335.1321-4.9854-.5198-6.822a.4265.4265 0 0 0-.0639-.2002c-.2216-.5966-.4262-1.0866-.6009-1.4403a.8522.8522 0 0 0 .5369-.784V2.8195a.8522.8522 0 0 0-.8522-.8522H11.6889a.426.426 0 0 0-.4261.4517c.1449 2.5566-.0426 4.2909-.5837 5.5138a.3763.3763 0 0 0-.0299.0383.426.426 0 0 0 0 .064 4.4094 4.4094 0 0 1-.8266 1.2058l-.0384.0256v.0298a6.1489 6.1489 0 0 1-1.7044 1.1505 29.297 29.297 0 0 1-3.3663 1.2528l-.2173.0724c-3.984 1.321-4.504 3.7157-4.4954 4.9173a.409.409 0 0 0 0 .0511v3.0425a.4263.4263 0 0 0 .2045.3622 12.382 12.382 0 0 0 3.132 1.355.4261.4261 0 0 0 .541-.4261v-.098h.6265v.4261a.4261.4261 0 0 0 .3579.4261 14.452 14.452 0 0 0 1.1036.1363.4258.4258 0 0 0 .3238-.1108.426.426 0 0 0 .1364-.3153v-.5369h.6264v.6051c0 .2353.1908.4261.4261.4261.358 0 .7159 0 1.0994-.0511a.4261.4261 0 0 0 .392-.4261v-.554h.6264v.375a.4261.4261 0 0 0 .4942.4261 14.4439 14.4439 0 0 0 2.3053-.5497l.0682-.0298c2.9827-1.7044 4.8746-.3025 4.9513-.2429a.4258.4258 0 0 0 .26.0895h.5283a.426.426 0 0 0 .4261-.4261v-.7201h.6094v.7116c0 .2353.1908.4261.4261.4261h1.3721a.4261.4261 0 0 0 .4261-.4261v-.7116h.6306v.7116c0 .2353.1908.4261.4261.4261h1.0525a.4261.4261 0 0 0 .4261-.4261v-4.5935a.426.426 0 0 0-.3409-.4261ZM13.5468 2.828h8.5903v3.5282h-8.5903V2.828Zm-5.3562 8.4966.0043.0256a7.309 7.309 0 0 1 .963.9417.8052.8052 0 0 0-.115.4261.8138.8138 0 0 0 .8085.8191.8138.8138 0 0 0 .0777-1.6245 6.5723 6.5723 0 0 0-.9161-1.0098 6.608 6.608 0 0 0 1.0695-.7585c.4133.3877.7978.805 1.1505 1.2485a.814.814 0 0 0 1.5367.5369.814.814 0 0 0-.774-1.0823h-.1022a12.457 12.457 0 0 0-1.2187-1.3252c.2031-.25.3828-.5182.5369-.8011a17.864 17.864 0 0 1 1.909 1.1505.8224.8224 0 1 0 .4559-.7287 18.8433 18.8433 0 0 0-2.007-1.1845c.4645-1.2358.6648-2.8763.571-5.1133h.5582v3.5281c0 .4707.3815.8523.8522.8523h7.9853c.1108.2258.2983.6178.5028 1.1291h-.1747c-2.5886.0187-4.6719 2.1323-4.6532 4.7209a4.6874 4.6874 0 0 0 1.892 3.7289c-3.4472.9076-8.6329 1.9856-12.9963 1.7044.8054-3.2171-.1576-5.1985-.784-6.0678a28.3359 28.3359 0 0 0 2.8677-1.1164Zm-3.7242 1.3593c.4602.5412 1.6618 2.3606.7798 5.7056a10.7056 10.7056 0 0 1-4.3719-1.3209 2.7085 2.7085 0 0 1-.0298-.2941v-.0298c-.0341-.9076.3068-2.872 3.622-4.0608Zm18.4803 7.5251v-.7116a.426.426 0 0 0-.4261-.4261H21.042a.426.426 0 0 0-.4261.4261v.7116h-.5241v-.7116a.426.426 0 0 0-.4261-.4261h-1.4701a.426.426 0 0 0-.4261.4261v.6945c-.5795-.3622-2.6973-1.4147-5.7013.2642a13.3169 13.3169 0 0 1-1.632.4261v-.294a.4261.4261 0 0 0-.4261-.4261H8.54a.4261.4261 0 0 0-.4261.4261v.5838h-.2173v-.5966a.4261.4261 0 0 0-.4261-.4261H5.9919a.4261.4261 0 0 0-.4261.4261v.5071l-.2174-.0298v-.4773a.4261.4261 0 0 0-.426-.4261H3.4437a.4262.4262 0 0 0-.4262.375 11.4809 11.4809 0 0 1-2.1731-.9758V18.023c1.8578.9843 4.261 1.3551 6.8177 1.3551 6.7922 0 14.5644-2.5993 15.4805-2.9104l.0043 3.7413h-.2003Zm-.2088-4.4955c-.3622.1193-1.2527.4261-2.4842.7542-1.9064-.9226-2.704-3.2161-1.7813-5.1226a3.835 3.835 0 0 1 3.392-2.1638c.168-.0023.3359.0062.5028.0256l.0043.0127c.6264 1.8067 1.1888 4.3847.3664 6.4939Z"/><path fill="#2D383F" d="M15.1872 3.3438c-.6848 0-1.2399.5551-1.2399 1.24.0023.6838.5561 1.2375 1.2399 1.2399.6848 0 1.24-.5552 1.24-1.24s-.5551-1.24-1.24-1.24Zm0 1.6277a.3877.3877 0 1 1 0-.7755.3877.3877 0 0 1 0 .7755Z"/></svg>