<svg xmlns="http://www.w3.org/2000/svg" width="54" height="54" fill="none" viewBox="0 0 54 54"><path stroke="#0266C1" stroke-linecap="round" stroke-linejoin="round" d="M26.69 32.244c-.678-2.863-2.67-5.272-5.415-6.546A10.314 10.314 0 0 0 17 24.742a9.446 9.446 0 0 0 2.175 5.625c1.885 2.279 4.737 3.613 7.758 3.633a9.322 9.322 0 0 0-.243-1.756Zm0 0c-.556-2.35-1.999-4.395-4.016-5.756a9.32 9.32 0 0 1 .123-.608C23.37 23.458 24.885 21.36 27 20c2.115 1.36 3.63 3.458 4.203 5.88.048.202.089.405.123.608-2.017 1.361-3.46 3.406-4.016 5.756m-.62 0c.138.582.218 1.17.243 1.755l.125.001c.847 0 1.681-.103 2.485-.302l.014-.018c-.805.205-1.64.314-2.49.32m.243-1.756c.678-2.863 2.67-5.272 5.415-6.546A10.314 10.314 0 0 1 37 24.742a9.446 9.446 0 0 1-2.175 5.625C32.94 32.646 30.088 33.98 27.067 34m.243-1.756A9.322 9.322 0 0 0 27.067 34"/><path stroke="#0266C1" d="M.5.5h53v53H.5z"/></svg>