<svg xmlns="http://www.w3.org/2000/svg" width="14" height="15" viewBox="0 0 14 15"><path fill-rule="evenodd" clip-rule="evenodd" fill="#currentColor" d="M8.3617 0c-.449 0-.8702.244-1.1404.5959-.2702.3519-.4192.7808-.5277 1.2329-.1723.7268-.2255 1.5334-.2383 2.2602-1.2617.09-2.4043.4906-3.3532 1.1096-.3851-.3467-.849-.5393-1.2936-.5342-.5064.0051-.9872.2389-1.3447.7192-.683.917-.6043 2.417.1872 3.3082-.0489.2748-.085.5573-.085.8424C.566 12.5549 3.4467 15 7 15c3.5532 0 6.4341-2.4478 6.4341-5.4657 0-.2852-.0362-.5677-.0851-.8425.7915-.8913.8702-2.3913.1872-3.3082-.3574-.4804-.8383-.714-1.3447-.7192-.4447-.0051-.9085.1875-1.2936.5342-.9447-.6164-2.0809-1.017-3.3362-1.1096.017-.6703.0617-1.3664.1872-1.8904.0788-.3287.1724-.5676.2724-.6986.1-.131.1723-.185.3404-.185.3638 0 .4106.126.6298.4316.1106.154.2383.3467.4425.5342.2043.1875.5064.3493.8341.3493v-1.315c-.0915 0-.1085-.0026-.1702-.0617-.0617-.059-.1468-.1952-.2724-.3698C9.5745.5316 9.0872 0 8.3617 0Zm3.5404.1233c-.8468 0-1.5319.827-1.5319 1.8493s.6851 1.8493 1.5319 1.8493c.8469 0 1.532-.827 1.532-1.8493S12.749.1233 11.9021.1233Zm0 .6575c.5447 0 .9873.5343.9873 1.1918s-.4426 1.1918-.9873 1.1918c-.5446 0-.9872-.5343-.9872-1.1918s.4426-1.1918.9872-1.1918ZM7 5.1164c3.0149 0 5.566 2.0266 5.566 4.4179 0 2.3938-2.5511 4.4178-5.566 4.4178-3.015 0-5.566-2.024-5.566-4.4178C1.434 7.143 3.985 5.1163 7 5.1163Zm-5.1745.596c.151.0025.3085.0436.4596.1232-.5468.5009-.9809 1.0762-1.2766 1.726-.2043-.5085-.149-1.143.1021-1.4794.183-.2466.4362-.3724.715-.3699Zm10.349 0c.2787-.0026.5319.1232.7149.3698.2511.3365.3064.9709.1021 1.4794-.2957-.6498-.7298-1.2251-1.2766-1.726.1511-.0796.3085-.1207.4596-.1233ZM4.8213 7.3561c-.5447 0-.9873.5342-.9873 1.1917 0 .6576.4426 1.1918.9873 1.1918.5446 0 .9872-.5342.9872-1.1917 0-.6576-.4426-1.1918-.9872-1.1918Zm4.3574 0c-.5446 0-.9872.5342-.9872 1.1917 0 .6576.4426 1.1918.9872 1.1918.5447 0 .9873-.5342.9873-1.1917 0-.6576-.4426-1.1918-.9873-1.1918Zm-4.885 4.0479c.3467.8656 1.419 1.7055 2.7063 1.7055 1.2872 0 2.3766-.8399 2.7234-1.7055-.6298.4906-1.6234.8219-2.7234.8219-1.1 0-2.0766-.3313-2.7064-.8219Z"/></svg>