<svg xmlns="http://www.w3.org/2000/svg" width="20" height="20" fill="none" viewBox="0 0 20 20"><path fill="#fff" d="M13.545 6.455c-.8995-.8994-2.1693-1.4814-3.545-1.4814-1.3757 0-2.6455.5555-3.545 1.4814-.8994.8995-1.4815 2.1693-1.4815 3.545 0 1.3757.582 2.6455 1.4815 3.545.8995.8994 2.1693 1.4815 3.545 1.4815 1.3757 0 2.6455-.5556 3.545-1.4815.8994-.8995 1.4815-2.1693 1.4815-3.545 0-1.3757-.5556-2.6455-1.4815-3.545Zm-.9524 6.1376c-.6614.6614-1.5873 1.0582-2.5926 1.0582s-1.9312-.3968-2.5926-1.0582S6.3492 11.0053 6.3492 10s.3968-1.9312 1.0582-2.5926C8.0688 6.7461 8.9947 6.3492 10 6.3492s1.9312.3969 2.5926 1.0582c.6614.6614 1.0582 1.5873 1.0582 2.5926s-.3968 1.9312-1.0582 2.5926ZM19.3122 9.3122h-2.0371c-.3703 0-.6878.3175-.6878.6878 0 .3704.3175.6879.6878.6879h2.0371c.3703 0 .6878-.3175.6878-.6879 0-.3703-.3175-.6878-.6878-.6878ZM10 16.5873c-.3704 0-.6878.3175-.6878.6878v2.0371c0 .3703.3174.6878.6878.6878.3704 0 .6878-.3175.6878-.6878v-2.0371c0-.3703-.3174-.6878-.6878-.6878ZM17.0635 16.1111l-1.455-1.4551c-.2381-.2645-.6878-.2645-.9524 0a.6707.6707 0 0 0 0 .9524l1.455 1.455a.6706.6706 0 0 0 .9524 0 .6704.6704 0 0 0 0-.9523ZM10 0c-.3704 0-.6878.3175-.6878.6878v2.037c0 .3704.3174.6879.6878.6879.3704 0 .6878-.3175.6878-.6878V.6879C10.6878.3174 10.3704 0 10 0ZM17.0899 2.9365a.6705.6705 0 0 0-.9523 0l-1.4551 1.455a.6707.6707 0 0 0 0 .9524c.2381.2646.6879.2646.9524 0l1.455-1.455a.6705.6705 0 0 0 0-.9524ZM2.7249 9.3122H.6879C.3174 9.3122 0 9.6297 0 10c0 .3704.291.6879.6878.6879h2.037c.3704 0 .6879-.3175.6879-.6879 0-.3703-.3175-.6878-.6878-.6878ZM5.3175 14.656c-.2381-.2645-.6879-.2645-.9524 0L2.91 16.1111a.6705.6705 0 0 0 0 .9523.6705.6705 0 0 0 .9523 0l1.455-1.455a.6707.6707 0 0 0 0-.9524ZM5.3175 4.3915l-1.455-1.455a.6706.6706 0 0 0-.9524 0 .6706.6706 0 0 0 0 .9524l1.455 1.455a.6706.6706 0 0 0 .9524 0 .6706.6706 0 0 0 0-.9524Z"/></svg>